<svg width="390" height="844" viewBox="0 0 390 844" fill="none" xmlns="http://www.w3.org/2000/svg">
<g clip-path="url(#clip0_8_3)">
<rect width="390" height="844" fill="url(#paint0_linear_8_3)"/>
<g clip-path="url(#clip1_8_3)">
<path d="M211.238 236.734C210.527 236.728 209.819 236.82 209.133 237.007C200.068 240.027 188.521 266.217 180.101 285.337C178.357 289.306 176.739 292.953 175.293 296.054C164.658 319.062 154.321 343.967 142.774 374.446C131.589 403.93 120.875 434.152 110.506 463.378C100.892 490.5 90.9473 518.537 80.6573 545.932C79.0078 550.302 77.3583 554.737 75.6931 559.203L72.5511 567.655C93.2095 566.225 110.255 564.956 126.074 563.654C179.032 559.3 219.658 554.785 257.817 549.033C270.527 547.121 293.023 542.702 299.606 541.401C311.168 539.103 321.254 535.472 326.579 531.761C337.938 523.727 340.106 510.423 333.02 492.251C326.328 475.075 319.29 457.16 312.079 439.004C308.937 431.244 305.921 423.435 302.842 415.643C286.598 374.414 269.851 331.771 250.418 291.314C249.617 289.707 248.706 287.763 247.716 285.658C239.5 268.322 224.56 236.798 211.238 236.798M70.3359 569.39L74.3263 558.721C75.9758 554.271 77.6253 549.836 79.2748 545.45C89.5648 518.136 99.4934 490.034 109.124 462.929C119.492 433.702 130.222 403.48 141.407 373.964C152.97 343.436 163.323 318.5 173.974 295.476C175.419 292.391 177.022 288.727 178.765 284.775C187.312 265.398 199.015 238.855 208.74 235.609C223.806 231.656 239.61 265.044 249.051 285L251.753 290.639C271.139 331.097 287.965 373.755 304.256 415C307.314 422.798 310.388 430.585 313.477 438.362C320.688 456.518 327.742 474.433 334.434 491.609C341.802 510.52 339.446 524.434 327.459 532.917C321.961 536.822 311.671 540.533 299.92 542.863C293.322 544.181 270.809 548.583 258.069 550.511C219.878 556.279 179.221 560.778 126.216 565.132C110.082 566.466 92.7068 567.767 71.5299 569.229L70.3359 569.39ZM-115.637 578.227L-115.857 577.858C-120.862 569.475 -126.322 561.386 -132.211 553.628C-178.351 493.408 -246.752 451.232 -319.881 437.944C-402.656 422.857 -493.632 422.905 -589.776 441.045C-493.459 422.873 -402.578 421.33 -319.567 436.45C-246.076 449.85 -177.346 492.235 -131.049 552.744C-125.21 560.428 -119.793 568.436 -114.82 576.733C-68.6334 575.48 -22.0536 573.519 23.6149 570.868C34.9731 541.289 45.6871 510.889 56.0714 481.502C61.4598 466.19 67.0684 450.364 72.6453 434.907C83.6422 404.556 95.4403 372.245 108.982 340.239L110.836 335.853C123.985 304.65 137.543 272.403 162.349 249.989C167.943 244.949 174.376 240.976 181.342 238.26V238.067L182.834 237.698C189.55 235.282 196.395 233.259 203.336 231.64C206.022 230.966 208.724 230.275 211.458 229.536L217.443 227.929C228.016 224.924 239.028 221.823 249.931 222.161C277.36 222.98 290.604 250.391 301.255 272.419L303.282 276.613C322.133 315.897 338.409 357.238 354.213 397.213C356.988 404.262 359.779 411.31 362.586 418.358C370.693 438.763 378.045 457.434 385.067 475.445C388.932 485.358 392.545 499.546 387.769 510.664C385.193 516.69 380.417 520.305 373.63 522.956C368.729 524.9 363.136 526.169 357.92 528.049C363.105 526.233 368.195 524.338 373.081 522.409C376.018 521.393 378.721 519.773 381.023 517.648C383.325 515.523 385.177 512.939 386.465 510.054C391.021 499.385 387.502 485.648 383.732 476.007C376.725 457.996 369.357 439.326 361.267 418.936C358.46 411.899 355.669 404.851 352.893 397.792C337.184 357.833 320.782 316.508 301.993 277.287L299.967 273.11C289.504 251.451 276.481 224.49 249.931 223.687C239.264 223.366 228.361 226.435 217.883 229.391C215.872 229.969 213.877 230.532 211.897 230.998C209.148 231.753 206.43 232.444 203.744 233.135C196.829 234.74 190.01 236.752 183.321 239.16L182.787 239.288C175.672 241.928 169.095 245.888 163.385 250.969C138.878 273.158 125.336 305.261 112.25 336.302L110.396 340.689C96.8699 372.679 85.0561 404.958 74.0906 435.277C68.4979 450.782 62.921 466.608 57.5167 481.872C47.1011 511.436 36.3084 542.012 24.8716 571.736L24.6989 572.186H24.2275C-21.7394 574.853 -68.6334 576.829 -115.15 578.099L-115.637 578.227ZM-298.704 579.834C-365.361 579.255 -434.469 577.424 -504.142 574.371L-518.988 573.728C-566.824 571.672 -616.31 569.551 -664.492 563.269C-666.676 562.995 -669.724 562.658 -673.368 562.288C-696.933 559.782 -740.921 555.138 -745.838 541.626C-759.16 504.944 -708.134 477.967 -692.252 470.56C-671.562 460.92 -628.721 452.388 -619.059 450.942C-599.595 448.018 -579.094 445.753 -556.361 444.017C-493.899 439.197 -435.568 440.804 -383.003 448.58C-310.738 459.346 -245.291 495.497 -193.904 553.018C-186.873 560.958 -180.376 569.375 -174.455 578.211C-180.563 569.443 -187.25 561.111 -194.469 553.275C-245.589 495.898 -311.225 460.695 -383.223 449.978C-435.678 442.17 -493.899 440.707 -556.251 445.431C-578.952 447.167 -599.422 449.432 -618.839 452.34C-628.454 453.786 -671.09 462.318 -691.639 471.846C-707.349 479.108 -757.338 505.587 -744.44 540.935C-739.837 553.58 -694.844 558.336 -673.211 560.617C-669.551 561.003 -666.503 561.324 -664.288 561.614C-616.185 567.88 -566.746 570.001 -518.925 572.057L-504.079 572.7C-434.437 575.737 -365.33 579.127 -298.704 579.673V579.834ZM-38.8161 695.341C-39.8473 695.351 -40.8584 695.05 -41.7224 694.474C-57.9664 683.13 -70.0001 661.713 -78.7348 646.079L-80.0387 643.765C-85.1287 634.704 -90.0145 625.385 -94.7274 616.355C-99.4404 607.325 -104.153 598.392 -109.055 589.571C-104.106 598.408 -98.6235 606.811 -94.0048 615.648C-89.3861 624.485 -83.8405 633.964 -78.7662 642.962L-77.4466 645.292C-68.759 660.797 -56.851 682.038 -40.8898 693.204C-40.1064 693.704 -39.173 693.899 -38.2609 693.751C-37.3488 693.603 -36.5195 693.124 -35.9255 692.401C-34.4597 690.646 -33.0807 688.818 -31.7938 686.922L-31.6681 686.745C-16.9636 665.858 -5.9353 642.111 2.89362 621.705C7.88934 610.217 12.9008 598.022 18.6034 583.433C12.2409 583.819 5.89417 583.529 -0.468323 583.915C-7.255 584.317 -14.0416 583.915 -20.8911 584.236H-20.9697L-0.546875 583.079L19.6874 581.842H20.8499L20.4101 582.951C14.4717 598.054 9.31891 610.587 4.19751 622.38C-4.67859 642.866 -15.754 666.629 -30.5527 687.677L-30.6784 687.87C-31.9852 689.808 -33.3906 691.674 -34.8886 693.461C-35.378 694.062 -35.9907 694.544 -36.683 694.874C-37.3754 695.205 -38.1306 695.375 -38.8946 695.373M-67.6594 717.064C-72.6952 717 -77.6677 715.907 -82.2853 713.851C-108.631 702.604 -124.403 672.076 -137.081 647.67L-142.642 636.985C-150.497 621.994 -158.525 606.457 -167.401 591.997C-323.557 596.56 -476.163 594.134 -621.055 584.895C-654.344 582.774 -690.178 580.075 -726.122 575.496L-732.799 574.644C-751.101 572.33 -770.031 569.953 -787.013 563.156C-789.776 562.184 -792.259 560.524 -794.236 558.324C-796.214 556.125 -797.624 553.456 -798.34 550.559C-801.199 539.312 -795.041 524.996 -788.129 516.4C-774.681 499.755 -755.138 487.094 -726.782 476.554C-754.934 486.997 -773.723 500.928 -786.982 517.364C-793.879 525.928 -799.55 539.955 -796.911 550.19C-796.248 552.853 -794.945 555.304 -793.12 557.322C-791.296 559.339 -789.008 560.859 -786.464 561.742C-769.67 568.474 -750.834 570.852 -732.61 573.134L-725.934 573.985C-689.974 578.645 -654.218 581.264 -620.96 583.385C-475.974 592.639 -323.274 594.953 -167.04 590.39H-166.616L-166.396 590.76C-157.394 605.445 -149.241 621.111 -141.354 636.246L-135.793 646.931C-123.225 671.16 -107.515 701.318 -81.7197 712.421C-75.8664 715.103 -69.3928 716.044 -63.0407 715.136C-59.8987 714.638 -50.0329 711.746 -33.6789 706.508C-25.4626 704.227 -18.3147 702.057 -11.7951 699.84C1.47974 695.341 10.9213 684.512 18.4149 674.502C39.576 646.224 54.1077 611.84 66.6599 579.047L66.8326 578.597H67.2882C129.122 573.969 179.095 568.185 224.575 560.409C179.174 568.185 129.531 575.447 67.8695 580.075C55.3016 612.9 40.77 647.156 19.5931 675.45C11.9739 685.637 2.31232 696.675 -11.3239 701.318C-17.8748 703.536 -25.0385 705.721 -33.3176 707.986C-49.7187 713.24 -59.6316 716.164 -62.7579 716.646C-64.4047 716.917 -66.0701 717.051 -67.7379 717.048" fill="#008BA7" fill-opacity="0.5"/>
</g>
</g>
<defs>
<linearGradient id="paint0_linear_8_3" x1="0" y1="422" x2="390" y2="422" gradientUnits="userSpaceOnUse">
<stop offset="0.0208333" stop-color="#0F3B62"/>
<stop offset="1" stop-color="#037998"/>
</linearGradient>
<clipPath id="clip0_8_3">
<rect width="390" height="844" fill="white"/>
</clipPath>
<clipPath id="clip1_8_3">
<rect width="1189" height="495" fill="white" transform="translate(-799 222)"/>
</clipPath>
</defs>
</svg>
