<svg width="70" height="30" viewBox="0 0 70 30" fill="none" xmlns="http://www.w3.org/2000/svg">
<path d="M44.6295 28.0781C43.687 27.2688 42.9231 26.2717 42.3866 25.1503C41.7875 24.1183 41.2615 23.0497 40.677 22.025C42.7957 21.9371 44.9218 21.8347 47.0405 21.7176L48.2314 21.6444C47.9246 22.3763 47.6104 23.1668 47.2743 23.9207C46.7261 25.2417 46.043 26.5025 45.236 27.6828C45.1566 27.7971 45.0712 27.907 44.9802 28.0122C44.9553 28.0423 44.924 28.0664 44.8886 28.0829C44.8532 28.0993 44.8147 28.1077 44.7757 28.1073C44.7245 28.1093 44.6738 28.0966 44.6295 28.0708M17.3486 21.1247C14.2216 20.9856 11.0288 20.8832 7.90179 20.4806C6.97392 20.3635 3.46702 20.1366 3.13825 19.2582C2.40764 17.3332 4.89901 15.8328 6.27986 15.2106C7.67158 14.6933 9.11041 14.3133 10.5758 14.0761C11.8033 13.9005 13.038 13.7687 14.2727 13.6809C17.6815 13.3899 21.1119 13.4782 24.5013 13.9444C28.7972 14.5873 32.732 16.7189 35.6211 19.9682C36.0366 20.4291 36.4199 20.9183 36.7682 21.4321C35.2583 21.4321 33.7435 21.4321 32.2238 21.4321C27.2703 21.4321 22.3094 21.315 17.3705 21.11M51.7968 19.4998C53.0608 16.2134 54.1932 12.8758 55.4499 9.58937C56.0344 8.05962 56.6627 6.54451 57.3641 5.05868C57.8609 4.01201 58.723 1.84548 59.3879 1.6259C60.3303 1.38436 61.4043 3.82171 61.8719 4.78054C63.2308 7.55458 64.3487 10.4531 65.5249 13.3149C65.9414 14.3396 66.3505 15.3643 66.7597 16.3964C67.125 17.3113 67.1396 18.1896 66.3652 18.7239C65.8694 19.0126 65.3243 19.2062 64.7578 19.2949C63.9468 19.4559 62.9021 19.6462 62.2884 19.734C59.7093 20.1146 57.1156 20.3708 54.522 20.583L51.3 20.8173L51.7968 19.4998ZM60.6518 0.981791C60.2792 1.06962 59.9212 1.17943 59.5632 1.27458C58.993 1.40174 58.4297 1.55808 57.8755 1.74301H57.7805H57.839C57.417 1.89977 57.0262 2.13023 56.6846 2.42371C55.1649 3.77779 54.3394 5.79794 53.5503 7.62779C52.7612 9.45763 52.0891 11.2875 51.4096 13.088C50.4379 15.7157 49.5319 18.3653 48.4872 20.971C45.7547 21.132 43.0149 21.2418 40.2751 21.315C39.978 20.8285 39.6536 20.3593 39.3034 19.9097C36.5416 16.4014 32.5991 14.0207 28.2128 13.2125C21.4766 12.0048 14.3312 12.7367 7.75571 14.508C5.35931 15.1594 2.30536 15.7962 0.632266 17.8237C0.0185537 18.5556 -0.434463 20.0195 0.683369 20.4513C1.84216 20.8417 3.04456 21.0875 4.26337 21.1832C6.31638 21.4467 8.39134 21.6005 10.4517 21.7249C19.3432 22.2812 28.2931 22.3909 37.2138 22.1348C37.8056 23.0863 38.3317 24.089 38.865 25.0625C39.6541 26.5264 40.582 28.4587 42.2258 29.1467C42.5805 29.3068 42.9732 29.3626 43.3583 29.3077C43.5409 29.3077 44.0889 29.1101 45.0898 28.81C45.5209 28.6929 45.952 28.5612 46.3757 28.4221C47.11 28.1262 47.7386 27.6162 48.1803 26.9582C49.3799 25.2566 50.3388 23.397 51.0297 21.4321C54.823 21.1943 58.5978 20.7201 62.3322 20.0121C64.6219 19.59 66.8726 18.978 69.0611 18.1823C70.2739 17.7139 70.0986 16.4183 69.7114 15.4449C69.273 14.3372 68.8322 13.2368 68.389 12.1438C67.2711 9.39906 66.1971 6.62503 64.8893 3.96078C64.3341 2.84823 63.7131 1.42097 62.5076 0.974487L60.6518 0.981791Z" fill="white"/>
</svg>
