<svg width="70" height="29" viewBox="0 0 70 29" fill="none" xmlns="http://www.w3.org/2000/svg">
<path d="M44.6295 27.1036C43.687 26.2944 42.9231 25.2973 42.3866 24.1759C41.7875 23.1438 41.2615 22.0752 40.677 21.0505C42.7957 20.9626 44.9218 20.8602 47.0405 20.7431L48.2314 20.6699C47.9246 21.4018 47.6104 22.1923 47.2743 22.9462C46.7261 24.2673 46.043 25.528 45.236 26.7083C45.1566 26.8226 45.0712 26.9326 44.9802 27.0377C44.9553 27.0678 44.924 27.0919 44.8886 27.1084C44.8532 27.1248 44.8147 27.1332 44.7757 27.1329C44.7245 27.1348 44.6738 27.1221 44.6295 27.0963M17.3486 20.1502C14.2216 20.0111 11.0288 19.9087 7.90179 19.5061C6.97392 19.389 3.46702 19.1621 3.13825 18.2838C2.40764 16.3588 4.89901 14.8583 6.27986 14.2361C7.67158 13.7188 9.11041 13.3388 10.5758 13.1017C11.8033 12.926 13.038 12.7942 14.2727 12.7064C17.6815 12.4154 21.1119 12.5038 24.5013 12.9699C28.7972 13.6128 32.732 15.7444 35.6211 18.9937C36.0366 19.4547 36.4199 19.9438 36.7682 20.4576C35.2583 20.4576 33.7435 20.4576 32.2238 20.4576C27.2703 20.4576 22.3094 20.3405 17.3705 20.1356M51.7968 18.5253C53.0608 15.2389 54.1932 11.9013 55.4499 8.61488C56.0344 7.08513 56.6627 5.57003 57.3641 4.08419C57.8609 3.03753 58.723 0.870993 59.3879 0.651412C60.3303 0.409873 61.4043 2.84722 61.8719 3.80606C63.2308 6.58009 64.3487 9.47856 65.5249 12.3404C65.9414 13.3651 66.3505 14.3899 66.7597 15.4219C67.125 16.3368 67.1396 17.2151 66.3652 17.7495C65.8694 18.0381 65.3243 18.2317 64.7578 18.3204C63.9468 18.4814 62.9021 18.6717 62.2884 18.7595C59.7093 19.1401 57.1156 19.3963 54.522 19.6086L51.3 19.8428L51.7968 18.5253ZM60.6518 0.00730417C60.2792 0.0951365 59.9212 0.204945 59.5632 0.300097C58.993 0.427255 58.4297 0.583595 57.8755 0.768524H57.7805H57.839C57.417 0.925282 57.0262 1.15574 56.6846 1.44922C55.1649 2.8033 54.3394 4.82346 53.5503 6.6533C52.7612 8.48314 52.0891 10.313 51.4096 12.1135C50.4379 14.7412 49.5319 17.3908 48.4872 19.9965C45.7547 20.1575 43.0149 20.2673 40.2751 20.3405C39.978 19.854 39.6536 19.3848 39.3034 18.9352C36.5416 15.4269 32.5991 13.0462 28.2128 12.238C21.4766 11.0303 14.3312 11.7622 7.75571 13.5335C5.35931 14.1849 2.30536 14.8217 0.632266 16.8492C0.0185537 17.5811 -0.434463 19.045 0.683369 19.4768C1.84216 19.8672 3.04456 20.113 4.26337 20.2087C6.31638 20.4722 8.39134 20.626 10.4517 20.7504C19.3432 21.3067 28.2931 21.4165 37.2138 21.1603C37.8056 22.1118 38.3317 23.1145 38.865 24.088C39.6541 25.5519 40.582 27.4842 42.2258 28.1722C42.5805 28.3323 42.9732 28.3881 43.3583 28.3332C43.5409 28.3332 44.0889 28.1356 45.0898 27.8355C45.5209 27.7184 45.952 27.5867 46.3757 27.4476C47.11 27.1517 47.7386 26.6417 48.1803 25.9837C49.3799 24.2821 50.3388 22.4225 51.0297 20.4576C54.823 20.2199 58.5978 19.7456 62.3322 19.0376C64.6219 18.6155 66.8726 18.0035 69.0611 17.2078C70.2739 16.7394 70.0986 15.4438 69.7114 14.4704C69.273 13.3627 68.8322 12.2624 68.389 11.1693C67.2711 8.42457 66.1971 5.65054 64.8893 2.98629C64.3341 1.87375 63.7131 0.446481 62.5076 0L60.6518 0.00730417Z" fill="url(#paint0_linear_333_11946)"/>
<defs>
<linearGradient id="paint0_linear_333_11946" x1="0.0112247" y1="14.2142" x2="70.0109" y2="14.2142" gradientUnits="userSpaceOnUse">
<stop stop-color="#103C62"/>
<stop offset="0.66" stop-color="#057392"/>
<stop offset="1" stop-color="#008BA7"/>
</linearGradient>
</defs>
</svg>
