<svg width="390" height="492" viewBox="0 0 390 492" fill="none" xmlns="http://www.w3.org/2000/svg">
<rect width="390" height="492" fill="white"/>
<g clip-path="url(#clip0_343_75522)">
<g opacity="0.4">
<path d="M567.65 90.7705L567.21 92.5105L292.9 126.251L293.33 124.501L567.65 90.7705Z" fill="#C5CDD5"/>
<path d="M296.9 127.851L296.46 129.591L281.77 131.291L282.21 129.551L296.9 127.851Z" fill="#C5CDD5"/>
<path d="M195.03 143.06L194.6 144.8L199.35 119.03L199.78 117.28L195.03 143.06Z" fill="#C5CDD5"/>
<path d="M603.84 118.12L603.4 119.87C599.34 120.67 522.29 135.87 496.56 135.87C494.782 135.907 493.004 135.78 491.25 135.49C487.89 135.029 484.499 134.842 481.11 134.93C444.85 134.93 332.11 145.59 227.26 164.05L227.69 162.31C332.51 143.85 445.28 133.19 481.54 133.19C484.933 133.097 488.328 133.284 491.69 133.75C493.442 134.031 495.216 134.155 496.99 134.12C522.73 134.12 599.78 118.95 603.84 118.12" fill="#C6CFD6"/>
<path d="M279.4 176.38L278.97 178.13L275.8 173.6L276.24 171.86L279.4 176.38Z" fill="#C5CDD5"/>
<path d="M227.69 162.28L227.26 164.02C195.7 169.58 167.54 175.51 166.05 175.82L166.49 174.07C167.97 173.76 196.13 167.84 227.69 162.28Z" fill="#C6CFD6"/>
<path d="M276.23 171.86L275.8 173.6C267.03 175.43 206.24 186.45 198.98 187.83L199.41 186.09C206.67 184.71 267.46 173.69 276.23 171.86" fill="#C6CFD6"/>
<path d="M199.41 186.09L198.98 187.83C193.045 188.991 187.025 189.66 180.98 189.83L181.41 188.08C187.455 187.914 193.476 187.245 199.41 186.08" fill="#C6CFD6"/>
<path d="M181.44 188.07L181.01 189.82C177.33 189.47 150.56 181.19 147.21 180.82L147.64 179.08C150.99 179.39 177.76 187.67 181.44 188.02" fill="#C6CFD6"/>
<path d="M431.45 149.841L431.02 151.591C423.92 153.781 289.19 195.411 216.26 213.531L216.69 211.781C289.62 193.671 424.36 152.031 431.45 149.841Z" fill="#C6CFD6"/>
<path d="M147.64 179.131L147.21 180.871C142.75 180.871 123.77 185.981 94.2598 192.701L94.6898 190.951C124.2 184.241 143.18 179.121 147.64 179.131Z" fill="#C6CFD6"/>
<path d="M5.3802 219.031L4.9502 220.771L6.7502 191.311L7.18019 189.561L5.3802 219.031Z" fill="#C5CDD5"/>
<path d="M94.6899 190.95L94.2599 192.7C64.3999 199.49 7.91994 219.7 4.93994 220.77L5.37994 219.03C8.37994 217.96 64.8299 197.74 94.6899 190.95Z" fill="#C6CFD6"/>
<path d="M216.69 211.78L216.26 213.53C143.33 231.64 16.4398 281.87 9.75977 284.53L10.1998 282.78C16.8798 280.14 143.76 229.91 216.69 211.78" fill="#C6CFD6"/>
<path d="M1152.4 59.0004L1163.58 85.4904C1152.26 85.9204 937.08 94.1404 884.2 96.2704C831.32 98.4004 615.2 117.14 603.84 118.12C599.78 118.92 522.73 134.12 496.99 134.12C495.216 134.155 493.442 134.032 491.69 133.75C488.328 133.284 484.933 133.097 481.54 133.19C445.28 133.19 332.54 143.85 227.69 162.31C196.13 167.87 167.97 173.79 166.49 174.1L177.11 179.82C179.55 180.78 182.089 181.467 184.68 181.87C188.68 181.87 249.22 165.43 268.13 161.52C285.29 157.97 416.5 140.82 442.91 140.82C445.83 140.82 447.47 141.02 447.53 141.49C448.64 143.66 432.31 149.56 431.45 149.87C424.36 152.06 289.62 193.7 216.69 211.81C143.76 229.92 16.8799 280.16 10.1999 282.81L-59.6001 259.93C-58.6001 259.11 -39.3201 243.49 25.2999 217.53C89.9199 191.57 140.01 183.71 142.64 183.3C144.38 183.83 177.54 194 180.4 194.3C184.67 194.3 274.65 177.3 279.4 176.41L276.23 171.89C267.46 173.72 206.67 184.74 199.41 186.12C193.476 187.285 187.455 187.954 181.41 188.12C177.73 187.77 150.96 179.49 147.61 179.18C143.15 179.18 124.17 184.29 94.6599 191C64.7999 197.79 8.3199 218 5.3499 219.08L7.14992 189.61C10.2199 188.61 68.5799 170.04 104.01 162.9C139.44 155.76 192.22 143.74 195.01 143.11L199.76 117.33C203.19 116.5 268.42 100.84 311.33 94.0104C409.08 78.4504 537.01 75.1404 543.74 74.9604C546.96 74.8904 608.07 73.5304 644.35 73.5304C654.35 73.5304 662.29 73.6404 666.08 73.9204C687.66 74.0004 736.38 60.7804 905.97 57.9204C953.2 57.1304 992.74 56.8404 1025.36 56.8404C1115.16 56.8004 1150.54 58.8904 1152.4 59.0004ZM567.13 96.3204L567.64 90.7704L293.33 124.5L296.89 127.85L282.2 129.59L285.07 134.53C289.07 134.13 364.72 126.53 420.19 118.77C475.66 111.01 553.88 108.14 557.99 107.98L558.77 99.4504L567.13 96.3704" fill="#E7EAEB"/>
<path d="M10.2 282.771L9.76997 284.521L-60.04 261.631L-59.6 259.891L10.2 282.771Z" fill="#C5CDD5"/>
<path d="M278.07 163.189L275.47 168.419C275.264 167.669 275.339 166.869 275.68 166.169L278.28 160.949C277.939 161.645 277.864 162.442 278.07 163.189" fill="#091F32"/>
<path d="M356.43 166.279L353.83 171.509L356.43 166.289V166.239" fill="#092034"/>
<path d="M356.41 166.329L353.81 171.549C353.144 172.755 352.042 173.66 350.73 174.079C346.73 175.599 297.29 189.189 294.73 189.899L297.33 184.669C299.93 183.959 349.33 170.369 353.33 168.849C354.64 168.433 355.742 167.531 356.41 166.329" fill="#091F32"/>
<path d="M297.29 184.67L294.69 189.9C294.02 189.9 291.05 189.72 288.69 185.9C287.51 183.96 276.04 169.17 275.43 168.39L278.03 163.16C278.64 163.94 290.12 178.73 291.3 180.67C293.62 184.46 296.59 184.67 297.25 184.67" fill="#091F32"/>
<path d="M346.17 148.44C347.74 148.44 349.59 148.83 350.25 150.55L356.87 163.79C356.87 163.97 357.38 167.34 353.33 168.85C349.28 170.36 299.89 183.96 297.33 184.67C296.67 184.67 293.7 184.49 291.38 180.67C290.2 178.73 278.72 163.94 278.11 163.16C278.11 162.99 277.11 159.65 282.11 158.57C285.93 157.75 340.88 149.15 343.77 148.7C344.557 148.522 345.363 148.434 346.17 148.44V148.44Z" fill="#0F3557"/>
<path d="M31.1699 184.12L28.5699 189.35L25.6499 185.23L28.2599 180L31.1699 184.12Z" fill="#091E31"/>
<path d="M182.43 149.17L179.83 154.39L182.43 149.17Z" fill="#092034"/>
<path d="M182.41 149.21L179.81 154.43C179.618 154.854 179.33 155.227 178.969 155.52C178.608 155.813 178.184 156.019 177.73 156.12C174.64 156.79 52.5498 185.59 32.6398 190.33C32.0751 190.488 31.4951 190.585 30.9098 190.62C30.626 190.614 30.3454 190.56 30.0798 190.46C29.5098 190.181 28.9922 189.805 28.5498 189.35L31.1498 184.12C31.5915 184.576 32.1093 184.952 32.6798 185.23C32.9489 185.33 33.2328 185.384 33.5198 185.39C34.1024 185.36 34.6795 185.262 35.2398 185.1C55.1298 180.41 177.24 151.57 180.31 150.9C180.764 150.799 181.188 150.593 181.549 150.3C181.91 150.007 182.198 149.634 182.39 149.21" fill="#091F32"/>
<path d="M183.04 144.59C183.04 144.87 183.66 150.19 180.33 150.93C177.27 151.6 55.15 180.44 35.26 185.13C34.6997 185.292 34.1226 185.389 33.54 185.42C33.253 185.414 32.9691 185.36 32.7 185.26C32.1295 184.981 31.6117 184.606 31.17 184.15L28.25 180.03C49.88 174.72 81.4 166.73 104.09 161.66C128.76 156.1 164.54 148.72 183.04 144.59Z" fill="#0F3557"/>
<path d="M599.75 83.4805L597.14 88.7004C582.49 90.4704 304.14 124.1 303.33 124.23C297.72 125.08 209.24 137.78 204.58 138.44L207.19 133.22C211.84 132.55 300.33 119.85 305.93 119C306.75 118.88 585.1 85.2505 599.75 83.4805" fill="#091F32"/>
<path d="M207.19 133.22L204.59 138.45L202.67 122.03L205.27 116.8L207.19 133.22Z" fill="#091E31"/>
<path d="M598.38 72.3301C598.8 72.3301 602.65 72.4701 603.05 77.9001C603.45 83.3301 599.93 83.4801 599.75 83.4801C585.1 85.2501 306.75 118.88 305.93 119C300.33 119.85 211.84 132.55 207.19 133.22L205.26 116.8C209.94 115.8 298.79 96.7401 303.12 96.5701C305.28 96.4801 365.07 86.7401 430.34 81.3601C510.27 74.7801 593.98 72.4601 598.38 72.3301Z" fill="#0F3557"/>
<path d="M159.97 220.76L157.37 225.99L159.97 220.77" fill="#092034"/>
<path d="M159.96 220.78L157.36 226C156.17 228.33 153.13 230 152.97 230L155.57 224.77C155.73 224.69 158.77 223.06 159.96 220.77" fill="#091F32"/>
<path d="M155.57 224.81L152.97 230.04C152.04 230.31 134.45 235.32 111.69 243.5C88.9301 251.68 31.6901 270.95 25.4101 273.5C16.8301 276.98 12.5101 277.93 7.89011 277.93C5.89011 277.93 3.89012 277.75 1.37012 277.52L3.97009 272.3C6.45009 272.53 8.50009 272.7 10.5001 272.7C15.1201 272.7 19.4301 271.7 28.0101 268.27C34.2901 265.72 91.5401 246.44 114.29 238.27C137.04 230.1 154.65 225.07 155.57 224.8" fill="#091F32"/>
<path d="M3.97008 272.31L1.37007 277.54L-39.1699 265.07L-36.5699 259.84L3.97008 272.31Z" fill="#091E31"/>
<path d="M121.91 192.88C126.79 192.88 159.22 195.64 162.91 199.08C165.69 201.7 163.56 213.74 160 220.76C158.82 223.1 155.76 224.76 155.6 224.81C154.68 225.08 137.08 230.1 114.32 238.28C91.5599 246.46 34.3198 265.73 28.0398 268.28C19.4598 271.76 15.1499 272.71 10.5299 272.71C8.52987 272.71 6.47984 272.54 3.99984 272.31L-36.5401 259.84C-36.9701 259.7 -45.1801 256.97 -35.8101 251.59C-31.8101 249.25 16.4598 227.16 18.9998 226C63.8698 206.3 117.85 192.95 121.91 192.88Z" fill="#0F3557"/>
</g>
<path d="M603.85 3.18945L602.98 5.80945C594.86 7.22945 440.62 34.2695 413.4 38.2495C397.16 40.6195 314.4 50.5294 242.56 60.8394L243.43 58.2195C315.29 47.9095 398.03 37.9995 414.27 35.6295C441.49 31.6295 595.73 4.62945 603.85 3.18945Z" fill="#6F899F"/>
<path d="M338.05 56.8994L337.18 59.5094C337.15 59.6145 337.106 59.7153 337.05 59.8094L337.93 57.1894C337.977 57.0957 338.017 56.9988 338.05 56.8994" fill="#758DA3"/>
<path d="M337.93 57.1895L337.05 59.8094C336.301 60.8235 335.251 61.5758 334.05 61.9594C329.64 63.8594 294.39 73.1995 254.87 84.3795L255.75 81.7595C295.27 70.5795 330.51 61.2394 334.92 59.3394C336.121 58.9558 337.171 58.2035 337.92 57.1895" fill="#6F899F"/>
<path d="M243.43 58.2197L242.56 60.8397C213.64 64.9997 162.64 77.9797 160 78.6597L160.87 76.0397C163.55 75.3597 214.5 62.3797 243.43 58.2197Z" fill="#6F899F"/>
<path d="M120.14 88.2799L119.27 90.8999L120.65 86.0299L121.52 83.4199L120.14 88.2799Z" fill="#6A849C"/>
<path d="M121.52 83.4096L120.65 86.0296C119.39 86.2196 95.4301 89.7196 78.2901 89.7196C69.2901 89.7196 62.4802 88.7196 62.7702 85.5796C62.7831 85.4438 62.8099 85.3098 62.8501 85.1796L63.7301 82.5596C63.6812 82.6914 63.6509 82.8294 63.6402 82.9696C63.3502 86.0796 70.1401 87.0996 79.1601 87.0996C96.3101 87.0996 120.26 83.5996 121.52 83.4096" fill="#6F899F"/>
<path d="M246.64 84.3401L245.77 86.9601L237.66 89.2901C219.09 94.6401 200.45 100.21 184.33 105.45C154.22 115.24 106.01 127.86 67.8599 137.45L68.7299 134.83C106.89 125.27 155.09 112.65 185.2 102.83C201.32 97.5901 219.96 92.0101 238.53 86.6701L246.64 84.3301" fill="#6F899F"/>
<path d="M68.7702 134.81L67.9002 137.42L35.6802 138.54L36.5502 135.92L68.7702 134.81Z" fill="#6A849C"/>
<path d="M288.07 186.369L287.2 188.979C286.251 189.208 285.275 189.305 284.3 189.269C261.02 189.269 138.88 158.339 86.6201 153.449C72.2901 152.109 56.8801 151.719 43.8701 151.719L44.7401 149.109C57.7401 149.109 73.1701 149.489 87.4901 150.829C139.75 155.719 261.89 186.649 285.17 186.649C286.145 186.683 287.12 186.589 288.07 186.369" fill="#6F899F"/>
<path d="M255.79 81.7598L254.91 84.3798C168.37 94.5198 5.72014 138.47 -1.60986 140.51L-0.739868 137.9C6.59013 135.9 169.26 91.8998 255.79 81.7598Z" fill="#6F899F"/>
<path d="M44.7401 149.109L43.8701 151.719C26.1301 151.719 13.5101 152.399 12.8701 152.439L13.7401 149.819C14.4101 149.819 27.0301 149.109 44.7401 149.109" fill="#6F899F"/>
<path d="M1015.38 -34.5704C1016.05 -34.5104 1028.7 -33.4404 1028.26 -28.8004C1027.57 -21.2904 1004.13 -21.3504 1002.9 -21.3604C992.99 -20.9204 804.63 -12.5704 718.69 -4.97035C632.75 2.62965 605.3 3.15965 603.85 3.18965C595.73 4.58965 441.49 31.6496 414.27 35.5896C398.03 37.9596 315.27 47.8696 243.43 58.1796C214.5 62.3396 163.55 75.3196 160.87 75.9996L160.6 78.9996C162.43 78.7796 197.24 74.5996 240.24 66.8896C283.24 59.1796 331.15 53.7896 333.64 53.4996C338.52 54.5596 340.03 57.1396 334.93 59.3396C330.52 61.2396 295.28 70.5797 255.76 81.7597C169.21 91.8997 6.55993 135.86 -0.770071 137.9C8.07993 138.03 160.6 94.4496 246.64 84.3396L238.53 86.6796C219.96 92.0196 201.32 97.5996 185.2 102.84C155.09 112.62 106.89 125.24 68.7299 134.84L36.5199 135.96C45.6599 136.27 79.8699 136.96 88.6799 137.75C140.9 142.59 252.04 172.59 274.42 172.59C275.395 172.624 276.371 172.526 277.32 172.3L288.07 186.3C287.12 186.519 286.145 186.613 285.17 186.58C261.89 186.58 139.75 155.65 87.4899 150.76C73.1699 149.42 57.7599 149.04 44.7399 149.04C26.9999 149.04 14.3799 149.72 13.7399 149.75C10.4205 150.132 7.08124 150.315 3.73994 150.3C-2.80006 150.3 -11.1601 149.57 -16.7901 146.44C-33.4201 137.15 -11.0801 130.62 -9.91007 130.28C-7.03007 129.44 47.6499 113.54 73.5699 96.5697L120.15 88.2096L121.53 83.3396C120.27 83.5296 96.3199 87.0296 79.1699 87.0296C70.1699 87.0296 63.3599 86.0296 63.6499 82.8996C64.4899 73.8396 145.88 49.6897 216.3 35.6897C286.72 21.6897 534.3 -0.0203546 547.3 -1.16035C549.3 -1.22035 586.85 -2.43034 635.3 -17.4003C674.73 -29.5903 784.97 -32.0804 854.3 -34.7204C877.02 -35.5704 902.13 -35.8604 925.63 -35.8604C940.12 -35.8604 954 -35.7504 966.32 -35.6004C995.07 -35.1704 1014.36 -34.6004 1015.38 -34.5704ZM966.23 -30.7704L965.37 -32.8804C963.27 -32.8804 848.91 -30.6104 769.02 -25.1304C688.87 -19.6404 630.21 -13.1303 629.65 -13.0603L635.38 -11.7204C635.94 -11.7704 689.11 -17.0604 769.23 -22.5404C848.93 -28.0004 963.97 -30.7704 966.23 -30.7704" fill="#D2D8DD"/>
<path d="M13.7101 149.82L12.8401 152.44C9.52064 152.822 6.18138 153.005 2.84007 152.99C-3.69993 152.99 -12.0599 152.26 -17.6899 149.12L-16.8199 146.51C-11.1899 149.64 -2.81993 150.37 3.71007 150.37C7.05137 150.385 10.3906 150.202 13.7101 149.82" fill="#6F899F"/>
<path d="M285.17 180.7L282.57 185.93L285.17 180.7Z" fill="#0E304E"/>
<path d="M43.5402 123.729L40.9402 128.96L-2.25977 140.649L0.340233 135.429L43.5402 123.729Z" fill="#0E2F4E"/>
<path d="M285.15 180.68L282.55 185.91C278.72 185.91 234.67 177.39 199.7 170.2C156.83 161.37 111.83 153.4 86.04 151C71.66 149.66 56.12 149.27 43.04 149.27C25.46 149.27 12.23 149.96 12.04 149.98L14.64 144.75C14.88 144.75 28.11 144.04 45.64 144.04C58.76 144.04 74.31 144.43 88.69 145.77C114.48 148.17 159.48 156.15 202.34 164.97C237.34 172.17 281.34 180.68 285.19 180.68" fill="#0E304E"/>
<path d="M0.340027 135.42L-2.25998 140.65C-3.33355 141.163 -4.26687 141.928 -4.97998 142.88L-2.36998 137.65C-1.65997 136.699 -0.730125 135.934 0.340027 135.42" fill="#0E304E"/>
<path d="M14.5502 144.749L11.9502 149.979C8.68246 150.338 5.39758 150.518 2.1102 150.519C0.000200987 150.519 -2.31979 150.439 -4.64979 150.219C-9.92979 149.729 -14.0998 148.649 -17.0598 147.019C-20.0198 145.389 -21.7898 143.639 -21.6598 142.459C-21.6253 142.226 -21.5544 142 -21.4498 141.789L-18.8498 136.569C-18.9542 136.777 -19.0251 137 -19.0598 137.229C-19.1798 138.409 -17.4698 140.119 -14.4598 141.789C-11.4498 143.459 -7.32979 144.499 -2.03979 144.989C0.290207 145.209 2.60019 145.289 4.72019 145.289C8.0044 145.294 11.2863 145.114 14.5502 144.749Z" fill="#0E304E"/>
<path d="M277.57 170.99C277.97 170.99 284.8 180.21 285.15 180.68C281.32 180.68 237.28 172.17 202.3 164.97C159.44 156.15 114.44 148.17 88.6501 145.77C74.2701 144.43 58.7201 144.04 45.6001 144.04C28.0201 144.04 14.7901 144.74 14.6001 144.75C11.3362 145.114 8.05435 145.295 4.77014 145.29C2.65014 145.29 0.340132 145.21 -1.98987 144.99C-7.27987 144.5 -11.4499 143.43 -14.4099 141.79C-17.3699 140.15 -19.1299 138.41 -19.0099 137.23C-18.7499 134.8 -12.5099 131.71 -8.11986 130.42C-7.89986 130.36 14.0101 123.97 36.6301 115.22L43.6301 123.73L0.430145 135.42C0.0801453 135.6 -6.46985 138.98 1.43015 140.49C3.48276 140.217 5.54973 140.067 7.62015 140.04L37.7601 136.04C40.2301 136.12 44.3601 136.23 49.2601 136.35C62.7401 136.69 83.1101 137.21 89.4801 137.8C115.88 140.26 161.71 148.93 202.14 156.58C235.98 163.04 262 169.59 277.57 170.99Z" fill="#10395D"/>
<path d="M161.95 75.6602L161.08 78.2701L120.75 85.8602L121.62 83.2402L161.95 75.6602Z" fill="#6A849C"/>
<path d="M121.62 83.2398L120.75 85.8598L120.56 84.8798L121.43 82.2598L121.62 83.2398Z" fill="#6A849C"/>
<path d="M161.76 74.6797L161.95 75.6597L121.62 83.2397L121.43 82.2597L161.76 74.6797Z" fill="#D2D8DD"/>
<path d="M317.97 42.9902L315.37 48.2202C293.02 51.1302 270.97 54.5502 247.71 57.8302L250.31 52.6102C273.57 49.3202 295.62 45.9002 317.97 42.9902Z" fill="#007087"/>
<path d="M250.31 52.59L247.71 57.81C247.362 57.3044 246.955 56.8413 246.5 56.43C242.29 52.74 238.5 50.91 234.27 50.52C233.62 50.46 232.98 50.43 232.34 50.43C229.607 50.5133 226.885 50.8143 224.2 51.33C222.85 51.55 221.4 51.78 219.84 51.99C210.84 53.22 187.94 56.56 169.84 61.13C166.21 62.06 162.79 62.86 159.49 63.64C142.4 67.64 127.62 71.16 102.26 85.99L104.86 80.76C130.22 65.93 145 62.44 162.09 58.41C165.39 57.63 168.81 56.83 172.45 55.91C190.52 51.33 213.45 47.99 222.45 46.77C224.01 46.55 225.45 46.32 226.82 46.11C229.501 45.5938 232.22 45.2928 234.95 45.21C235.6 45.21 236.24 45.21 236.88 45.29C241.14 45.69 244.88 47.51 249.12 51.21C249.577 51.6169 249.98 52.0806 250.32 52.59" fill="#007087"/>
<path d="M104.88 80.7803L102.28 86.0103C94.17 86.8903 83.95 87.7603 75.69 87.7603C73.15 87.7603 70.79 87.6803 68.74 87.4903C65.15 87.1503 63.63 86.5803 63.02 86.2603L65.62 81.0303C66.23 81.3603 67.75 81.9303 71.34 82.2603C73.39 82.4503 75.75 82.5303 78.34 82.5303C86.59 82.5303 96.81 81.6603 104.92 80.7803" fill="#007087"/>
<path d="M215.57 36.5204C237.83 32.1104 277.42 26.5704 323.9 21.3604L317.97 42.9904C295.62 45.9004 273.57 49.3204 250.31 52.6104C249.97 52.101 249.567 51.6373 249.11 51.2304C244.9 47.5304 241.11 45.7104 236.87 45.3104C236.23 45.2504 235.59 45.2304 234.94 45.2304C232.21 45.3132 229.492 45.6142 226.81 46.1304C225.45 46.3404 224 46.5704 222.44 46.7904C213.44 48.0104 190.54 51.3504 172.44 55.9304C168.8 56.8504 165.38 57.6504 162.08 58.4304C144.99 62.4304 130.21 65.9504 104.85 80.7804C96.7398 81.6604 86.5198 82.5304 78.2698 82.5304C75.7198 82.5304 73.3598 82.4504 71.2698 82.2604C67.6798 81.9304 66.1598 81.3604 65.5498 81.0304C67.5498 78.5304 79.9098 71.9604 115.47 61.2404C145.12 52.3304 182.52 43.0804 215.57 36.5204Z" fill="#0085A0"/>
<path d="M560.73 6.03027L558.13 11.2503C508.84 19.8203 428.52 33.7003 410.23 36.3703C404.79 37.1603 391.95 38.7903 374.23 41.0403C358.57 43.0403 339.08 45.5003 318 48.2503L320.6 43.0203C341.68 40.2703 361.17 37.8003 376.83 35.8203C394.6 33.5603 407.43 31.9303 412.83 31.1403C431.13 28.4803 511.45 14.5903 560.73 6.03027Z" fill="#007087"/>
<path d="M320.56 43.0196L317.96 48.2496L323.93 26.6197L326.53 21.3896L320.56 43.0196Z" fill="#006F86"/>
<path d="M551.08 -0.580078C553.25 0.659922 555.51 2.09995 557.8 3.72995C558.823 4.4358 559.802 5.20391 560.73 6.02994C511.45 14.5899 431.13 28.4799 412.83 31.1399C407.39 31.9299 394.56 33.5599 376.83 35.8199C361.17 37.8199 341.68 40.2699 320.6 43.0199L326.6 21.3899C424.06 10.4499 542.47 0.0299207 546.22 -0.300079C546.53 -0.310079 548.23 -0.410078 551.08 -0.580078Z" fill="#0085A0"/>
<path d="M250.05 76.9902L247.44 82.2202C231.85 85.0502 166.64 97.0103 128.64 106.51L46.2305 127.11L48.8305 121.88L131.24 101.29C169.24 91.7903 234.42 79.8202 250.02 76.9902" fill="#007087"/>
<path d="M48.8703 121.88L46.2603 127.11L39.5303 119.48L42.1303 114.26L48.8703 121.88Z" fill="#006F86"/>
<path d="M243.64 68.8701C243.845 69.337 244.141 69.7585 244.51 70.1101C246.59 72.1951 248.434 74.5023 250.01 76.9901C234.41 79.8201 169.2 91.7901 131.23 101.29L48.8201 121.88L42.0801 114.25C42.8401 113.92 57.1901 107.48 62.6101 105.18L80.3801 96.5901L243.64 68.8701Z" fill="#0085A0"/>
<path d="M324.09 57.8701L321.49 63.1001L324.09 57.8801" fill="#004B5A"/>
<path d="M324.08 57.9004L321.48 63.1204C321.136 63.5638 320.68 63.9087 320.16 64.1204C315.87 66.2904 276.02 75.7004 258.95 79.6804L261.55 74.4504C278.62 70.4504 318.47 61.0604 322.76 58.9004C323.278 58.6843 323.732 58.3402 324.08 57.9004Z" fill="#004857"/>
<path d="M261.55 74.4201L258.95 79.6501C257.35 76.9901 255.77 74.3201 253.95 71.8101L256.55 66.5801C258.37 69.1001 259.94 71.7601 261.55 74.4201Z" fill="#004857"/>
<path d="M317.64 56.5898C320.96 56.5898 326.88 56.8598 322.8 58.9198C318.51 61.0798 278.66 70.4998 261.59 74.4698C259.99 71.8098 258.42 69.1499 256.59 66.6299L315.59 56.6299C315.59 56.6299 316.44 56.5898 317.64 56.5898Z" fill="#007D96"/>
<path d="M244 57.1797L243.13 59.7997L242.4 60.4797L243.27 57.8597L244 57.1797Z" fill="#6A859C"/>
<path d="M243.27 57.8604L242.4 60.4804L236.38 53.9704L237.26 51.3604L243.27 57.8604Z" fill="#6A849C"/>
<path d="M237.25 51.3498L236.38 53.9698C233.51 54.3698 207.68 58.0398 189.1 61.6898C169.5 65.5298 139.26 73.6898 138.95 73.6898L139.82 71.0798C140.13 70.9998 170.38 62.8598 189.97 59.0198C208.55 55.3798 234.38 51.7098 237.25 51.2998" fill="#6F899F"/>
<path d="M139.83 71.1299L138.96 73.7499L108.5 87.2399L109.37 84.6199L139.83 71.1299Z" fill="#6A849C"/>
<path d="M109.37 84.6202L108.5 87.2402L108.09 86.3202L108.97 83.7002L109.37 84.6202Z" fill="#6A849C"/>
<path d="M237.37 50.3301L244 57.1801L243.27 57.8601L237.27 51.3501C234.4 51.7601 208.57 55.4301 189.99 59.0701C170.4 62.9101 140.15 71.0701 139.84 71.1301L109.37 84.5901L108.96 83.6701L139.49 70.1601C139.87 70.0501 170.15 61.9101 189.78 58.0601C209.41 54.2101 237.09 50.3701 237.37 50.3301Z" fill="#D2D8DD"/>
</g>
<path d="M166 105L166 307" stroke="#253F8E" stroke-width="2"/>
<path d="M181.66 239.437V242.277H186.24V244.917H181.66V247.997H186.84V250.737H178.24V236.697H186.84V239.437H181.66ZM193.6 250.897C192.627 250.897 191.76 250.731 191 250.397C190.24 250.064 189.64 249.611 189.2 249.037C188.76 248.451 188.514 247.797 188.46 247.077H191.84C191.88 247.464 192.06 247.777 192.38 248.017C192.7 248.257 193.094 248.377 193.56 248.377C193.987 248.377 194.314 248.297 194.54 248.137C194.78 247.964 194.9 247.744 194.9 247.477C194.9 247.157 194.734 246.924 194.4 246.777C194.067 246.617 193.527 246.444 192.78 246.257C191.98 246.071 191.314 245.877 190.78 245.677C190.247 245.464 189.787 245.137 189.4 244.697C189.014 244.244 188.82 243.637 188.82 242.877C188.82 242.237 188.994 241.657 189.34 241.137C189.7 240.604 190.22 240.184 190.9 239.877C191.594 239.571 192.414 239.417 193.36 239.417C194.76 239.417 195.86 239.764 196.66 240.457C197.474 241.151 197.94 242.071 198.06 243.217H194.9C194.847 242.831 194.674 242.524 194.38 242.297C194.1 242.071 193.727 241.957 193.26 241.957C192.86 241.957 192.554 242.037 192.34 242.197C192.127 242.344 192.02 242.551 192.02 242.817C192.02 243.137 192.187 243.377 192.52 243.537C192.867 243.697 193.4 243.857 194.12 244.017C194.947 244.231 195.62 244.444 196.14 244.657C196.66 244.857 197.114 245.191 197.5 245.657C197.9 246.111 198.107 246.724 198.12 247.497C198.12 248.151 197.934 248.737 197.56 249.257C197.2 249.764 196.674 250.164 195.98 250.457C195.3 250.751 194.507 250.897 193.6 250.897ZM203.633 241.157C203.966 240.637 204.426 240.217 205.013 239.897C205.599 239.577 206.286 239.417 207.073 239.417C207.993 239.417 208.826 239.651 209.573 240.117C210.319 240.584 210.906 241.251 211.333 242.117C211.773 242.984 211.993 243.991 211.993 245.137C211.993 246.284 211.773 247.297 211.333 248.177C210.906 249.044 210.319 249.717 209.573 250.197C208.826 250.664 207.993 250.897 207.073 250.897C206.299 250.897 205.613 250.737 205.013 250.417C204.426 250.097 203.966 249.684 203.633 249.177V256.057H200.213V239.577H203.633V241.157ZM208.513 245.137C208.513 244.284 208.273 243.617 207.793 243.137C207.326 242.644 206.746 242.397 206.053 242.397C205.373 242.397 204.793 242.644 204.313 243.137C203.846 243.631 203.613 244.304 203.613 245.157C203.613 246.011 203.846 246.684 204.313 247.177C204.793 247.671 205.373 247.917 206.053 247.917C206.733 247.917 207.313 247.671 207.793 247.177C208.273 246.671 208.513 245.991 208.513 245.137ZM213.107 245.137C213.107 243.991 213.32 242.984 213.747 242.117C214.187 241.251 214.78 240.584 215.527 240.117C216.274 239.651 217.107 239.417 218.027 239.417C218.814 239.417 219.5 239.577 220.087 239.897C220.687 240.217 221.147 240.637 221.467 241.157V239.577H224.887V250.737H221.467V249.157C221.134 249.677 220.667 250.097 220.067 250.417C219.48 250.737 218.794 250.897 218.007 250.897C217.1 250.897 216.274 250.664 215.527 250.197C214.78 249.717 214.187 249.044 213.747 248.177C213.32 247.297 213.107 246.284 213.107 245.137ZM221.467 245.157C221.467 244.304 221.227 243.631 220.747 243.137C220.28 242.644 219.707 242.397 219.027 242.397C218.347 242.397 217.767 242.644 217.287 243.137C216.82 243.617 216.587 244.284 216.587 245.137C216.587 245.991 216.82 246.671 217.287 247.177C217.767 247.671 218.347 247.917 219.027 247.917C219.707 247.917 220.28 247.671 220.747 247.177C221.227 246.684 221.467 246.011 221.467 245.157ZM226.681 245.157C226.681 243.997 226.914 242.984 227.381 242.117C227.861 241.251 228.521 240.584 229.361 240.117C230.214 239.651 231.188 239.417 232.281 239.417C233.681 239.417 234.848 239.784 235.781 240.517C236.728 241.251 237.348 242.284 237.641 243.617H234.001C233.694 242.764 233.101 242.337 232.221 242.337C231.594 242.337 231.094 242.584 230.721 243.077C230.348 243.557 230.161 244.251 230.161 245.157C230.161 246.064 230.348 246.764 230.721 247.257C231.094 247.737 231.594 247.977 232.221 247.977C233.101 247.977 233.694 247.551 234.001 246.697H237.641C237.348 248.004 236.728 249.031 235.781 249.777C234.834 250.524 233.668 250.897 232.281 250.897C231.188 250.897 230.214 250.664 229.361 250.197C228.521 249.731 227.861 249.064 227.381 248.197C226.914 247.331 226.681 246.317 226.681 245.157ZM241.19 238.417C240.59 238.417 240.097 238.244 239.71 237.897C239.337 237.537 239.15 237.097 239.15 236.577C239.15 236.044 239.337 235.604 239.71 235.257C240.097 234.897 240.59 234.717 241.19 234.717C241.777 234.717 242.257 234.897 242.63 235.257C243.017 235.604 243.21 236.044 243.21 236.577C243.21 237.097 243.017 237.537 242.63 237.897C242.257 238.244 241.777 238.417 241.19 238.417ZM242.89 239.577V250.737H239.47V239.577H242.89ZM250.449 250.897C249.356 250.897 248.369 250.664 247.489 250.197C246.622 249.731 245.936 249.064 245.429 248.197C244.936 247.331 244.689 246.317 244.689 245.157C244.689 244.011 244.942 243.004 245.449 242.137C245.956 241.257 246.649 240.584 247.529 240.117C248.409 239.651 249.396 239.417 250.489 239.417C251.582 239.417 252.569 239.651 253.449 240.117C254.329 240.584 255.022 241.257 255.529 242.137C256.036 243.004 256.289 244.011 256.289 245.157C256.289 246.304 256.029 247.317 255.509 248.197C255.002 249.064 254.302 249.731 253.409 250.197C252.529 250.664 251.542 250.897 250.449 250.897ZM250.449 247.937C251.102 247.937 251.656 247.697 252.109 247.217C252.576 246.737 252.809 246.051 252.809 245.157C252.809 244.264 252.582 243.577 252.129 243.097C251.689 242.617 251.142 242.377 250.489 242.377C249.822 242.377 249.269 242.617 248.829 243.097C248.389 243.564 248.169 244.251 248.169 245.157C248.169 246.051 248.382 246.737 248.809 247.217C249.249 247.697 249.796 247.937 250.449 247.937ZM261.662 245.137C261.662 243.991 261.875 242.984 262.302 242.117C262.742 241.251 263.335 240.584 264.082 240.117C264.828 239.651 265.662 239.417 266.582 239.417C267.315 239.417 267.982 239.571 268.582 239.877C269.195 240.184 269.675 240.597 270.022 241.117V235.937H273.442V250.737H270.022V249.137C269.702 249.671 269.242 250.097 268.642 250.417C268.055 250.737 267.368 250.897 266.582 250.897C265.662 250.897 264.828 250.664 264.082 250.197C263.335 249.717 262.742 249.044 262.302 248.177C261.875 247.297 261.662 246.284 261.662 245.137ZM270.022 245.157C270.022 244.304 269.782 243.631 269.302 243.137C268.835 242.644 268.262 242.397 267.582 242.397C266.902 242.397 266.322 242.644 265.842 243.137C265.375 243.617 265.142 244.284 265.142 245.137C265.142 245.991 265.375 246.671 265.842 247.177C266.322 247.671 266.902 247.917 267.582 247.917C268.262 247.917 268.835 247.671 269.302 247.177C269.782 246.684 270.022 246.011 270.022 245.157ZM286.436 244.977C286.436 245.297 286.416 245.631 286.376 245.977H278.636C278.689 246.671 278.909 247.204 279.296 247.577C279.696 247.937 280.182 248.117 280.756 248.117C281.609 248.117 282.202 247.757 282.536 247.037H286.176C285.989 247.771 285.649 248.431 285.156 249.017C284.676 249.604 284.069 250.064 283.336 250.397C282.602 250.731 281.782 250.897 280.876 250.897C279.782 250.897 278.809 250.664 277.956 250.197C277.102 249.731 276.436 249.064 275.956 248.197C275.476 247.331 275.236 246.317 275.236 245.157C275.236 243.997 275.469 242.984 275.936 242.117C276.416 241.251 277.082 240.584 277.936 240.117C278.789 239.651 279.769 239.417 280.876 239.417C281.956 239.417 282.916 239.644 283.756 240.097C284.596 240.551 285.249 241.197 285.716 242.037C286.196 242.877 286.436 243.857 286.436 244.977ZM282.936 244.077C282.936 243.491 282.736 243.024 282.336 242.677C281.936 242.331 281.436 242.157 280.836 242.157C280.262 242.157 279.776 242.324 279.376 242.657C278.989 242.991 278.749 243.464 278.656 244.077H282.936ZM179.94 262.417C179.34 262.417 178.847 262.244 178.46 261.897C178.087 261.537 177.9 261.097 177.9 260.577C177.9 260.044 178.087 259.604 178.46 259.257C178.847 258.897 179.34 258.717 179.94 258.717C180.527 258.717 181.007 258.897 181.38 259.257C181.767 259.604 181.96 260.044 181.96 260.577C181.96 261.097 181.767 261.537 181.38 261.897C181.007 262.244 180.527 262.417 179.94 262.417ZM181.66 276.177C181.66 277.551 181.313 278.537 180.62 279.137C179.927 279.751 178.96 280.057 177.72 280.057H176.38V277.157H177.2C177.573 277.157 177.84 277.084 178 276.937C178.16 276.791 178.24 276.551 178.24 276.217V263.577H181.66V276.177ZM195.139 263.577V274.737H191.719V273.217C191.372 273.711 190.899 274.111 190.299 274.417C189.712 274.711 189.059 274.857 188.339 274.857C187.486 274.857 186.732 274.671 186.079 274.297C185.426 273.911 184.919 273.357 184.559 272.637C184.199 271.917 184.019 271.071 184.019 270.097V263.577H187.419V269.637C187.419 270.384 187.612 270.964 187.999 271.377C188.386 271.791 188.906 271.997 189.559 271.997C190.226 271.997 190.752 271.791 191.139 271.377C191.526 270.964 191.719 270.384 191.719 269.637V263.577H195.139ZM208.115 268.977C208.115 269.297 208.095 269.631 208.055 269.977H200.315C200.369 270.671 200.589 271.204 200.975 271.577C201.375 271.937 201.862 272.117 202.435 272.117C203.289 272.117 203.882 271.757 204.215 271.037H207.855C207.669 271.771 207.329 272.431 206.835 273.017C206.355 273.604 205.749 274.064 205.015 274.397C204.282 274.731 203.462 274.897 202.555 274.897C201.462 274.897 200.489 274.664 199.635 274.197C198.782 273.731 198.115 273.064 197.635 272.197C197.155 271.331 196.915 270.317 196.915 269.157C196.915 267.997 197.149 266.984 197.615 266.117C198.095 265.251 198.762 264.584 199.615 264.117C200.469 263.651 201.449 263.417 202.555 263.417C203.635 263.417 204.595 263.644 205.435 264.097C206.275 264.551 206.929 265.197 207.395 266.037C207.875 266.877 208.115 267.857 208.115 268.977ZM204.615 268.077C204.615 267.491 204.415 267.024 204.015 266.677C203.615 266.331 203.115 266.157 202.515 266.157C201.942 266.157 201.455 266.324 201.055 266.657C200.669 266.991 200.429 267.464 200.335 268.077H204.615ZM214.16 263.417C214.946 263.417 215.633 263.577 216.22 263.897C216.82 264.217 217.28 264.637 217.6 265.157V263.577H221.02V274.717C221.02 275.744 220.813 276.671 220.4 277.497C220 278.337 219.38 279.004 218.54 279.497C217.713 279.991 216.68 280.237 215.44 280.237C213.786 280.237 212.446 279.844 211.42 279.057C210.393 278.284 209.806 277.231 209.66 275.897H213.04C213.146 276.324 213.4 276.657 213.8 276.897C214.2 277.151 214.693 277.277 215.28 277.277C215.986 277.277 216.546 277.071 216.96 276.657C217.386 276.257 217.6 275.611 217.6 274.717V273.137C217.266 273.657 216.806 274.084 216.22 274.417C215.633 274.737 214.946 274.897 214.16 274.897C213.24 274.897 212.406 274.664 211.66 274.197C210.913 273.717 210.32 273.044 209.88 272.177C209.453 271.297 209.24 270.284 209.24 269.137C209.24 267.991 209.453 266.984 209.88 266.117C210.32 265.251 210.913 264.584 211.66 264.117C212.406 263.651 213.24 263.417 214.16 263.417ZM217.6 269.157C217.6 268.304 217.36 267.631 216.88 267.137C216.413 266.644 215.84 266.397 215.16 266.397C214.48 266.397 213.9 266.644 213.42 267.137C212.953 267.617 212.72 268.284 212.72 269.137C212.72 269.991 212.953 270.671 213.42 271.177C213.9 271.671 214.48 271.917 215.16 271.917C215.84 271.917 216.413 271.671 216.88 271.177C217.36 270.684 217.6 270.011 217.6 269.157ZM228.574 274.897C227.481 274.897 226.494 274.664 225.614 274.197C224.747 273.731 224.061 273.064 223.554 272.197C223.061 271.331 222.814 270.317 222.814 269.157C222.814 268.011 223.067 267.004 223.574 266.137C224.081 265.257 224.774 264.584 225.654 264.117C226.534 263.651 227.521 263.417 228.614 263.417C229.707 263.417 230.694 263.651 231.574 264.117C232.454 264.584 233.147 265.257 233.654 266.137C234.161 267.004 234.414 268.011 234.414 269.157C234.414 270.304 234.154 271.317 233.634 272.197C233.127 273.064 232.427 273.731 231.534 274.197C230.654 274.664 229.667 274.897 228.574 274.897ZM228.574 271.937C229.227 271.937 229.781 271.697 230.234 271.217C230.701 270.737 230.934 270.051 230.934 269.157C230.934 268.264 230.707 267.577 230.254 267.097C229.814 266.617 229.267 266.377 228.614 266.377C227.947 266.377 227.394 266.617 226.954 267.097C226.514 267.564 226.294 268.251 226.294 269.157C226.294 270.051 226.507 270.737 226.934 271.217C227.374 271.697 227.921 271.937 228.574 271.937ZM240.768 274.897C239.795 274.897 238.928 274.731 238.168 274.397C237.408 274.064 236.808 273.611 236.368 273.037C235.928 272.451 235.682 271.797 235.628 271.077H239.008C239.048 271.464 239.228 271.777 239.548 272.017C239.868 272.257 240.262 272.377 240.728 272.377C241.155 272.377 241.482 272.297 241.708 272.137C241.948 271.964 242.068 271.744 242.068 271.477C242.068 271.157 241.902 270.924 241.568 270.777C241.235 270.617 240.695 270.444 239.948 270.257C239.148 270.071 238.482 269.877 237.948 269.677C237.415 269.464 236.955 269.137 236.568 268.697C236.182 268.244 235.988 267.637 235.988 266.877C235.988 266.237 236.162 265.657 236.508 265.137C236.868 264.604 237.388 264.184 238.068 263.877C238.762 263.571 239.582 263.417 240.528 263.417C241.928 263.417 243.028 263.764 243.828 264.457C244.642 265.151 245.108 266.071 245.228 267.217H242.068C242.015 266.831 241.842 266.524 241.548 266.297C241.268 266.071 240.895 265.957 240.428 265.957C240.028 265.957 239.722 266.037 239.508 266.197C239.295 266.344 239.188 266.551 239.188 266.817C239.188 267.137 239.355 267.377 239.688 267.537C240.035 267.697 240.568 267.857 241.288 268.017C242.115 268.231 242.788 268.444 243.308 268.657C243.828 268.857 244.282 269.191 244.668 269.657C245.068 270.111 245.275 270.724 245.288 271.497C245.288 272.151 245.102 272.737 244.728 273.257C244.368 273.764 243.842 274.164 243.148 274.457C242.468 274.751 241.675 274.897 240.768 274.897Z" fill="#253F8E"/>
<path d="M186.954 294.371H179.934L178.422 297.737H177.036L182.796 285.137H184.11L189.87 297.737H188.466L186.954 294.371ZM186.468 293.291L183.444 286.523L180.42 293.291H186.468ZM195.52 297.827C194.584 297.827 193.744 297.623 193 297.215C192.268 296.807 191.692 296.237 191.272 295.505C190.852 294.761 190.642 293.927 190.642 293.003C190.642 292.079 190.852 291.251 191.272 290.519C191.692 289.787 192.268 289.217 193 288.809C193.744 288.401 194.584 288.197 195.52 288.197C196.336 288.197 197.062 288.359 197.698 288.683C198.346 288.995 198.856 289.457 199.228 290.069L198.274 290.717C197.962 290.249 197.566 289.901 197.086 289.673C196.606 289.433 196.084 289.313 195.52 289.313C194.836 289.313 194.218 289.469 193.666 289.781C193.126 290.081 192.7 290.513 192.388 291.077C192.088 291.641 191.938 292.283 191.938 293.003C191.938 293.735 192.088 294.383 192.388 294.947C192.7 295.499 193.126 295.931 193.666 296.243C194.218 296.543 194.836 296.693 195.52 296.693C196.084 296.693 196.606 296.579 197.086 296.351C197.566 296.123 197.962 295.775 198.274 295.307L199.228 295.955C198.856 296.567 198.346 297.035 197.698 297.359C197.05 297.671 196.324 297.827 195.52 297.827ZM205.505 297.827C204.569 297.827 203.729 297.623 202.985 297.215C202.253 296.807 201.677 296.237 201.257 295.505C200.837 294.761 200.627 293.927 200.627 293.003C200.627 292.079 200.837 291.251 201.257 290.519C201.677 289.787 202.253 289.217 202.985 288.809C203.729 288.401 204.569 288.197 205.505 288.197C206.321 288.197 207.047 288.359 207.683 288.683C208.331 288.995 208.841 289.457 209.213 290.069L208.259 290.717C207.947 290.249 207.551 289.901 207.071 289.673C206.591 289.433 206.069 289.313 205.505 289.313C204.821 289.313 204.203 289.469 203.651 289.781C203.111 290.081 202.685 290.513 202.373 291.077C202.073 291.641 201.923 292.283 201.923 293.003C201.923 293.735 202.073 294.383 202.373 294.947C202.685 295.499 203.111 295.931 203.651 296.243C204.203 296.543 204.821 296.693 205.505 296.693C206.069 296.693 206.591 296.579 207.071 296.351C207.551 296.123 207.947 295.775 208.259 295.307L209.213 295.955C208.841 296.567 208.331 297.035 207.683 297.359C207.035 297.671 206.309 297.827 205.505 297.827ZM219.809 293.399H211.889C211.961 294.383 212.339 295.181 213.023 295.793C213.707 296.393 214.571 296.693 215.615 296.693C216.203 296.693 216.743 296.591 217.235 296.387C217.727 296.171 218.153 295.859 218.513 295.451L219.233 296.279C218.813 296.783 218.285 297.167 217.649 297.431C217.025 297.695 216.335 297.827 215.579 297.827C214.607 297.827 213.743 297.623 212.987 297.215C212.243 296.795 211.661 296.219 211.241 295.487C210.821 294.755 210.611 293.927 210.611 293.003C210.611 292.079 210.809 291.251 211.205 290.519C211.613 289.787 212.165 289.217 212.861 288.809C213.569 288.401 214.361 288.197 215.237 288.197C216.113 288.197 216.899 288.401 217.595 288.809C218.291 289.217 218.837 289.787 219.233 290.519C219.629 291.239 219.827 292.067 219.827 293.003L219.809 293.399ZM215.237 289.295C214.325 289.295 213.557 289.589 212.933 290.177C212.321 290.753 211.973 291.509 211.889 292.445H218.603C218.519 291.509 218.165 290.753 217.541 290.177C216.929 289.589 216.161 289.295 215.237 289.295ZM231.068 284.381V297.737H229.844V295.865C229.46 296.501 228.95 296.987 228.314 297.323C227.69 297.659 226.982 297.827 226.19 297.827C225.302 297.827 224.498 297.623 223.778 297.215C223.058 296.807 222.494 296.237 222.086 295.505C221.678 294.773 221.474 293.939 221.474 293.003C221.474 292.067 221.678 291.233 222.086 290.501C222.494 289.769 223.058 289.205 223.778 288.809C224.498 288.401 225.302 288.197 226.19 288.197C226.958 288.197 227.648 288.359 228.26 288.683C228.884 288.995 229.394 289.457 229.79 290.069V284.381H231.068ZM226.298 296.693C226.958 296.693 227.552 296.543 228.08 296.243C228.62 295.931 229.04 295.493 229.34 294.929C229.652 294.365 229.808 293.723 229.808 293.003C229.808 292.283 229.652 291.641 229.34 291.077C229.04 290.513 228.62 290.081 228.08 289.781C227.552 289.469 226.958 289.313 226.298 289.313C225.626 289.313 225.02 289.469 224.48 289.781C223.952 290.081 223.532 290.513 223.22 291.077C222.92 291.641 222.77 292.283 222.77 293.003C222.77 293.723 222.92 294.365 223.22 294.929C223.532 295.493 223.952 295.931 224.48 296.243C225.02 296.543 225.626 296.693 226.298 296.693ZM242.872 293.399H234.952C235.024 294.383 235.402 295.181 236.086 295.793C236.77 296.393 237.634 296.693 238.678 296.693C239.266 296.693 239.806 296.591 240.298 296.387C240.79 296.171 241.216 295.859 241.576 295.451L242.296 296.279C241.876 296.783 241.348 297.167 240.712 297.431C240.088 297.695 239.398 297.827 238.642 297.827C237.67 297.827 236.806 297.623 236.05 297.215C235.306 296.795 234.724 296.219 234.304 295.487C233.884 294.755 233.674 293.927 233.674 293.003C233.674 292.079 233.872 291.251 234.268 290.519C234.676 289.787 235.228 289.217 235.924 288.809C236.632 288.401 237.424 288.197 238.3 288.197C239.176 288.197 239.962 288.401 240.658 288.809C241.354 289.217 241.9 289.787 242.296 290.519C242.692 291.239 242.89 292.067 242.89 293.003L242.872 293.399ZM238.3 289.295C237.388 289.295 236.62 289.589 235.996 290.177C235.384 290.753 235.036 291.509 234.952 292.445H241.666C241.582 291.509 241.228 290.753 240.604 290.177C239.992 289.589 239.224 289.295 238.3 289.295ZM246.715 290.123C247.015 289.487 247.459 289.007 248.047 288.683C248.647 288.359 249.385 288.197 250.261 288.197V289.439L249.955 289.421C248.959 289.421 248.179 289.727 247.615 290.339C247.051 290.951 246.769 291.809 246.769 292.913V297.737H245.491V288.269H246.715V290.123Z" fill="#C6C6C6"/>
<g clip-path="url(#clip1_343_75522)">
<path d="M259.581 298.377L264.24 292.504L259.581 286.623" stroke="#C6C6C6" stroke-width="1.5" stroke-miterlimit="10" stroke-linecap="round"/>
</g>
<path d="M167.237 98.275H166.237V99.275V104.5H165.987V99.275V98.275H164.987H159.5V98.025H164.987H165.987V97.025V91.5H166.237V97.025V98.025H167.237H172.5V98.275H167.237ZM159.791 112.737C161.745 113.58 163.818 114 166 114C168.205 114 170.291 113.581 172.246 112.737C174.184 111.901 175.88 110.754 177.323 109.298C178.764 107.843 179.902 106.144 180.737 104.209C181.58 102.255 182 100.182 182 98C182 95.7948 181.581 93.7094 180.737 91.7538C179.901 89.8176 178.763 88.1234 177.32 86.6804C175.877 85.2374 174.182 84.0986 172.246 83.2631C170.292 82.4199 168.219 82 166.037 82C163.832 82 161.747 82.4192 159.791 83.2631C157.856 84.0982 156.157 85.2361 154.702 86.6771C153.246 88.1205 152.099 89.8157 151.263 91.7538C150.42 93.7079 150 95.7806 150 97.9625C150 100.168 150.419 102.253 151.263 104.209C152.099 106.146 153.244 107.846 154.699 109.301C156.154 110.756 157.854 111.901 159.791 112.737Z" fill="url(#paint0_linear_343_75522)" stroke="white" stroke-width="2"/>
<defs>
<linearGradient id="paint0_linear_343_75522" x1="171.917" y1="85.5947" x2="149.575" y2="96.3108" gradientUnits="userSpaceOnUse">
<stop offset="0.223958" stop-color="#62DAF8"/>
<stop offset="1" stop-color="#0192BA"/>
</linearGradient>
<clipPath id="clip0_343_75522">
<rect width="1293" height="372" fill="white" transform="translate(-129)"/>
</clipPath>
<clipPath id="clip1_343_75522">
<rect width="6" height="13" fill="white" transform="translate(265 299) rotate(-180)"/>
</clipPath>
</defs>
</svg>
