<svg width="337" height="157" viewBox="0 0 337 157" fill="none" xmlns="http://www.w3.org/2000/svg">
<g clip-path="url(#clip0_30_6503)">
<path d="M333.836 57.9494L333.683 58.3872C330.763 58.4962 275.305 60.5947 261.679 61.1274L261.831 60.6896C275.46 60.1571 330.919 58.0535 333.836 57.9417" fill="#C6CFD6"/>
<path d="M180.115 60.6791L179.963 61.1144L180.094 59.6878L180.246 59.2525L180.115 60.6791Z" fill="#C5CDD5"/>
<path d="M261.831 60.6981L261.678 61.1359C248.052 61.6686 192.354 66.4776 189.423 66.7302L189.577 66.2927C192.508 66.0503 248.206 61.2413 261.831 60.6981Z" fill="#C6CFD6"/>
<path d="M177.761 63.6657L177.606 64.1033L177.809 61.9085L177.964 61.4735L177.761 63.6657Z" fill="#C5CDD5"/>
<path d="M148.909 72.4146L148.757 72.8524L148.754 72.8806L148.906 72.4454L148.909 72.4146Z" fill="#CAD2D9"/>
<path d="M148.899 72.4446L148.747 72.8798C148.73 72.9139 148.71 72.9466 148.688 72.9777L148.843 72.5401C148.866 72.5107 148.884 72.4786 148.899 72.4446Z" fill="#C8D0D8"/>
<path d="M148.843 72.5397L148.688 72.9773C148.146 73.7402 145.183 74.8061 144.998 74.874L145.15 74.4388C145.335 74.3709 148.301 73.3026 148.843 72.5397Z" fill="#C6CFD6"/>
<path d="M180.246 59.2533L180.093 59.6886L109.397 68.3402L109.55 67.9024L180.246 59.2533Z" fill="#C5CDD5"/>
<path d="M110.474 68.7645L110.319 69.202L106.532 69.638L106.684 69.2027L110.474 68.7645Z" fill="#C5CDD5"/>
<path d="M84.2212 72.6681L84.0665 73.1031L85.2878 66.4726L85.4402 66.0348L84.2212 72.6681Z" fill="#C5CDD5"/>
<path d="M105.968 81.2475L105.813 81.6826L104.995 80.5185L105.15 80.0809L105.968 81.2475Z" fill="#C5CDD5"/>
<path d="M189.577 66.2924L189.422 66.7299C188.262 66.9571 166.214 71.2738 160.948 70.7809C153.956 70.085 121.996 72.8668 92.4866 78.0427L92.6413 77.6077C122.148 72.4366 154.109 69.6576 161.099 70.3507C166.366 70.8437 188.414 66.5219 189.574 66.2998" fill="#C6CFD6"/>
<path d="M92.641 77.6159L92.4863 78.0509C84.3529 79.4776 77.0958 81.0017 76.7128 81.0821L76.8677 80.6446C77.2506 80.5642 84.5083 79.0349 92.641 77.6159Z" fill="#C6CFD6"/>
<path d="M105.15 80.0834L104.995 80.5184C102.738 80.989 87.0813 83.8193 85.1994 84.1753L85.3543 83.7378C87.2259 83.3808 102.89 80.5538 105.15 80.0834Z" fill="#C6CFD6"/>
<path d="M85.3543 83.7385L85.1994 84.1761C83.6725 84.4704 82.1241 84.6399 80.5695 84.683L80.7218 84.2452C82.2774 84.2041 83.8268 84.0347 85.3543 83.7385Z" fill="#C6CFD6"/>
<path d="M145.15 74.4371L144.998 74.8724C143.169 75.4348 108.449 86.1316 89.6578 90.7842L89.8124 90.3492C108.604 85.6966 143.326 75.0001 145.152 74.4374" fill="#C6CFD6"/>
<path d="M80.7219 84.2453L80.5696 84.6831C79.62 84.5942 72.7183 82.4602 71.8559 82.3795C70.9936 82.2987 66.0419 83.6435 58.2103 85.4135L58.3624 84.9783C66.1916 83.2054 71.1485 81.8612 72.0082 81.9416C72.868 82.0221 79.7723 84.1564 80.7219 84.2453Z" fill="#C6CFD6"/>
<path d="M35.3497 92.1921L35.1976 92.6273L35.656 85.0471L35.8081 84.6119L35.3497 92.1921Z" fill="#C5CDD5"/>
<path d="M58.3627 84.9777L58.2107 85.413C50.5159 87.1596 35.9636 92.3562 35.1975 92.6307L35.3498 92.1929C36.1157 91.921 50.6707 86.7221 58.3627 84.9777Z" fill="#C6CFD6"/>
<path d="M89.8098 90.3489L89.6551 90.7839C70.8604 95.4464 38.1658 108.348 36.4463 109.016L36.601 108.581C38.3216 107.9 71.0118 94.9904 89.8107 90.3386" fill="#C6CFD6"/>
<path d="M330.95 51.1363L333.836 57.9498C330.918 58.0615 275.461 60.1523 261.831 60.6976C248.201 61.2429 192.509 66.0396 189.578 66.2922C188.417 66.522 166.369 70.8361 161.103 70.3431C154.11 69.6575 122.148 72.4365 92.6408 77.6152C84.5076 79.0393 77.2502 80.566 76.8675 80.6438L79.6036 82.1141C80.2325 82.3622 80.8872 82.5396 81.5554 82.6429C82.3253 82.715 98.1465 78.4277 103.059 77.4228C107.678 76.4706 144.324 71.7276 148.838 72.1502C149.58 72.8577 145.37 74.3753 145.148 74.4552C143.322 75.0179 108.599 85.7144 89.8083 90.367C71.017 95.0195 38.3218 107.9 36.6002 108.591L18.6047 102.696C18.8652 102.485 23.834 98.4687 40.4842 91.7971C57.1344 85.1255 70.0339 83.1195 70.7231 83.0032C71.1737 83.141 79.7206 85.7596 80.4572 85.8286C81.1938 85.8975 104.728 81.4694 105.966 81.2417L105.15 80.0778C102.89 80.5482 87.2368 83.3763 85.355 83.7322C83.8275 84.0284 82.2781 84.1978 80.7225 84.2389C79.7729 84.15 72.8737 82.0162 72.0088 81.9353C71.1439 81.8543 66.1948 83.1993 58.363 84.9719C50.671 86.7162 36.1159 91.9152 35.35 92.1871L35.8008 84.6061C36.6009 84.3555 51.6294 79.5755 60.7792 77.7454C69.929 75.9154 83.5048 72.8257 84.2268 72.6634L85.4458 66.0301C86.3303 65.8184 103.139 61.7966 114.2 60.0447C139.396 56.0563 172.355 55.215 174.088 55.1706C175.44 55.1396 201.123 54.5808 205.617 54.9162C210.111 55.2517 221.766 51.5741 267.444 50.8178C313.122 50.0616 330.059 51.0839 330.95 51.1363ZM180.128 60.6803L180.261 59.2539L109.55 67.9016L110.471 68.7628L106.684 69.2013L107.425 70.4693C108.449 70.3663 127.949 68.4072 142.236 66.4252C156.524 64.4432 176.688 63.7088 177.751 63.6662L177.956 61.4716L180.102 60.6779" fill="#E7EAEB"/>
<path d="M36.5999 108.591L36.4453 109.026L18.4524 103.131L18.6045 102.696L36.5999 108.591Z" fill="#C5CDD5"/>
<path d="M105.66 77.8944L104.868 79.1712C104.838 79.0637 104.831 78.9513 104.846 78.8408C104.861 78.7303 104.899 78.6241 104.956 78.5285L105.752 77.252C105.693 77.3471 105.655 77.4532 105.639 77.5637C105.624 77.6742 105.631 77.7868 105.66 77.8944Z" fill="#091F32"/>
<path d="M125.793 78.7949L125.001 80.0717L125.793 78.7949Z" fill="#092034"/>
<path d="M125.787 78.8032L124.994 80.0801C124.817 80.3416 124.557 80.5371 124.256 80.6361C123.218 81.0246 110.493 84.5142 109.822 84.7097L110.615 83.4329C111.284 83.2502 124.01 79.758 125.051 79.3595C125.352 79.2605 125.61 79.0648 125.787 78.8032Z" fill="#091F32"/>
<path d="M110.616 83.4259L109.823 84.7027C109.785 84.7012 109.748 84.6977 109.71 84.6922C109.453 84.6682 108.809 84.5226 108.288 83.673C107.983 83.1717 105.023 79.3659 104.868 79.1655L105.661 77.8886C105.816 78.0891 108.776 81.8949 109.081 82.3962C109.602 83.2458 110.248 83.3941 110.505 83.4181C110.542 83.4245 110.578 83.4279 110.615 83.4285" fill="#091F32"/>
<path d="M123.399 74.1129C123.578 74.1103 123.754 74.1593 123.905 74.2542C124.056 74.349 124.177 74.4857 124.253 74.6475L125.961 78.0571C125.956 78.1006 126.09 78.9707 125.062 79.3601C124.034 79.7496 111.296 83.238 110.625 83.4335C110.588 83.433 110.551 83.4295 110.515 83.4232C110.258 83.3992 109.612 83.2508 109.091 82.4013C108.786 81.9 105.825 78.0942 105.671 77.8937C105.657 77.8485 105.401 76.9901 106.69 76.713C107.673 76.5027 121.829 74.294 122.572 74.1776C122.843 74.1154 123.122 74.0936 123.399 74.1129Z" fill="#0F3557"/>
<path d="M29.3597 112.178L28.5673 113.452L28.5656 113.47L29.3582 112.193L29.3597 112.178Z" fill="#092034"/>
<path d="M29.3503 112.193L28.5577 113.469C28.4089 113.691 28.2225 113.885 28.0069 114.043C27.009 114.802 7.74349 125.6 6.72972 126.169L7.52494 124.892C8.5387 124.323 27.8016 113.525 28.7993 112.769C29.015 112.61 29.2014 112.415 29.3503 112.193Z" fill="#091F32"/>
<path d="M1.62637 121.337L0.831152 122.613C0.684703 122.328 0.613814 122.01 0.625228 121.689C0.636642 121.369 0.729978 121.057 0.896363 120.783L1.68901 119.506C1.5218 119.78 1.4282 120.092 1.41723 120.413C1.40625 120.734 1.47829 121.052 1.62637 121.337Z" fill="#091F32"/>
<path d="M5.3663 125.08L4.57365 126.357L0.833613 122.613L1.62627 121.336L5.3663 125.08Z" fill="#091E31"/>
<path d="M7.52523 124.892L6.73001 126.169C6.69353 126.199 5.97258 126.793 5.2591 126.726C5.12546 126.714 4.99563 126.675 4.87744 126.612C4.75925 126.548 4.65512 126.461 4.57134 126.357L5.36656 125.08C5.44945 125.186 5.55328 125.274 5.67156 125.338C5.78985 125.401 5.92006 125.44 6.05408 125.452C6.76499 125.519 7.48594 124.925 7.52523 124.892Z" fill="#091F32"/>
<path d="M16.8637 106.635C17.4419 106.714 17.981 106.971 18.4052 107.371C19.0116 107.89 28.8126 110.554 29.3277 110.693C29.3666 110.748 30.1122 111.771 28.802 112.77C27.8043 113.526 8.54137 124.324 7.5276 124.893C7.48831 124.925 6.76736 125.519 6.05645 125.453C5.92243 125.441 5.79222 125.402 5.67394 125.338C5.55565 125.274 5.45183 125.187 5.36894 125.081L1.6289 121.336C1.44472 120.984 1.37802 120.583 1.43851 120.19C1.49901 119.798 1.68354 119.435 1.96523 119.154C2.93368 118.129 15.4649 107.308 16.1242 106.737C16.3569 106.637 16.6126 106.602 16.8637 106.635Z" fill="#0F3557"/>
<path d="M42.0259 83.2652L41.2333 84.5421L40.4835 83.4799L41.2762 82.2031L42.0259 83.2652Z" fill="#091E31"/>
<path d="M80.9415 74.3775L80.149 75.6518L80.9417 74.375" fill="#092034"/>
<path d="M80.9354 74.3851L80.1427 75.6619C80.0895 75.75 80.0188 75.8263 79.9348 75.886C79.8508 75.9457 79.7555 75.9875 79.6546 76.0089C78.8607 76.1929 47.4122 83.5819 42.2863 84.7967C42.1265 84.8454 41.9601 84.8691 41.793 84.8668C41.736 84.8597 41.68 84.8467 41.6258 84.8278C41.4789 84.7531 41.3463 84.6533 41.234 84.5328L42.0266 83.256C42.1389 83.3764 42.2715 83.4763 42.4184 83.551C42.4734 83.5701 42.5304 83.5832 42.5882 83.5901C42.7552 83.5919 42.9216 83.5683 43.0815 83.5201C48.2067 82.313 79.662 74.9065 80.4496 74.7348C80.5501 74.7125 80.6451 74.67 80.7286 74.6099C80.8121 74.5498 80.8825 74.4733 80.9354 74.3851Z" fill="#091F32"/>
<path d="M81.146 73.1051C81.1524 73.1755 81.3037 74.5458 80.4498 74.7346C79.6571 74.9058 48.2074 82.3076 43.0817 83.5198C42.9218 83.568 42.7555 83.5917 42.5884 83.5899C42.5306 83.5829 42.4737 83.5698 42.4186 83.5507C42.2718 83.476 42.1392 83.3762 42.0268 83.2557L41.2771 82.1936C46.8417 80.8287 54.9636 78.7785 60.8097 77.4761C67.1652 76.0691 76.3808 74.1728 81.146 73.1051Z" fill="#0F3557"/>
<path d="M189.204 57.0318L188.411 58.3061L189.204 57.0293" fill="#092034"/>
<path d="M189.198 57.0386L188.405 58.3154C188.336 58.4292 188.239 58.5238 188.123 58.5905C188.007 58.6573 187.877 58.6942 187.743 58.6977L188.538 57.4237C188.671 57.419 188.802 57.3813 188.917 57.3141C189.032 57.2469 189.129 57.1522 189.198 57.0386Z" fill="#091F32"/>
<path d="M188.538 57.4239L187.743 58.6979C183.97 59.1532 112.265 67.7698 112.055 67.8018C110.61 68.0231 87.8177 71.2756 86.6185 71.4475L87.4111 70.1706C88.6102 70.0013 111.406 66.7337 112.847 66.525C113.06 66.4932 184.762 57.8764 188.538 57.4239Z" fill="#091F32"/>
<path d="M87.4112 70.1709L86.6185 71.4478L86.1207 67.2241L86.9134 65.9472L87.4112 70.1709Z" fill="#091E31"/>
<path d="M188.183 54.5543C188.512 54.5851 189.296 54.7541 189.388 55.9871C189.494 57.423 188.585 57.4232 188.538 57.424C184.763 57.8765 113.06 66.4934 112.848 66.5251C111.405 66.7466 88.6105 70.0014 87.4115 70.1708L86.9134 65.9496C88.118 65.693 111.004 60.7987 112.119 60.7558C112.675 60.7329 128.078 58.2327 144.891 56.8488C165.485 55.173 187.049 54.5851 188.183 54.5543Z" fill="#0F3557"/>
<path d="M317.076 57.4194L316.283 58.6962C297.966 59.3866 270.419 60.4167 261.579 60.7696C250.961 61.1913 212.956 64.3863 196.795 65.7511L197.587 64.4769C213.749 63.1094 251.756 59.9173 262.371 59.4928C271.207 59.1419 298.746 58.1085 317.076 57.4194Z" fill="#091F32"/>
<path d="M315.446 56.8275C317.191 56.9908 317.083 57.3992 317.076 57.4192C298.759 58.1096 271.212 59.1422 262.371 59.4926C251.756 59.9171 213.749 63.1093 197.587 64.4767L198.937 63.0531C202.854 62.7016 277.113 56.0006 314.356 56.7719C314.782 56.7783 315.143 56.7991 315.446 56.8275Z" fill="#0F3557"/>
<path d="M233.117 56.4046L232.322 57.6812L231.477 53.1512L232.27 51.8769L233.117 56.4046Z" fill="#091E31"/>
<path d="M304.872 54.3933L304.079 55.6701C300.701 55.8111 236.277 58.4703 234.359 58.2909C232.518 58.1056 232.343 57.7043 232.322 57.6817L233.115 56.4048C233.113 56.4253 233.31 56.8313 235.152 57.0141C237.069 57.1935 301.483 54.5333 304.872 54.3933Z" fill="#091F32"/>
<path d="M305.246 50.1475L304.872 54.393C301.493 54.5339 237.069 57.1932 235.152 57.0137C233.31 56.8412 233.136 56.4272 233.115 56.4045L232.27 51.8771C240.955 51.2254 252.478 50.6431 267.878 50.3926C283.438 50.1365 295.759 50.1093 305.246 50.1475Z" fill="#0F3557"/>
<path d="M75.1404 92.8144L74.348 94.0887L74.3463 94.1066L75.139 92.8298L75.1404 92.8144Z" fill="#092034"/>
<path d="M75.1311 92.8291L74.3384 94.1059C74.0564 94.4871 73.6927 94.8008 73.2738 95.024L74.0665 93.7472C74.4865 93.5257 74.8506 93.2117 75.1311 92.8291Z" fill="#091F32"/>
<path d="M74.0668 93.7462L73.2741 95.023C73.0373 95.0912 68.5047 96.3848 62.6438 98.4814C56.7829 100.578 42.0482 105.538 40.4207 106.192C37.2535 107.473 36.3419 107.422 34.2245 107.223L35.017 105.949C37.1343 106.147 38.0462 106.197 41.2134 104.915C42.828 104.26 57.575 99.3063 63.4364 97.2046C69.2978 95.1028 73.83 93.8144 74.0668 93.7462Z" fill="#091F32"/>
<path d="M35.0193 105.948L34.2241 107.225L23.7804 104.015L24.5756 102.738L35.0193 105.948Z" fill="#091E31"/>
<path d="M24.5733 102.737L23.7807 104.014C23.6954 103.986 22.4273 103.565 22.9393 102.742L23.7319 101.465C23.22 102.288 24.488 102.709 24.5733 102.737Z" fill="#091F32"/>
<path d="M68.2959 85.7253C71.2166 85.9987 75.3071 86.5237 75.9472 87.1261C76.661 87.7974 76.1119 90.8975 75.2022 92.7059C74.8873 93.3041 74.1101 93.7248 74.0692 93.7468C73.8324 93.815 69.3023 95.1088 63.4388 97.2051C57.5754 99.3015 42.8433 104.262 41.2158 104.915C38.0486 106.197 37.1367 106.148 35.0194 105.95L24.5733 102.737C24.4628 102.701 22.3488 101.997 24.7723 100.612C25.812 100.014 38.2322 94.3341 38.8867 94.0363C50.4519 88.9708 64.3571 85.5426 65.4019 85.5267C65.7315 85.5188 66.8767 85.5924 68.2959 85.7253Z" fill="#0F3557"/>
<path d="M137.657 66.9156L136.865 68.1899L136.593 67.4721L137.386 66.1953L137.657 66.9156Z" fill="#091E31"/>
<path d="M137.91 67.2315L137.117 68.5084C137.014 68.4187 136.928 68.3108 136.865 68.1903L137.657 66.916C137.722 67.0352 137.808 67.142 137.91 67.2315Z" fill="#091F32"/>
<path d="M170.314 64.7314L169.532 66.0067L169.531 66.0195L170.324 64.7426" fill="#092034"/>
<path d="M170.305 64.7404L169.513 66.0172C169.457 66.1231 169.375 66.2133 169.275 66.2797C169.176 66.3462 169.061 66.3867 168.941 66.3977C168.283 66.4266 141.951 68.3325 137.648 68.5858C137.545 68.5932 137.441 68.5938 137.337 68.5877C137.258 68.5811 137.182 68.5534 137.117 68.5076L137.91 67.2308C137.975 67.2781 138.052 67.3059 138.133 67.3111C138.235 67.3183 138.338 67.3176 138.441 67.3089C142.744 67.0582 169.076 65.1497 169.734 65.1209C169.854 65.1108 169.969 65.0706 170.069 65.0041C170.169 64.9376 170.25 64.8468 170.305 64.7404Z" fill="#091F32"/>
<path d="M153.842 64.411C159.158 64.2989 166.632 63.9678 170.623 63.786C170.617 63.8501 170.454 65.0954 169.734 65.121C169.077 65.1499 142.744 67.0583 138.441 67.3091C138.339 67.3178 138.236 67.3185 138.133 67.3112C138.053 67.3061 137.975 67.2782 137.91 67.231C137.808 67.1414 137.722 67.0346 137.657 66.9154L137.386 66.1951C142.01 65.6127 149.056 64.5132 153.842 64.411Z" fill="#0F3557"/>
<path d="M190.721 64.8586L189.926 66.1352L178.839 68.2179L179.634 66.9439L190.721 64.8586Z" fill="#006F86"/>
<path d="M179.634 66.9453L178.839 68.2194L178.914 66.4207L179.707 65.1464L179.634 66.9453Z" fill="#006F86"/>
<path d="M190.602 63.3706L190.721 64.8594L179.634 66.9447L179.707 65.1458L190.602 63.3706Z" fill="#0085A0"/>
<path d="M298.898 28.825L298.61 29.4722C298.586 29.5311 298.556 29.5871 298.519 29.6394L298.805 28.9893C298.841 28.9372 298.872 28.8822 298.898 28.825Z" fill="#758DA3"/>
<path d="M298.805 28.99L298.519 29.6401C297.514 31.114 292.428 31.0977 292.147 31.1102L292.436 30.4604C292.726 30.4617 297.799 30.4742 298.805 28.99Z" fill="#6F899F"/>
<path d="M282.992 28.0225L282.706 28.6725L282.477 28.1293L282.763 27.4818L282.992 28.0225Z" fill="#6A849C"/>
<path d="M292.437 30.4499L292.148 31.0997C289.596 31.212 241.047 33.3425 218.9 35.294L219.186 34.6439C241.336 32.6953 289.882 30.562 292.437 30.4499Z" fill="#6F899F"/>
<path d="M282.76 27.4817L282.474 28.1291C282.169 28.1264 252.542 28.7034 231.869 30.1084C211.197 31.5134 196.094 33.1892 195.945 33.2036L196.231 32.5536C196.38 32.5417 211.499 30.8622 232.155 29.4584C252.812 28.0545 282.458 27.474 282.761 27.4791" fill="#6F899F"/>
<path d="M219.186 34.6441L218.9 35.2942C196.75 37.2403 189.675 37.3762 189.299 37.3823L189.585 36.7323C189.958 36.7259 197.033 36.5926 219.183 34.6439" fill="#6F899F"/>
<path d="M189.588 36.7315L189.299 37.3813C187.194 37.7448 147.45 44.6932 140.441 45.7239C136.242 46.3306 114.929 48.8794 96.4036 51.5264L96.6897 50.8763C115.214 48.2189 136.528 45.6831 140.727 45.0739C147.74 44.0564 187.492 37.1088 189.585 36.7313" fill="#6F899F"/>
<path d="M121.07 50.5711L120.784 51.2186C120.773 51.2464 120.758 51.2728 120.741 51.2972L121.027 50.6497C121.044 50.6251 121.058 50.5987 121.07 50.5711Z" fill="#758DA3"/>
<path d="M121.026 50.6492L120.74 51.2966C120.547 51.5327 120.291 51.71 120.001 51.8087C118.868 52.2967 109.782 54.6959 99.5968 57.5708L99.8829 56.9208C110.068 54.0484 119.154 51.6467 120.287 51.1586C120.576 51.0608 120.832 50.8843 121.026 50.6492Z" fill="#6F899F"/>
<path d="M96.6957 50.8658L96.4096 51.5158C88.9546 52.5823 75.8244 55.9177 75.1323 56.0932L75.4209 55.4434C76.1105 55.2677 89.2432 51.9325 96.6957 50.8658Z" fill="#6F899F"/>
<path d="M64.924 58.5846L64.6379 59.2347L64.9906 57.9838L65.2767 57.3338L64.924 58.5846Z" fill="#6A849C"/>
<path d="M65.2764 57.3358L64.9906 57.9833C64.5601 58.0463 56.3551 59.2415 52.2231 58.8547C50.886 58.7296 50.0207 58.4316 50.0737 57.8656C50.0797 57.8117 50.0942 57.759 50.1167 57.7095L50.4028 57.0595C50.3803 57.1089 50.3658 57.1616 50.3597 57.2156C50.3065 57.7841 51.1744 58.0823 52.509 58.2073C56.641 58.5941 64.8459 57.3989 65.2764 57.3358Z" fill="#6F899F"/>
<path d="M97.5347 57.5839L97.2487 58.2339L95.1578 58.8312C90.3689 60.2067 85.5748 61.6385 81.4126 62.9848C73.6533 65.503 61.2336 68.7448 51.3884 71.1995L51.6742 70.552C61.5068 68.0936 73.9266 64.8518 81.6984 62.3374C85.8557 60.988 90.6599 59.5597 95.4437 58.1838L97.5347 57.5839Z" fill="#6F899F"/>
<path d="M108.214 83.829L107.928 84.479C107.595 84.577 106.943 84.5728 106.022 84.4865C97.9044 83.7266 68.9849 76.5169 56.227 75.3227L56.5128 74.6752C69.2707 75.8695 98.1851 83.0787 106.308 83.8391C107.229 83.9253 107.882 83.927 108.214 83.829Z" fill="#6F899F"/>
<path d="M51.6872 70.5529L51.4013 71.2003L43.0953 71.4845L43.3813 70.8345L51.6872 70.5529Z" fill="#6A849C"/>
<path d="M99.8829 56.9213L99.5969 57.5713C77.2903 60.1718 35.3842 71.4694 33.4842 71.9916L33.7729 71.3418C35.6626 70.8186 77.5764 59.5217 99.8829 56.9213Z" fill="#6F899F"/>
<path d="M56.5126 74.6763L56.2268 75.3238C47.5008 74.507 37.7276 75.031 37.2125 75.0577L37.4983 74.4102C38.0188 74.3814 47.7866 73.8595 56.5126 74.6763Z" fill="#6F899F"/>
<path d="M29.6356 73.5556L29.3472 74.2028C27.8706 73.3826 27.5849 72.6455 27.8578 72.0252L28.1437 71.3778C27.871 71.9955 28.1567 72.7326 29.6356 73.5556Z" fill="#6F899F"/>
<path d="M295.652 27.0516C295.993 27.0835 299.078 27.4033 298.972 28.5351C298.791 30.466 292.753 30.4509 292.437 30.4498C289.882 30.5619 241.336 32.6952 219.186 34.6439C197.036 36.5925 189.961 36.7259 189.588 36.7322C187.482 37.0983 147.739 44.0467 140.73 45.0748C136.53 45.684 115.218 48.2303 96.6922 50.8773C89.2397 51.944 76.107 55.2792 75.4174 55.4549L75.3455 56.2232C75.8168 56.1665 84.7923 55.0925 95.8719 53.1125C106.952 51.1324 119.305 49.7315 119.956 49.6709C121.211 49.946 121.603 50.6001 120.286 51.1717C119.153 51.6598 110.066 54.0615 99.8818 56.9339C77.5753 59.5344 35.6692 70.832 33.7717 71.3544C36.0517 71.3922 75.3597 60.1923 97.5336 57.5975L95.4438 58.1846C90.6551 59.5575 85.861 60.9894 81.6985 62.3382C73.9395 64.8539 61.5197 68.0957 51.6743 70.5529L43.3633 70.8341C45.722 70.9154 54.5369 71.087 56.8082 71.2996C69.5764 72.4948 96.0378 79.5235 103.624 80.2337C104.479 80.3137 105.095 80.312 105.423 80.216L108.191 83.8334C107.858 83.9314 107.206 83.9297 106.284 83.8435C98.1666 83.0836 69.2471 75.8738 56.4892 74.6796C47.7632 73.8627 37.9903 74.3842 37.475 74.4134C36.0186 74.5788 34.5493 74.5988 33.0889 74.473C31.8493 74.357 30.5743 74.093 29.6121 73.5586C25.3231 71.1706 31.0802 69.4905 31.381 69.4024C32.1234 69.1878 46.2165 65.108 52.9035 60.7406L64.9106 58.5891L65.264 57.3305C64.8335 57.3935 56.6285 58.5887 52.4965 58.2019C51.1619 58.077 50.2941 57.7788 50.3473 57.2103C50.5652 54.8825 71.5395 48.6752 89.6882 45.0784C107.837 41.4817 171.642 35.9177 174.999 35.6249C175.518 35.6089 185.193 35.3031 197.673 31.4521C207.833 28.319 236.248 27.688 254.126 27.0134C263.594 26.6571 274.672 26.6866 283.001 26.7946C290.416 26.8947 295.378 27.044 295.652 27.0516ZM232.209 30.1256C252.853 28.7231 282.687 28.0181 282.992 28.0234L282.76 27.4851C282.458 27.48 252.827 28.0568 232.155 29.4644C211.482 30.8719 196.38 32.5426 196.223 32.5563L197.705 32.9017C197.847 32.8865 211.555 31.5323 232.202 30.1249" fill="#D2D8DD"/>
<path d="M37.4984 74.4092L37.2126 75.0567C35.7564 75.2251 34.2868 75.2459 32.8262 75.1188C31.5841 75.0025 30.3117 74.7388 29.3471 74.2016L29.6355 73.5543C30.5978 74.0887 31.8727 74.3527 33.1123 74.4688C34.5728 74.5945 36.0421 74.5746 37.4984 74.4092Z" fill="#6F899F"/>
<g opacity="0.5">
<path d="M283.377 28.5756L283.089 29.2229C280.972 29.717 269.257 33.8876 258.016 42.1014C246.477 50.5327 230.86 56.4847 230.413 56.6184L230.699 55.9684C231.146 55.8372 246.763 49.8827 258.304 41.4541C269.543 33.2401 281.271 29.0681 283.377 28.5756Z" fill="#858585"/>
<path d="M230.702 55.9699L230.413 56.6197L230.325 54.1807L230.611 53.5307L230.702 55.9699Z" fill="#808080"/>
<path d="M282.796 27.4579L283.378 28.574C281.26 29.0656 269.543 33.2385 258.304 41.4525C246.764 49.8811 231.146 55.8356 230.699 55.9668L230.611 53.5278C230.718 53.4964 245.65 47.7516 256.844 39.5798C268.423 31.1239 280.302 28.0459 282.796 27.4579Z" fill="#E1E1E1"/>
</g>
<path d="M283.248 26.6416L282.455 27.9159C277.961 29.0451 267.327 33.7663 257.455 40.9872C251.382 45.4302 244.106 49.1767 239.043 51.5469L239.835 50.27C244.898 47.9024 252.175 44.1533 258.248 39.7103C268.119 32.4895 278.754 27.7709 283.248 26.6416Z" fill="#091F32"/>
<path d="M239.828 50.2696L239.035 51.5464C238.891 51.6006 238.737 51.6207 238.584 51.6049C238.341 51.5826 238.114 51.4691 237.951 51.2873C237.876 51.2054 237.863 50.9846 238.031 50.7136L238.826 49.437C238.658 49.708 238.668 49.9388 238.744 50.0105C238.908 50.1917 239.134 50.305 239.377 50.3281C239.53 50.3443 239.685 50.3233 239.828 50.267" fill="#091F32"/>
<path d="M282.442 25.4084L283.24 26.6404C278.733 27.7685 268.112 32.4883 258.24 39.7091C252.167 44.1521 244.891 47.8987 239.828 50.2689C239.684 50.3252 239.53 50.3461 239.377 50.33C239.133 50.3069 238.907 50.1935 238.744 50.0124C238.617 49.8739 238.671 49.3262 239.489 48.8293C244.609 46.4541 251.995 42.6688 258.262 38.0838C268.872 30.3172 278.926 26.2857 282.442 25.4084Z" fill="#0F3557"/>
<path d="M107.471 82.414L106.679 83.6909L107.471 82.414Z" fill="#092034"/>
<path d="M107.471 82.414L106.679 83.6909L107.471 82.414Z" fill="#091F32"/>
<path d="M107.471 82.416L106.679 83.6903L107.471 82.416Z" fill="#091F32"/>
<path d="M45.2128 67.7253L44.4204 68.9996L33.2915 72.0032L34.0841 70.7264L45.2128 67.7253Z" fill="#091E31"/>
<path d="M107.467 82.4117L106.674 83.6859C106.613 83.6859 106.552 83.6802 106.492 83.6689C104.847 83.5149 94.0046 81.4124 85.3284 79.6212C74.2824 77.342 62.6925 75.2858 56.0454 74.6636C47.3784 73.8523 37.0608 74.3847 36.9593 74.3907L37.7517 73.1164C37.8534 73.1079 48.1711 72.5754 56.8406 73.387C63.4826 74.0087 75.0776 76.0654 86.1211 78.3443C94.7978 80.1304 105.64 82.2381 107.287 82.3923C107.347 82.4017 107.407 82.4073 107.467 82.4091" fill="#091F32"/>
<path d="M34.0841 70.7258L33.2915 72.0027C33.0307 72.1284 32.8008 72.3097 32.6178 72.5337L33.4105 71.2569C33.5952 71.0347 33.8247 70.8537 34.0841 70.7258Z" fill="#091F32"/>
<path d="M33.4104 71.2578L32.6178 72.5346L33.4104 71.2578Z" fill="#092034"/>
<path d="M37.7503 73.1314L36.9579 74.4056C35.5365 74.5632 34.1032 74.5839 32.6777 74.4674C31.3175 74.34 30.2433 74.0612 29.4828 73.6387C28.7224 73.2162 28.2694 72.7734 28.2979 72.4687C28.3083 72.3848 28.3379 72.3045 28.3846 72.234L29.1772 70.9571C29.1309 71.0278 29.1013 71.1081 29.0906 71.1919C29.062 71.4966 29.5025 71.9356 30.2753 72.3645C31.0481 72.7933 32.1111 73.053 33.4739 73.1805C34.8986 73.2954 36.3309 73.2747 37.7515 73.1186" fill="#091F32"/>
<path d="M105.513 79.9187C105.877 80.3147 106.217 80.733 106.529 81.1712C106.992 81.7621 107.421 82.3499 107.467 82.4111C107.407 82.4093 107.347 82.4037 107.287 82.3943C105.64 82.24 94.7971 80.1375 86.1209 78.3463C75.0775 76.0674 63.4851 74.011 56.8405 73.389C48.171 72.5774 37.8533 73.1099 37.7515 73.1184C36.3309 73.2745 34.8986 73.2953 33.474 73.1804C32.1112 73.0528 31.037 72.774 30.2753 72.3643C29.5137 71.9546 29.0621 71.4964 29.0906 71.1917C29.1493 70.5643 30.7616 69.7698 31.8954 69.4393C31.954 69.4216 37.5986 67.7826 43.4221 65.5327L45.2154 67.7258L34.0868 70.7268C33.9996 70.7729 32.3105 71.6429 34.3365 72.0418C34.8831 71.9659 35.4343 71.9269 35.9863 71.925L43.6956 70.9082C44.3328 70.9317 45.3944 70.9587 46.6547 70.9914C50.1284 71.0815 55.3766 71.2163 57.0191 71.3701C63.8202 72.0067 75.629 74.241 86.0459 76.2159C94.7951 77.8641 101.499 79.543 105.513 79.9187Z" fill="#0F3557"/>
<path d="M75.6883 55.3554L75.4022 56.0054L65.0064 57.9539L65.2925 57.3039L75.6883 55.3554Z" fill="#6A849C"/>
<path d="M65.2921 57.3047L65.0061 57.9547L64.9572 57.7022L65.2433 57.0522L65.2921 57.3047Z" fill="#6A849C"/>
<path d="M75.6389 55.106L75.688 55.356L65.2921 57.3045L65.2433 57.0519L75.6389 55.106Z" fill="#D2D8DD"/>
<path d="M115.908 46.9926L115.116 48.2695C109.35 49.0213 103.676 49.8929 97.6839 50.7347L98.4765 49.4579C104.469 48.6161 110.15 47.7401 115.908 46.9926Z" fill="#007087"/>
<path d="M98.4836 49.4689L97.6909 50.7457C97.6034 50.6143 97.4988 50.495 97.3798 50.3911C96.296 49.4398 95.3229 48.9664 94.2244 48.8635C93.4057 48.7869 92.5853 48.9219 91.634 49.0731C91.2843 49.1308 90.9135 49.1917 90.5073 49.244C88.1906 49.5438 82.2917 50.415 77.6356 51.5885C76.702 51.8266 75.8205 52.0334 74.9683 52.2326C70.5632 53.2694 66.7619 54.1613 60.2275 57.9773L61.0227 56.7007C67.5544 52.887 71.3591 51.9852 75.7609 50.9558C76.6132 50.7566 77.4947 50.5498 78.428 50.3142C83.0867 49.141 88.9741 48.2816 91.2997 47.9698C91.7062 47.9148 92.0872 47.8549 92.4266 47.7963C93.2788 47.6193 94.1498 47.5498 95.0194 47.5895C96.1153 47.6921 97.0884 48.1655 98.1724 49.1143C98.2907 49.2189 98.3953 49.3381 98.4836 49.4689Z" fill="#007087"/>
<path d="M61.0237 56.6898L60.2285 57.9664C57.4954 58.2608 53.8357 58.5537 51.5875 58.3433C50.6661 58.257 50.2709 58.1089 50.1181 58.0275L50.9107 56.7506C51.0636 56.8321 51.4588 56.9802 52.3802 57.0664C54.6284 57.2769 58.2907 56.9842 61.0237 56.6898Z" fill="#007087"/>
<path d="M89.534 45.3152C95.2658 44.183 105.465 42.7637 117.439 41.4279L115.909 46.9936C110.142 47.7455 104.469 48.617 98.4767 49.4588C98.3884 49.328 98.2839 49.2089 98.1656 49.1042C97.0816 48.1555 96.1085 47.682 95.0126 47.5795C94.143 47.5398 93.2719 47.6092 92.4198 47.7862C92.0726 47.8441 91.6993 47.9048 91.2929 47.9597C88.975 48.2723 83.0798 49.1309 78.4212 50.3042C77.4878 50.5397 76.6064 50.7465 75.7541 50.9457C71.3516 51.9828 67.5475 52.877 61.0159 56.6906C58.2829 56.985 54.6206 57.2777 52.3723 57.0672C51.451 56.981 51.0558 56.8329 50.9029 56.7514C51.4242 56.1053 54.5982 54.4185 63.7569 51.6645C71.386 49.3744 81.0188 47.0031 89.534 45.3152Z" fill="#0085A0"/>
<path d="M178.487 37.4969L177.695 38.7711C164.995 40.9689 144.307 44.532 139.596 45.2147C138.191 45.4191 134.877 45.8348 130.311 46.4122C126.274 46.9229 121.254 47.556 115.824 48.2592L116.616 46.9824C122.046 46.2792 127.07 45.636 131.103 45.1379C135.68 44.5589 138.984 44.1423 140.388 43.9404C145.099 43.2577 165.789 39.6974 178.487 37.4994" fill="#007087"/>
<path d="M116.619 46.9838L115.823 48.2604L117.359 42.6952L118.152 41.4184L116.619 46.9838Z" fill="#006F86"/>
<path d="M176 35.8002C176.559 36.1108 177.139 36.4906 177.729 36.9075C177.993 37.089 178.246 37.2852 178.487 37.4951C165.782 39.695 145.099 43.256 140.388 43.9387C138.984 44.1431 135.67 44.5588 131.104 45.1362C127.069 45.6445 122.047 46.2774 116.617 46.9807L118.152 41.4155C143.269 38.6131 173.76 35.9495 174.728 35.862C174.827 35.8634 175.266 35.8477 176 35.8002Z" fill="#0085A0"/>
<path d="M98.4096 55.7335L97.6249 57.0085C93.6063 57.7327 76.8164 60.8083 67.0273 63.245L45.8023 68.5351L46.595 67.2582L67.8223 61.9709C77.6042 59.5284 94.4046 56.4513 98.4199 55.7344" fill="#007087"/>
<path d="M46.5846 67.2578L45.7919 68.5346L44.0572 66.5717L44.8499 65.2949L46.5846 67.2578Z" fill="#006F86"/>
<path d="M96.767 53.6418C96.8201 53.7628 96.8982 53.8713 96.996 53.9603C97.5316 54.4985 98.0072 55.0931 98.4145 55.7335C94.3985 56.458 77.6063 59.5307 67.8169 61.97L46.5896 67.2573L44.8557 65.2867C45.0503 65.199 48.7465 63.5482 50.1405 62.9554L54.7056 60.7349L96.767 53.6418Z" fill="#0085A0"/>
<path d="M117.496 50.8281L116.704 52.1049L117.499 50.8309" fill="#007188"/>
<path d="M117.496 50.8343L116.701 52.1083C116.611 52.2093 116.498 52.2873 116.371 52.3358C115.263 52.8933 105.002 55.3116 100.603 56.3336L101.396 55.0568C105.794 54.0348 116.058 51.6193 117.164 51.0615C117.29 51.0113 117.403 50.9337 117.496 50.8343Z" fill="#007087"/>
<path d="M101.395 55.0646L100.602 56.3414C100.19 55.6545 99.7825 54.9731 99.3155 54.3198L100.108 53.0429C100.565 53.6902 100.982 54.3802 101.395 55.0646Z" fill="#007087"/>
<path d="M116.783 50.5077C117.415 50.5668 117.864 50.7148 117.164 51.06C116.058 51.6178 105.795 54.0333 101.396 55.0553C100.984 54.3709 100.577 53.687 100.11 53.0336L115.323 50.4796C115.81 50.4619 116.297 50.4713 116.783 50.5077Z" fill="#0085A0"/>
<path d="M298.822 28.7239L298.536 29.3739C298.569 29.2995 298.589 29.2203 298.597 29.1394L298.883 28.4893C298.875 28.5703 298.855 28.6495 298.822 28.7239Z" fill="#6F899F"/>
<path d="M299.059 28.8219L298.776 29.4671C298.749 29.5292 298.716 29.5884 298.677 29.6438L298.965 28.994C299.002 28.9385 299.034 28.8802 299.062 28.8196" fill="#758DA3"/>
<path d="M298.962 28.9962L298.674 29.646C297.628 31.1885 292.429 31.1926 292.189 31.1908L292.475 30.5408C292.715 30.5426 297.912 30.5331 298.962 28.9962Z" fill="#6F899F"/>
<path d="M189.63 36.8285L189.344 37.4785L189.34 37.2198L189.626 36.5697L189.63 36.8285Z" fill="#6A849C"/>
<path d="M292.474 30.5412L292.188 31.1912C291.684 31.2137 240.844 33.4578 218.953 35.3867C197.061 37.3156 189.419 37.476 189.344 37.4767L189.63 36.8266C189.704 36.8336 197.337 36.6646 219.239 34.7367C241.141 32.8087 291.97 30.5637 292.474 30.5412Z" fill="#6F899F"/>
<path d="M299.139 28.5135C298.95 30.5391 292.736 30.5438 292.477 30.5428C291.973 30.5654 241.133 32.8094 219.241 34.7383C197.35 36.6673 189.705 36.8248 189.631 36.8178L189.627 36.5591C189.701 36.5661 197.326 36.3938 219.217 34.47C241.108 32.5462 291.959 30.2954 292.471 30.2736C294.213 30.2791 298.747 29.9647 298.884 28.4767L299.139 28.5135Z" fill="#D2D8DD"/>
<path d="M298.483 27.7539L297.691 29.0307L297.689 29.0435L298.482 27.7667L298.483 27.7539Z" fill="#092034"/>
<path d="M298.475 27.7668L297.682 29.0436C297.261 29.6707 294.661 30.2023 291.878 30.1975L292.673 28.9209C295.469 28.9243 298.069 28.3927 298.477 27.767" fill="#091F32"/>
<path d="M284.841 27.9296L284.048 29.2065L283.391 27.8998L284.184 26.623L284.841 27.9296Z" fill="#091E31"/>
<path d="M284.812 28.5644L284.02 29.8413C284.078 29.7464 284.111 29.6384 284.116 29.5273C284.121 29.4161 284.098 29.3056 284.048 29.2059L284.841 27.9316C284.891 28.0306 284.915 28.1409 284.91 28.2517C284.905 28.3626 284.871 28.4703 284.812 28.5644Z" fill="#091F32"/>
<path d="M292.66 28.9193L291.865 30.1959C291.345 30.2144 240.436 32.4571 218.725 34.3591C206.979 35.3881 199.404 35.9086 195.15 36.1562L195.945 34.8822C200.197 34.6292 207.771 34.1138 219.518 33.0822C241.223 31.1798 292.138 28.9401 292.657 28.919" fill="#091F32"/>
<path d="M195.951 34.8828L195.156 36.1568L194.899 36.1328C194.537 36.0989 194.06 35.9974 193.854 35.7094C193.791 35.6089 193.749 35.4966 193.731 35.3795C193.712 35.2623 193.718 35.1427 193.747 35.0278L194.54 33.7509C194.511 33.8659 194.506 33.9855 194.524 34.1025C194.543 34.2195 194.584 34.3317 194.647 34.4326C194.854 34.7103 195.33 34.822 195.694 34.8562L195.951 34.8802" fill="#091F32"/>
<path d="M295.855 26.8705C297.452 27.0199 298.449 27.4568 298.532 27.6222C298.467 28.3136 295.68 28.9336 292.66 28.9272C292.14 28.9483 241.228 31.1882 219.52 33.0904C207.773 34.122 200.199 34.64 195.948 34.8904L195.691 34.8664C195.326 34.8322 194.849 34.7333 194.643 34.4428C194.581 34.3419 194.539 34.2297 194.521 34.1127C194.503 33.9956 194.508 33.8761 194.536 33.7611C194.942 33.1895 198.898 32.3611 204.604 32.0506L206.328 31.8891C210.682 31.4778 214.791 31.0875 233.001 29.8549C253.6 28.4586 283.911 28.8781 284.213 28.8831C284.329 28.8856 284.443 28.8588 284.546 28.8051C284.648 28.7515 284.735 28.6727 284.799 28.5763C284.86 28.4815 284.896 28.3723 284.902 28.2596C284.908 28.1468 284.884 28.0344 284.833 27.9337L284.179 26.6247C291.051 26.7204 295.84 26.869 295.855 26.8705Z" fill="#0F3557"/>
<path d="M96.8336 50.611L96.5475 51.261L96.3606 51.4321L96.6465 50.7846L96.8336 50.611Z" fill="#6B859C"/>
<path d="M96.6465 50.7855L96.3606 51.433L94.8058 49.7608L95.0945 49.111L96.6465 50.7855Z" fill="#6A849C"/>
<path d="M95.0918 49.1113L94.8057 49.7613C94.0685 49.8654 87.4121 50.8077 82.6203 51.7438C77.5727 52.7308 69.776 54.8193 69.6987 54.843L69.9848 54.193C70.0619 54.1718 77.8581 52.0885 82.9064 51.0938C87.698 50.1603 94.3546 49.2154 95.0918 49.1113Z" fill="#6F899F"/>
<path d="M69.9848 54.192L69.6987 54.842L61.8482 58.3074L62.1343 57.6574L69.9848 54.192Z" fill="#6A849C"/>
<path d="M62.1342 57.6576L61.8481 58.3076L61.7458 58.0733L62.0319 57.4232L62.1342 57.6576Z" fill="#6A849C"/>
<path d="M95.1242 48.8479L96.8335 50.6121L96.6463 50.7858L95.0918 49.111C94.3546 49.215 87.698 50.1599 82.9064 51.0934C77.8585 52.083 70.0619 54.1715 69.9848 54.1927L62.1343 57.6581L62.032 57.4238L69.8986 53.9521C69.9946 53.9223 77.7994 51.8295 82.8576 50.8409C87.9157 49.8522 95.0509 48.8566 95.1242 48.8479Z" fill="#D2D8DD"/>
</g>
<defs>
<clipPath id="clip0_30_6503">
<rect width="325.83" height="126.712" fill="white" transform="translate(12 0.0917969) rotate(5.34786)"/>
</clipPath>
</defs>
</svg>
