<svg width="150" height="46" viewBox="0 0 150 46" fill="none" xmlns="http://www.w3.org/2000/svg">
<g clip-path="url(#clip0_346_133072)">
<path d="M6.4541 34.9114L16.3269 38.2387C16.3269 38.2387 31.785 32.3704 45.8236 28.5642C59.8622 24.7579 68.9858 21.5942 68.9858 21.5942L85.4366 18.7992C85.4366 18.7992 111.792 16.7766 117.793 16.293C123.795 15.8094 149.975 15.0765 149.975 15.0765L148.729 11.3143C148.729 11.3143 122.767 10.4468 106.178 11.4975C95.5878 12.169 92.678 12.8962 92.678 12.8962C92.678 12.8962 72.5056 13.0446 58.1005 14.6207C43.6955 16.1968 37.528 18.442 37.528 18.442L35.7536 20.6269L36.0644 21.1917C36.0644 21.1917 21.4205 24.2291 15.5893 26.2586C15.58 26.421 15.3667 30.3107 15.3667 30.3107C15.3667 30.3107 8.09165 33.602 6.4541 34.9114Z" fill="white" stroke="#E1E1E1" stroke-width="0.5" stroke-linecap="round" stroke-linejoin="round"/>
<path d="M149.871 14.6475L149.82 14.7994C148.506 14.8493 123.551 15.8026 117.418 16.0507L117.469 15.8988C123.601 15.6506 148.557 14.6973 149.871 14.6475Z" fill="#B6B6B6"/>
<path d="M80.6954 15.9L80.6455 16.0519L80.7047 15.4083L80.7557 15.2563L80.6954 15.9Z" fill="#B3B3B3"/>
<path d="M117.467 15.8953L117.416 16.0472C111.283 16.2954 86.2192 18.4699 84.8994 18.5847L84.9504 18.4328C86.2691 18.3168 111.333 16.1434 117.467 15.8953Z" fill="#B6B6B6"/>
<path d="M79.6343 17.2499L79.5845 17.4007L79.6761 16.4114L79.726 16.2595L79.6343 17.2499Z" fill="#B3B3B3"/>
<path d="M66.8253 21.1919L66.7743 21.3438C66.7714 21.3524 66.7675 21.3605 66.7627 21.3682L66.8137 21.2163C66.8181 21.2084 66.8219 21.2002 66.8253 21.1919Z" fill="#B9B9B9"/>
<path d="M66.8138 21.2163L66.7628 21.3682C66.5877 21.6605 64.9988 22.2346 64.9072 22.267L64.9583 22.1151C65.0487 22.0826 66.6387 21.5086 66.8138 21.2163Z" fill="#B6B6B6"/>
<path d="M80.7562 15.2563L80.7051 15.4083L48.8901 19.3247L48.94 19.1728L80.7562 15.2563Z" fill="#B3B3B3"/>
<path d="M49.3548 19.5613L49.3037 19.7132L47.6001 19.9115L47.65 19.7596L49.3548 19.5613Z" fill="#B3B3B3"/>
<path d="M37.5398 21.3275L37.4888 21.4783L38.042 18.4862L38.0918 18.3342L37.5398 21.3275Z" fill="#B3B3B3"/>
<path d="M47.3233 25.1963L47.2722 25.3482L46.9058 24.8217L46.9556 24.6709L47.3233 25.1963Z" fill="#B3B3B3"/>
<path d="M84.9506 18.4329L84.8996 18.5848C84.4357 18.6776 75.4976 20.4404 72.5113 20.4404C72.3048 20.4444 72.0983 20.43 71.8943 20.3974C71.5044 20.3434 71.1107 20.3216 70.7172 20.3325C66.5132 20.3325 53.4372 21.5699 41.2773 23.7131L41.3272 23.5612C53.4824 21.418 66.563 20.1806 70.7682 20.1806C71.1617 20.1697 71.5554 20.1914 71.9453 20.2455C72.1493 20.2787 72.3558 20.2931 72.5623 20.2884C75.5486 20.2884 84.4809 18.528 84.9506 18.4329Z" fill="#B6B6B6"/>
<path d="M41.3273 23.5588L41.2774 23.7108C37.6173 24.3556 34.3504 25.0445 34.1787 25.0804L34.2297 24.9285C34.4014 24.8925 37.6672 24.2036 41.3273 23.5588Z" fill="#B6B6B6"/>
<path d="M46.9555 24.6709L46.9057 24.8228C45.8874 25.0351 38.8385 26.3142 37.9966 26.4743L38.0476 26.3224C38.8884 26.1623 45.9338 24.8831 46.9555 24.6709Z" fill="#B6B6B6"/>
<path d="M38.0477 26.3225L37.9967 26.4744C37.3085 26.6098 36.6103 26.6874 35.9092 26.7064L35.9602 26.5545C36.6613 26.5354 37.3596 26.4578 38.0477 26.3225Z" fill="#B6B6B6"/>
<path d="M35.9621 26.5533L35.9111 26.7052C35.4843 26.6646 32.3797 25.7032 31.9912 25.6614L32.0422 25.5095C32.4308 25.5455 35.5354 26.5069 35.9621 26.5533Z" fill="#B6B6B6"/>
<path d="M64.9578 22.115L64.9068 22.2669C64.0846 22.5209 48.4571 27.3547 39.998 29.4573L40.0491 29.3053C48.507 27.2016 64.1344 22.369 64.9578 22.115Z" fill="#B6B6B6"/>
<path d="M32.0424 25.5154L31.9914 25.6673C31.4741 25.6673 29.273 26.2599 25.8506 27.0404L25.9005 26.8885C29.3228 26.108 31.5252 25.5142 32.047 25.5154" fill="#B6B6B6"/>
<path d="M15.543 30.1473L15.4932 30.2992L15.7019 26.878L15.7518 26.7261L15.543 30.1473Z" fill="#B3B3B3"/>
<path d="M25.8957 26.8884L25.8459 27.0404C22.3841 27.829 15.8327 30.1716 15.4883 30.2992L15.5381 30.1473C15.8861 30.0243 22.4339 27.677 25.8957 26.8884Z" fill="#B6B6B6"/>
<path d="M40.0445 29.3064L39.9934 29.4583C31.5355 31.5609 16.8196 37.3932 16.0449 37.6994L16.0948 37.5475C16.8695 37.2413 31.5854 31.4102 40.0445 29.3064Z" fill="#B6B6B6"/>
<path d="M148.571 11.5683L149.871 14.6474C148.557 14.6973 123.601 15.6506 117.469 15.8988C111.338 16.1469 86.2726 18.3214 84.9529 18.4363C84.4832 18.529 75.5509 20.2918 72.5646 20.2918C72.358 20.2965 72.1515 20.2821 71.9476 20.2489C71.5577 20.1948 71.164 20.1731 70.7705 20.184C66.5653 20.184 53.4904 21.4214 41.3295 23.5646C37.6693 24.2094 34.4035 24.8983 34.2319 24.9342L35.4624 25.5976C35.7451 25.7098 36.0396 25.7896 36.3403 25.8354C36.8111 25.8354 43.8252 23.9264 46.0183 23.473C48.0084 23.0613 63.2264 21.0689 66.2893 21.0689C66.6279 21.0689 66.8181 21.0932 66.8251 21.1477C66.9538 21.4005 65.06 22.0848 64.9602 22.1207C64.1368 22.3759 48.5094 27.2085 40.0514 29.3111C31.5935 31.4137 16.8765 37.246 16.1018 37.5522L8.00684 34.8964C8.12281 34.8013 10.3611 32.9874 17.8541 29.9721C25.3472 26.9568 31.1563 26.0476 31.4625 26C31.6642 26.0615 35.5111 27.2421 35.8428 27.2758C36.3368 27.2758 46.7733 25.3042 47.3241 25.1998L46.9577 24.6745C45.9406 24.8867 38.8906 26.1659 38.0497 26.3259C37.3616 26.4613 36.6633 26.5388 35.9622 26.5579C35.5354 26.5173 32.4308 25.5559 32.0423 25.5141C31.5251 25.5141 29.3227 26.1067 25.8957 26.8872C22.4339 27.6759 15.8826 30.0185 15.5381 30.1461L15.7469 26.7249C16.1029 26.6089 22.8711 24.453 26.9824 23.6249C31.0937 22.7969 37.2124 21.3994 37.536 21.3263L38.088 18.333C38.4858 18.2379 46.0496 16.4183 51.0283 15.6262C62.3647 13.8194 77.2012 13.4343 77.9817 13.4146C78.3551 13.4065 85.4434 13.2488 89.6509 13.2488C90.8107 13.2488 91.7315 13.2615 92.1699 13.294C94.6726 13.3033 100.323 11.7689 119.991 11.4384C125.468 11.3468 130.054 11.312 133.837 11.312C144.254 11.312 148.356 11.5556 148.571 11.5683ZM80.6955 15.9011L80.7558 15.2563L48.9396 19.1704L49.3548 19.5589L47.65 19.7572L47.9829 20.3289C48.4468 20.2826 57.2201 19.3954 63.6532 18.4989C70.0862 17.6024 79.1565 17.2649 79.6343 17.2475L79.7259 16.2571L80.6955 15.8988" fill="#EDEDED"/>
<path d="M16.0996 37.5474L16.0497 37.6993L7.95361 35.0435L8.00464 34.8916L16.0996 37.5474Z" fill="#B3B3B3"/>
<path d="M47.1188 23.6931L46.917 24.1988C46.8964 24.1221 46.9009 24.0408 46.9298 23.9668L47.1316 23.4612C47.102 23.535 47.0976 23.6165 47.1188 23.6931Z" fill="#676767"/>
<path d="M56.2271 24.0098L56.0253 24.5154C56.0182 24.5332 56.01 24.5507 56.001 24.5676L56.2028 24.062C56.2118 24.045 56.22 24.0276 56.2271 24.0098Z" fill="#6B6B6B"/>
<path d="M56.2029 24.062L56.0011 24.5677C55.9243 24.7027 55.8004 24.8047 55.6531 24.8541C55.1892 25.0292 49.4451 26.6076 49.1436 26.6911L49.3453 26.1855C49.6469 26.1031 55.3864 24.5236 55.8549 24.3485C56.0022 24.2991 56.1261 24.1971 56.2029 24.062Z" fill="#676767"/>
<path d="M49.3407 26.1854L49.1389 26.691C49.0589 26.691 48.7168 26.669 48.45 26.2271C48.3132 26.0021 46.9841 24.2834 46.9146 24.193L47.1187 23.6931C47.1882 23.7836 48.5103 25.5023 48.6542 25.7273C48.9197 26.1668 49.263 26.1912 49.343 26.1912" fill="#676767"/>
<path d="M55.0248 21.9768C55.2069 21.9768 55.4226 22.022 55.498 22.2215L56.2623 23.7593C56.2623 23.7802 56.3191 24.171 55.8506 24.3485C55.382 24.5259 49.6425 26.1031 49.341 26.1855C49.261 26.1855 48.9177 26.1634 48.6521 25.7216C48.5106 25.4989 47.1862 23.7802 47.1189 23.6932C47.1131 23.6735 47.003 23.2861 47.5828 23.1597C48.0259 23.0646 54.4055 22.0661 54.7407 22.0139C54.8337 21.9905 54.929 21.9781 55.0248 21.9768Z" fill="#B0B0B0"/>
<path d="M0.295911 43.2928L0.0941181 43.7984C0.0392663 43.6916 0.00760535 43.5744 0.00120982 43.4545C-0.0051857 43.3345 0.0138277 43.2146 0.0570057 43.1026L0.2588 42.5969C0.215477 42.7089 0.196384 42.8289 0.202781 42.9488C0.209178 43.0688 0.240918 43.186 0.295911 43.2928Z" fill="#676767"/>
<path d="M12.8581 39.041L12.6563 39.5455C12.6476 39.5687 12.6371 39.5912 12.625 39.6128L12.8268 39.1071C12.8384 39.0851 12.8488 39.0619 12.8581 39.041Z" fill="#6B6B6B"/>
<path d="M12.8268 39.1072L12.625 39.6128C12.5555 39.7338 12.461 39.8386 12.3478 39.9202C11.8979 40.2681 3.20449 45.139 2.74756 45.3987L2.94935 44.8931C3.40629 44.6368 12.0997 39.7578 12.5496 39.4145C12.6633 39.3335 12.7579 39.2286 12.8268 39.1072Z" fill="#676767"/>
<path d="M1.97649 44.9779L1.77469 45.4835L0.0942383 43.795L0.296032 43.2893L1.97649 44.9779Z" fill="#636363"/>
<path d="M2.94923 44.8931L2.74743 45.3987C2.73235 45.4115 2.43778 45.6527 2.13277 45.6527C2.06402 45.654 1.99589 45.6395 1.93372 45.6101C1.87155 45.5807 1.81702 45.5373 1.77441 45.4834L1.97621 44.9777C2.01857 45.0321 2.07302 45.0757 2.13523 45.1053C2.19744 45.1349 2.26569 45.1496 2.33457 45.1482C2.63958 45.1482 2.93299 44.9058 2.94923 44.8931Z" fill="#676767"/>
<path d="M7.10826 36.6463C7.2915 36.6463 7.56055 36.71 7.876 36.9814C8.1497 37.2134 12.5613 38.4148 12.7933 38.4775C12.8118 38.5018 13.1412 38.9657 12.5532 39.4145C12.1032 39.7625 3.40987 44.6333 2.95293 44.8931C2.93669 44.9059 2.64328 45.1483 2.33827 45.1483C2.2694 45.1497 2.20115 45.135 2.13894 45.1054C2.07673 45.0758 2.02228 45.0321 1.97991 44.9778L0.29598 43.2927C0.213764 43.1332 0.184505 42.9516 0.212449 42.7744C0.240393 42.5971 0.324087 42.4334 0.451386 42.3069C0.888606 41.843 6.54927 36.9571 6.84732 36.6996C6.92898 36.6618 7.01832 36.6436 7.10826 36.6463Z" fill="#B0B0B0"/>
<path d="M18.4737 26.1218L18.273 26.6263L17.9355 26.1485L18.1362 25.6428L18.4737 26.1218Z" fill="#636363"/>
<path d="M36.0587 22.0173L35.858 22.523C35.8499 22.5415 35.8418 22.5601 35.8325 22.5775L36.0343 22.0718C36.0436 22.0542 36.0517 22.036 36.0587 22.0173Z" fill="#6B6B6B"/>
<path d="M36.0345 22.0696L35.8327 22.5752C35.8094 22.6228 35.7757 22.6646 35.7342 22.6976C35.6927 22.7305 35.6443 22.7537 35.5926 22.7654C35.2389 22.8431 21.0577 26.1936 18.7463 26.7387C18.6808 26.757 18.6136 26.7683 18.5457 26.7723C18.5128 26.7716 18.4802 26.7654 18.4494 26.7537C18.3831 26.7218 18.323 26.6782 18.272 26.625L18.4738 26.1194C18.5242 26.1726 18.5839 26.2163 18.65 26.2481C18.6812 26.2597 18.7142 26.266 18.7475 26.2667C18.8154 26.2632 18.8827 26.252 18.9481 26.233C21.2583 25.6879 35.4407 22.3375 35.7944 22.2598C35.8463 22.2485 35.8949 22.2255 35.9365 22.1925C35.9781 22.1595 36.0116 22.1175 36.0345 22.0696Z" fill="#676767"/>
<path d="M36.1121 21.5269C36.1121 21.5593 36.1817 22.1763 35.7943 22.2621C35.4406 22.3398 21.2582 25.6903 18.948 26.2354C18.8827 26.2543 18.8154 26.2656 18.7474 26.269C18.7141 26.2683 18.6812 26.2621 18.65 26.2504C18.5839 26.2186 18.5242 26.175 18.4737 26.1217L18.1362 25.6427C20.6471 25.0258 24.3072 24.098 26.9421 23.5088C29.809 22.8675 33.9631 22.0093 36.1121 21.5269Z" fill="#B0B0B0"/>
<path d="M84.7875 14.1892L84.5869 14.6949C84.5797 14.7119 84.5715 14.7286 84.5625 14.7447L84.7643 14.2391C84.7729 14.2229 84.7807 14.2062 84.7875 14.1892Z" fill="#6B6B6B"/>
<path d="M84.7643 14.239L84.5625 14.7447C84.5333 14.8039 84.4885 14.8541 84.4329 14.8899C84.3774 14.9256 84.3131 14.9456 84.2471 14.9476L84.4489 14.442C84.5149 14.4398 84.5791 14.4198 84.6346 14.3841C84.6902 14.3483 84.735 14.2982 84.7643 14.239Z" fill="#676767"/>
<path d="M84.4486 14.4419L84.2468 14.9475C82.5466 15.1528 50.2306 19.06 50.1344 19.0739C49.4838 19.1736 39.2108 20.6476 38.6704 20.7253L38.8722 20.2197C39.4126 20.1431 49.6856 18.668 50.3362 18.5694C50.4324 18.5543 82.7473 14.6472 84.4486 14.4419Z" fill="#676767"/>
<path d="M38.8723 20.2198L38.6705 20.7255L38.4536 18.8189L38.6554 18.3132L38.8723 20.2198Z" fill="#636363"/>
<path d="M84.2935 13.1477C84.3422 13.1477 84.7887 13.1639 84.8339 13.7948C84.8792 14.4257 84.4698 14.442 84.4489 14.442C82.7476 14.6472 50.4327 18.5544 50.3365 18.5695C49.6859 18.668 39.4129 20.1432 38.8725 20.2198L38.6533 18.3132C39.1972 18.1972 49.5142 15.9833 50.0187 15.9635C50.2704 15.9531 57.2091 14.8212 64.7879 14.1973C74.067 13.4318 83.782 13.1616 84.2935 13.1477Z" fill="#B0B0B0"/>
<path d="M142.315 14.623L142.113 15.1275C133.86 15.4441 121.378 15.9231 117.395 16.0843C112.611 16.2768 95.5019 17.7079 88.2188 18.3307L88.4205 17.8251C95.7037 17.2058 112.813 15.7712 117.596 15.5787C121.58 15.4175 134.064 14.9385 142.315 14.623Z" fill="#676767"/>
<path d="M138.39 14.1128C139.318 14.1128 140.211 14.1209 141.058 14.1383C142.354 14.1638 142.315 14.6022 142.312 14.6231C134.059 14.9385 121.578 15.4175 117.594 15.5787C112.811 15.7712 95.7016 17.2023 88.4185 17.8251L89.0517 16.9994C90.6428 16.8509 120.828 14.1128 138.39 14.1128Z" fill="#B0B0B0"/>
<path d="M104.445 13.998L104.243 14.5025L103.868 12.459L104.069 11.9534L104.445 13.998Z" fill="#636363"/>
<path d="M136.773 13.0737L136.571 13.5794C135.136 13.6385 107.853 14.782 105.319 14.782C105.265 14.7847 105.211 14.7847 105.158 14.782C104.328 14.6997 104.247 14.5176 104.243 14.5083L104.444 14.0027C104.444 14.012 104.53 14.194 105.359 14.2775C105.385 14.2775 105.44 14.2775 105.521 14.2775C108.055 14.2775 135.337 13.1352 136.773 13.0749" fill="#676767"/>
<path d="M133.927 11.1497C134.998 11.1497 136.003 11.152 136.943 11.1566L136.767 13.0737C135.332 13.134 108.049 14.2763 105.515 14.2763C105.434 14.2763 105.379 14.2763 105.354 14.2763C104.525 14.1928 104.443 14.0107 104.439 14.0014L104.063 11.9568C107.976 11.6623 113.169 11.3944 120.108 11.2784C125.575 11.1833 130.156 11.1497 133.927 11.1497Z" fill="#B0B0B0"/>
<path d="M33.5738 30.0579L33.372 30.5635C33.3279 30.6725 33.2816 30.7757 33.234 30.8708L33.2271 30.8836L33.4288 30.3779C33.4313 30.3739 33.4332 30.3696 33.4346 30.3652C33.4834 30.2701 33.5297 30.1669 33.5738 30.0579Z" fill="#6B6B6B"/>
<path d="M33.4344 30.3779L33.2268 30.8836C33.0865 31.1468 32.7397 31.3312 32.7212 31.3475L32.923 30.8418C32.9415 30.8314 33.2871 30.647 33.4286 30.3837" fill="#676767"/>
<path d="M32.9228 30.8359L32.721 31.3474C32.6143 31.3775 30.5709 31.9609 27.9267 32.9107C25.2825 33.8605 18.6337 36.1 17.9043 36.3957C16.9081 36.8005 16.4071 36.9118 15.8701 36.9118C15.6382 36.9118 15.4004 36.8909 15.1128 36.8642L15.3146 36.3586C15.6022 36.3853 15.8399 36.4061 16.0719 36.4061C16.6089 36.4061 17.1099 36.2902 18.1061 35.8912C18.8355 35.5943 25.4843 33.3549 28.1285 32.4051C30.7727 31.4552 32.815 30.8719 32.9228 30.8417" fill="#676767"/>
<path d="M15.3143 36.3528L15.1125 36.8573L10.4121 35.4099L10.6139 34.9043L15.3143 36.3528Z" fill="#636363"/>
<path d="M10.613 34.9043L10.4123 35.4064C10.3752 35.3937 9.86959 35.2267 10.0006 34.8985L10.2013 34.3928C10.0714 34.721 10.577 34.8892 10.613 34.9008" fill="#676767"/>
<path d="M29.0273 27.126C29.5944 27.126 33.3577 27.4472 33.7822 27.8462C34.1035 28.15 33.8518 29.5498 33.4343 30.3651C33.2974 30.6365 32.9414 30.829 32.9228 30.836C32.815 30.8661 30.7727 31.4506 28.1285 32.3993C25.4843 33.3479 18.8356 35.5886 18.1061 35.8854C17.1099 36.289 16.6089 36.4004 16.0719 36.4004C15.84 36.4004 15.6022 36.3795 15.3146 36.3528L10.613 34.9043C10.5632 34.8881 9.61103 34.5715 10.7 33.9452C11.1709 33.675 16.7735 31.1085 17.0693 30.9728C22.2846 28.68 28.5553 27.1341 29.0273 27.126Z" fill="#B0B0B0"/>
<path d="M61.5091 18.7388L61.3073 19.2445L61.1855 18.9209L61.3873 18.4153L61.5091 18.7388Z" fill="#636363"/>
<path d="M61.6215 18.8826L61.4197 19.3882C61.3721 19.3482 61.3327 19.2994 61.3037 19.2444L61.5055 18.7388C61.5345 18.7938 61.5739 18.8426 61.6215 18.8826Z" fill="#676767"/>
<path d="M76.284 17.6208L76.0834 18.1265C76.0718 18.1555 76.0579 18.1845 76.0439 18.2123L76.2457 17.7067C76.2601 17.6788 76.2729 17.6502 76.284 17.6208Z" fill="#6B6B6B"/>
<path d="M76.246 17.7068L76.0442 18.2124C76.0209 18.2709 75.9821 18.322 75.9321 18.3601C75.882 18.3983 75.8226 18.4222 75.76 18.4293C75.4643 18.4421 63.5979 19.3084 61.6588 19.4232H61.5695C61.5167 19.4286 61.4637 19.415 61.4199 19.3849L61.6217 18.8793C61.6655 18.9094 61.7185 18.9229 61.7713 18.9175H61.8606C63.7997 18.8016 75.6615 17.9364 75.9618 17.9237C76.0244 17.9166 76.0838 17.8927 76.1339 17.8545C76.1839 17.8163 76.2227 17.7653 76.246 17.7068Z" fill="#676767"/>
<path d="M68.8061 17.6058C71.2021 17.5536 74.5688 17.404 76.3676 17.3193C76.3676 17.3495 76.2898 17.9096 75.9663 17.9236C75.6706 17.9363 63.8042 18.8038 61.8651 18.9174H61.7758C61.723 18.9228 61.6699 18.9093 61.6262 18.8792C61.5786 18.8392 61.5392 18.7904 61.5102 18.7354L61.3838 18.4153C63.4713 18.1509 66.6455 17.6533 68.8061 17.6058Z" fill="#B0B0B0"/>
<path d="M85.3754 18.0359L85.1736 18.5415L80.1763 19.4844L80.3781 18.9788L85.3754 18.0359Z" fill="#636363"/>
<path d="M80.3781 18.9787L80.1763 19.4844L80.2134 18.6714L80.4152 18.1658L80.3781 18.9787Z" fill="#636363"/>
<path d="M85.3242 17.3645L85.3752 18.036L80.3779 18.9789L80.415 18.1659L85.3242 17.3645Z" fill="#B0B0B0"/>
<path d="M134.152 1.46704L134.051 1.77089C134.043 1.79713 134.031 1.82239 134.018 1.84627L134.118 1.54242C134.132 1.51865 134.144 1.49336 134.152 1.46704Z" fill="#8A8A8A"/>
<path d="M134.119 1.54248L134.018 1.84633C133.627 2.54797 131.262 2.54217 131.129 2.54217L131.23 2.23948C131.363 2.23948 133.728 2.24528 134.119 1.54364" fill="#858585"/>
<path d="M126.978 1.14583L126.877 1.44852L126.775 1.20497L126.877 0.901123L126.978 1.14583Z" fill="#808080"/>
<path d="M131.23 2.23828L131.129 2.54097C129.98 2.592 108.135 3.55922 98.1694 4.44178L98.2703 4.13793C108.236 3.25653 130.081 2.28931 131.23 2.23828Z" fill="#858585"/>
<path d="M126.877 0.901123L126.775 1.20497C126.533 1.20497 113.27 1.46823 104.006 2.10377C94.7099 2.74046 87.9069 3.49545 87.8408 3.50473L87.9429 3.20087C88.0078 3.19392 94.812 2.43661 104.107 1.79992C113.371 1.16438 126.635 0.901123 126.877 0.901123Z" fill="#858585"/>
<path d="M98.27 4.13794L98.1692 4.44179C88.1954 5.32319 85.0178 5.38465 84.8496 5.38813L84.9505 5.08428C85.1187 5.08428 88.3021 5.01934 98.27 4.13794Z" fill="#858585"/>
<path d="M84.9508 5.08423L84.8499 5.38808C83.9082 5.55276 66.0205 8.68984 62.8648 9.15026C60.9803 9.42627 51.3835 10.5756 43.0508 11.7713L43.1517 11.4674C51.4867 10.2717 61.0812 9.12242 62.9657 8.84756C66.1214 8.38367 84.0091 5.25239 84.9508 5.08423Z" fill="#858585"/>
<path d="M54.1262 11.3132L54.0253 11.6171C54.0253 11.6275 54.0161 11.6391 54.0103 11.6507L54.1112 11.3469C54.1169 11.3353 54.1216 11.3248 54.1262 11.3132Z" fill="#8A8A8A"/>
<path d="M54.1111 11.3469L54.0102 11.6508C53.9233 11.7684 53.8016 11.8556 53.6623 11.9001C53.152 12.1205 49.0628 13.2037 44.4795 14.5002L44.5804 14.1964C49.1648 12.8998 53.2529 11.8166 53.7632 11.5974C53.9029 11.5531 54.0248 11.4654 54.1111 11.3469Z" fill="#858585"/>
<path d="M43.1516 11.4674L43.0507 11.7713C39.6967 12.2525 33.7879 13.759 33.4771 13.8356L33.5779 13.5317C33.8888 13.4529 39.7976 11.9475 43.1516 11.4651" fill="#858585"/>
<path d="M28.8543 14.9525L28.7534 15.2552L28.9123 14.6915L29.0132 14.3877L28.8543 14.9525Z" fill="#808080"/>
<path d="M29.0132 14.3888L28.9123 14.6915C28.7662 14.7135 25.9886 15.1194 23.9997 15.1194C22.9559 15.1194 22.1661 15.0035 22.1998 14.6393C22.2013 14.6236 22.2044 14.608 22.209 14.5929L22.3099 14.2891C22.3052 14.3045 22.3021 14.3205 22.3007 14.3366C22.267 14.6973 23.0545 14.8156 24.1006 14.8156C26.0895 14.8156 28.8671 14.4097 29.0132 14.3888Z" fill="#858585"/>
<path d="M43.5238 14.4966L43.4229 14.8004C43.1086 14.8886 42.7955 14.979 42.4812 15.0695C40.3287 15.6911 38.167 16.3371 36.2963 16.9436C32.8043 18.0802 27.2144 19.5426 22.79 20.6548L22.8909 20.3521C27.3153 19.2411 32.9052 17.7798 36.3972 16.6409C38.2678 16.0332 40.4296 15.3884 42.5821 14.7668C42.8963 14.6763 43.2095 14.5847 43.5238 14.4966Z" fill="#858585"/>
<path d="M22.8957 20.3486L22.7948 20.6525L19.0581 20.7812L19.159 20.4774L22.8957 20.3486Z" fill="#808080"/>
<path d="M48.3285 26.3282L48.2276 26.6321C48.117 26.6575 48.0036 26.6684 47.8901 26.6646C45.188 26.6646 31.0253 23.0775 24.9657 22.5104C23.3049 22.355 21.5178 22.3098 20.0078 22.3098L20.1099 22.0071C21.6175 22.0071 23.4058 22.0512 25.0666 22.2066C31.1273 22.7737 45.2889 26.3607 47.991 26.3607C48.1045 26.3644 48.218 26.3531 48.3285 26.3271" fill="#858585"/>
<path d="M44.5838 14.1963L44.4829 14.5001C34.4454 15.6761 15.5846 20.7731 14.7334 21.0109L14.8343 20.707C15.6855 20.4751 34.5498 15.3723 44.5838 14.1963Z" fill="#858585"/>
<path d="M20.1098 22.0071L20.0078 22.3098C17.9504 22.3098 16.4868 22.3898 16.4126 22.3933L16.5135 22.0906C16.5912 22.0906 18.0548 22.0071 20.1087 22.0071" fill="#858585"/>
<path d="M12.9718 21.7057L12.8709 22.0095C12.2435 21.6616 12.0939 21.3427 12.1843 21.0725L12.2852 20.7698C12.1959 21.0388 12.3444 21.3496 12.9718 21.7057Z" fill="#858585"/>
<path d="M132.678 0.705147C132.755 0.712105 134.222 0.836197 134.172 1.37431C134.091 2.24527 131.372 2.23831 131.23 2.23831C130.081 2.28934 108.236 3.25656 98.2702 4.13796C88.3046 5.01936 85.1188 5.08082 84.9506 5.0843C84.0089 5.25362 66.1212 8.3849 62.9655 8.8488C61.081 9.12365 51.4842 10.273 43.1515 11.4686C39.7975 11.9511 33.8887 13.4564 33.5779 13.5353L33.5443 13.8832C33.7576 13.8577 37.7958 13.3729 42.7815 12.4788C47.7672 11.5846 53.3258 10.9572 53.6181 10.9236C54.1829 11.0465 54.3592 11.3445 53.7665 11.6008C53.2563 11.82 49.1682 12.9032 44.5838 14.1998C34.5474 15.3723 15.6901 20.4705 14.8343 20.7071C15.8606 20.7222 33.5501 15.668 43.5238 14.4967C43.2095 14.5848 42.8963 14.6765 42.5821 14.7669C40.4296 15.3885 38.2678 16.0333 36.3972 16.6411C32.9052 17.7776 27.3153 19.2389 22.8909 20.3522L19.1543 20.4798C20.2154 20.5169 24.1817 20.5957 25.2034 20.6874C31.2607 21.2579 44.15 24.7372 46.7455 24.7372C46.8586 24.7411 46.9717 24.7298 47.0818 24.7035L48.3285 26.3271C48.218 26.3531 48.1045 26.3644 47.9911 26.3608C45.2889 26.3608 31.1274 22.7726 25.0666 22.2055C23.4059 22.05 21.6187 22.006 20.1099 22.006C18.0514 22.006 16.5878 22.0848 16.5147 22.0895C16.1296 22.1323 15.7424 22.1532 15.355 22.1521C14.5965 22.1521 13.6281 22.0686 12.9752 21.7044C11.0466 20.6282 13.6374 19.8697 13.7743 19.8303C14.1083 19.7329 20.4497 17.8889 23.4557 15.922L28.8566 14.9513L29.0167 14.3877C28.8705 14.4086 26.093 14.8145 24.104 14.8145C23.0603 14.8145 22.2705 14.6985 22.3041 14.3355C22.4015 13.2859 31.8406 10.4852 40.0075 8.8604C48.1743 7.23561 76.887 4.72015 78.3946 4.58678C78.6266 4.57982 82.9826 4.44065 88.6003 2.70337C93.172 1.29081 105.959 1.00204 114.004 0.69471C116.639 0.596132 119.55 0.5625 122.276 0.5625C123.956 0.5625 125.566 0.575256 126.994 0.592652C130.323 0.635563 132.56 0.701668 132.678 0.705147ZM126.978 1.14585L126.877 0.901142C126.635 0.901142 113.371 1.1644 104.107 1.79994C94.8118 2.43663 88.0077 3.19161 87.9427 3.20089L88.6084 3.3563C88.6734 3.34934 94.8385 2.73584 104.131 2.10031C113.39 1.46709 126.759 1.14585 126.978 1.14585Z" fill="#E1E1E1"/>
<path d="M16.51 22.0906L16.4091 22.3933C16.0242 22.4375 15.6369 22.4588 15.2494 22.4571C14.4909 22.4571 13.5226 22.3724 12.8696 22.0094L12.9705 21.7056C13.6235 22.0697 14.5942 22.1532 15.3503 22.1532C15.7378 22.1543 16.125 22.1334 16.51 22.0906Z" fill="#858585"/>
<g opacity="0.5">
<path d="M127.151 1.39526L127.05 1.69912C126.1 1.92178 120.823 3.80519 115.766 7.50938C110.572 11.3122 103.543 13.9981 103.344 14.0572L103.445 13.7534C103.644 13.6942 110.673 11.0083 115.867 7.20553C120.925 3.50134 126.202 1.61909 127.151 1.39526Z" fill="#858585"/>
<path d="M103.445 13.7532L103.344 14.0571L103.303 12.9565L103.404 12.6538L103.445 13.7532Z" fill="#808080"/>
<path d="M126.89 0.893066L127.151 1.39523C126.202 1.61906 120.926 3.50131 115.867 7.2055C110.674 11.0083 103.644 13.6942 103.445 13.7534L103.404 12.6539C103.452 12.6389 110.177 10.048 115.21 6.36237C120.422 2.54685 125.769 1.15749 126.89 0.893066Z" fill="#E1E1E1"/>
</g>
<path d="M127.052 0.556641L126.85 1.06228C124.824 1.57257 120.026 3.70416 115.569 6.96649C112.827 8.97399 109.538 10.666 107.261 11.7376L107.463 11.232C109.746 10.1616 113.029 8.46835 115.771 6.46201C120.228 3.19852 125.026 1.06692 127.052 0.556641Z" fill="#676767"/>
<path d="M106.974 11.115L106.772 11.6206C106.756 11.5921 106.748 11.56 106.748 11.5273C106.748 11.4946 106.756 11.4625 106.772 11.4339L106.974 10.9294C106.958 10.9578 106.95 10.9897 106.95 11.0222C106.95 11.0547 106.958 11.0867 106.974 11.115Z" fill="#676767"/>
<path d="M107.462 11.2321L107.261 11.7378C107.209 11.7574 107.155 11.7673 107.099 11.7668C107.038 11.767 106.977 11.7541 106.92 11.7289C106.864 11.7037 106.813 11.6668 106.772 11.6206L106.974 11.115C107.015 11.161 107.065 11.1979 107.121 11.223C107.178 11.2482 107.239 11.2612 107.3 11.2611C107.356 11.2617 107.411 11.2519 107.462 11.2321Z" fill="#676767"/>
<path d="M126.694 0L127.052 0.556673C125.026 1.06696 120.228 3.19855 115.771 6.46204C113.029 8.46838 109.74 10.1616 107.463 11.232C107.411 11.2518 107.356 11.2616 107.3 11.261C107.239 11.2611 107.178 11.2481 107.122 11.223C107.065 11.1978 107.015 11.1609 106.974 11.1149C106.917 11.0511 106.943 10.8041 107.312 10.5803C109.622 9.50634 112.954 7.79689 115.778 5.72561C120.574 2.21973 125.11 0.397789 126.694 0Z" fill="#B0B0B0"/>
<path d="M47.9469 25.7275L47.7451 26.2332L47.9469 25.7275Z" fill="#676767"/>
<path d="M47.9469 25.7275L47.7451 26.232L47.9469 25.7275Z" fill="#6F6F6F"/>
<path d="M47.9469 25.7275L47.7451 26.232L47.9469 25.7275Z" fill="#6B6B6B"/>
<path d="M47.9469 25.7275L47.7451 26.232L47.9469 25.7275Z" fill="#676767"/>
<path d="M19.9185 19.1089L19.7167 19.6145L14.6997 20.9726L14.9015 20.4681L19.9185 19.1089Z" fill="#636363"/>
<path d="M14.9016 20.4683L14.6998 20.9739C14.5765 21.0326 14.4691 21.1201 14.3867 21.229L14.5874 20.7234C14.6701 20.6143 14.7779 20.5268 14.9016 20.4683Z" fill="#676767"/>
<path d="M14.5872 20.7234L14.3866 21.229C14.382 21.2364 14.3782 21.2442 14.375 21.2522L14.5768 20.7466C14.5798 20.7386 14.5833 20.7309 14.5872 20.7234Z" fill="#6B6B6B"/>
<path d="M47.946 25.7252L47.7442 26.2309C47.2977 26.2309 42.1879 25.2416 38.1311 24.4054C33.1582 23.3802 27.9382 22.4536 24.9473 22.1753C23.2773 22.0199 21.4681 21.9746 19.95 21.9746C17.9088 21.9746 16.3734 22.0547 16.3467 22.057L16.5485 21.5513C16.5751 21.5513 18.1106 21.469 20.1518 21.469C21.6745 21.469 23.479 21.5142 25.1479 21.6696C28.14 21.9491 33.36 22.8758 38.3329 23.901C42.392 24.736 47.4948 25.7264 47.946 25.7252Z" fill="#676767"/>
<path d="M16.5484 21.5513L16.3466 22.057C15.9657 22.0986 15.5828 22.1195 15.1996 22.1196C14.9549 22.1196 14.6893 22.1115 14.4214 22.086C13.8079 22.0291 13.3232 21.9027 12.981 21.7125C12.6389 21.5223 12.4325 21.3205 12.4476 21.1837C12.4499 21.1645 12.4549 21.1457 12.4626 21.128L12.6633 20.6235C12.6564 20.6411 12.6518 20.6594 12.6493 20.678C12.6343 20.8149 12.8326 21.0144 13.1828 21.2069C13.5331 21.3994 14.0097 21.5235 14.6232 21.5803C14.8911 21.6058 15.1567 21.6151 15.4014 21.6151C15.7846 21.6156 16.1676 21.5943 16.5484 21.5513Z" fill="#676767"/>
<path d="M47.0678 24.6003C47.113 24.6003 47.904 25.6707 47.9457 25.7252C47.4992 25.7252 42.3894 24.736 38.3327 23.901C33.3597 22.8816 28.1398 21.9538 25.1477 21.6696C23.4788 21.5142 21.6743 21.469 20.1515 21.469C18.1104 21.469 16.5749 21.5502 16.5482 21.5513C16.1674 21.5944 15.7845 21.6156 15.4013 21.6151C15.1566 21.6151 14.891 21.6058 14.6231 21.5803C14.0096 21.5235 13.5248 21.3983 13.1827 21.2069C12.8406 21.0155 12.6341 20.8149 12.6492 20.6781C12.6805 20.3951 13.4054 20.0367 13.9156 19.8871C13.9412 19.8802 16.4868 19.1368 19.1136 18.1208L19.9184 19.1089L14.9014 20.4681C14.8608 20.489 14.0989 20.881 15.0174 21.0561C15.2574 21.025 15.499 21.0076 15.7411 21.0039L19.2342 20.5401C19.5218 20.5493 19.9996 20.5621 20.5679 20.5772C22.1324 20.6166 24.4982 20.6769 25.237 20.7453C28.2987 21.0318 33.616 22.0373 38.306 22.9268C42.2479 23.676 45.2632 24.431 47.0678 24.6003Z" fill="#B0B0B0"/>
<path d="M33.6868 13.5225L33.5859 13.8263L28.9087 14.7054L29.0096 14.4027L33.6868 13.5225Z" fill="#808080"/>
<path d="M29.0095 14.4028L28.9086 14.7055L28.9028 14.6776L29.0037 14.3738L29.0095 14.4028Z" fill="#808080"/>
<path d="M33.6823 13.4946L33.6869 13.5225L29.0097 14.4027L29.0039 14.3737L33.6823 13.4946Z" fill="#E1E1E1"/>
<path d="M43.1793 11.4549L43.0784 11.7587L42.3501 10.9272L42.451 10.6245L43.1793 11.4549Z" fill="#808080"/>
<path d="M42.4501 10.6245L42.3492 10.9284C42.1695 10.9527 39.0602 11.3923 36.8428 11.826C34.5686 12.2725 31.0592 13.2177 31.0244 13.2258L31.1253 12.9219C31.1601 12.9127 34.6695 11.9686 36.9437 11.5233C39.1611 11.0872 42.2704 10.65 42.4501 10.6245Z" fill="#858585"/>
<path d="M31.1252 12.9219L31.0243 13.2246L27.4326 14.8725L27.5335 14.5699L31.1252 12.9219Z" fill="#808080"/>
<path d="M42.4549 10.5942L43.1797 11.4548L42.4503 10.6244C42.2705 10.6499 39.1612 11.0883 36.9438 11.5232C34.6696 11.9685 31.1602 12.9149 31.1254 12.9218L27.5303 14.5698L31.115 12.8952C31.1533 12.8847 34.6638 11.9407 36.938 11.4954C39.2123 11.05 42.4224 10.5989 42.4549 10.5942Z" fill="#E1E1E1"/>
<path d="M79.9004 5.46924L79.6986 5.97488C73.9753 6.9711 64.6499 8.58313 62.5264 8.89277C61.8932 8.98439 60.4041 9.17343 58.3421 9.43553C54.595 9.91102 48.9633 10.6254 43.7144 11.3665L43.9161 10.8608C49.1651 10.1244 54.7968 9.40538 58.5439 8.92989C60.6059 8.66779 62.095 8.47875 62.7282 8.38713C64.8517 8.07748 74.1759 6.46545 79.9004 5.46924Z" fill="#676767"/>
<path d="M43.9162 10.8607L43.7144 11.3663C43.6758 11.3067 43.6289 11.2528 43.5752 11.2063C43.0893 10.7772 42.6474 10.565 42.1569 10.5186C42.0827 10.5116 42.0084 10.5093 41.9342 10.5093C41.6169 10.519 41.3008 10.5539 40.989 10.6137C40.8325 10.638 40.6643 10.6659 40.4822 10.6902C39.4385 10.8329 36.778 11.2202 34.6836 11.7525C34.2614 11.8592 33.8648 11.9532 33.4809 12.0436C31.4966 12.5075 29.7802 12.9169 26.8345 14.6391L27.0351 14.1346C29.982 12.4113 31.6984 12.0065 33.6827 11.538C34.0666 11.4475 34.4632 11.3536 34.8853 11.2469C36.9845 10.7157 39.6403 10.3272 40.684 10.1846C40.8661 10.1602 41.0319 10.1336 41.1908 10.108C41.5016 10.05 41.8165 10.0167 42.1325 10.0083C42.2079 10.0083 42.2821 10.0083 42.3564 10.0176C42.8504 10.064 43.2841 10.2762 43.7747 10.7053C43.8284 10.7518 43.8753 10.8057 43.9139 10.8653" fill="#676767"/>
<path d="M27.0302 14.1348L26.8296 14.6393C25.8879 14.7413 24.7015 14.8434 23.7424 14.8434C23.4467 14.8434 23.173 14.8341 22.9306 14.8109C22.5154 14.7726 22.338 14.7065 22.2695 14.6682L22.4713 14.1638C22.5397 14.2009 22.7172 14.267 23.1324 14.3064C23.3713 14.3284 23.645 14.3377 23.9442 14.3377C24.9021 14.3377 26.0897 14.2357 27.0302 14.1348Z" fill="#676767"/>
<path d="M78.78 4.70264C79.0317 4.84528 79.2926 5.0146 79.5582 5.20248C79.6764 5.28536 79.7902 5.37439 79.8991 5.46922C74.1759 6.46543 64.8516 8.07746 62.7281 8.38479C62.0949 8.47641 60.6058 8.66545 58.5438 8.92755C54.7967 9.40304 49.165 10.1174 43.9161 10.8585C43.8775 10.7989 43.8306 10.745 43.7769 10.6985C43.291 10.2694 42.8491 10.0571 42.3586 10.0107C42.2843 10.0049 42.2101 10.0015 42.1347 10.0015C41.8178 10.0113 41.5021 10.0462 41.1907 10.1058C41.0341 10.1314 40.866 10.158 40.6839 10.1824C39.6401 10.325 36.9797 10.7135 34.8852 11.2447C34.4631 11.3514 34.0665 11.4453 33.6826 11.5358C31.6983 11.9997 29.9819 12.4091 27.035 14.1324C26.0944 14.2333 24.9069 14.3354 23.9489 14.3354C23.6532 14.3354 23.3795 14.3261 23.1371 14.3041C22.7219 14.2646 22.5445 14.1985 22.4761 14.1614C22.708 13.8703 24.1438 13.1072 28.2747 11.8617C31.7099 10.826 36.0519 9.75212 39.8918 8.99017C47.894 7.40134 77.5669 4.78962 78.2106 4.73279C78.2523 4.73395 78.4506 4.72583 78.78 4.70264Z" fill="#B0B0B0"/>
<path d="M43.8846 13.6907L43.6828 14.1963C41.8713 14.5245 34.2994 15.915 29.8901 17.018L20.3188 19.4105L20.5206 18.9048L30.0919 16.5123C34.4989 15.4094 42.0731 14.0189 43.8846 13.6907Z" fill="#676767"/>
<path d="M20.5207 18.9048L20.3189 19.4105L19.5396 18.5244L19.7413 18.0188L20.5207 18.9048Z" fill="#636363"/>
<path d="M43.1458 12.7466C43.1696 12.801 43.2044 12.8499 43.2479 12.8904C43.489 13.1328 43.7025 13.4012 43.8846 13.6906C42.073 14.0188 34.5011 15.4093 30.0918 16.5122L20.5206 18.9048L19.7412 18.0187C19.8282 17.9793 21.497 17.2324 22.1268 16.9657L24.1853 15.9614L43.1458 12.7466Z" fill="#B0B0B0"/>
<path d="M52.4645 11.4697L52.2627 11.98V11.9893L52.4645 11.4836C52.4647 11.4806 52.4647 11.4775 52.4645 11.4744" fill="#6B6B6B"/>
<path d="M52.4597 11.4788L52.2579 11.9798C52.2178 12.0306 52.1656 12.0706 52.1059 12.0957C51.6061 12.3474 46.9799 13.441 44.9956 13.9026L45.1974 13.397C47.1817 12.9331 51.8079 11.8418 52.3077 11.5901C52.3674 11.5649 52.4196 11.525 52.4597 11.4741" fill="#676767"/>
<path d="M45.1972 13.3972L44.9954 13.9029C44.811 13.5944 44.6289 13.2847 44.4155 12.9925L44.6173 12.4868C44.8261 12.7791 45.0082 13.0887 45.1972 13.3972Z" fill="#676767"/>
<path d="M51.7078 11.3201C52.094 11.3201 52.7794 11.3514 52.3074 11.5903C51.8075 11.842 47.1814 12.9356 45.1971 13.3972C45.0127 13.0887 44.8306 12.779 44.6172 12.4868L51.4701 11.327C51.4701 11.327 51.5733 11.3201 51.7078 11.3201Z" fill="#B0B0B0"/>
<path d="M134.167 1.45312L134.066 1.75697C134.058 1.78321 134.047 1.80847 134.033 1.83236L134.134 1.52851C134.148 1.50473 134.159 1.47944 134.167 1.45312Z" fill="#8A8A8A"/>
<path d="M134.134 1.52856L134.033 1.83241C133.642 2.53405 131.277 2.52825 131.144 2.52825L131.245 2.22557C131.378 2.22557 133.743 2.23136 134.134 1.52973" fill="#858585"/>
<path d="M131.245 2.22437L131.144 2.52705C129.994 2.57808 108.15 3.5453 98.1841 4.42786L98.285 4.12401C108.251 3.24261 130.095 2.27539 131.245 2.22437Z" fill="#858585"/>
<path d="M98.2852 4.12402L98.1843 4.42787C88.2106 5.30927 85.0329 5.37074 84.8647 5.37422L84.9656 5.07037C85.1338 5.07037 88.3173 5.00542 98.2852 4.12402Z" fill="#858585"/>
<path d="M84.9658 5.07028L134.187 1.35913C134.106 2.23009 131.388 2.22313 131.245 2.22313C130.096 2.27416 108.251 3.24138 98.2854 4.12278C88.3198 5.00417 85.134 5.0668 84.9658 5.07028Z" fill="#E1E1E1"/>
<path d="M133.93 1.03003L133.729 1.53567L133.72 1.55423L133.922 1.04859C133.925 1.04273 133.928 1.0365 133.93 1.03003Z" fill="#6B6B6B"/>
<path d="M133.921 1.04858L133.72 1.55423C133.561 1.84184 132.384 2.08886 131.114 2.08886L131.314 1.58322C132.59 1.58322 133.763 1.3362 133.921 1.04858Z" fill="#676767"/>
<path d="M127.77 1.13895L127.57 1.64459L127.276 1.05429L127.478 0.549805L127.77 1.13895Z" fill="#636363"/>
<path d="M127.782 1.37898L127.58 1.88346C127.595 1.84508 127.602 1.80394 127.6 1.76277C127.598 1.7216 127.587 1.68131 127.568 1.64456L127.77 1.13892C127.789 1.17587 127.8 1.21635 127.802 1.25771C127.804 1.29908 127.797 1.3404 127.782 1.37898Z" fill="#676767"/>
<path d="M131.316 1.58301L131.115 2.08865C130.861 2.09909 107.92 3.12197 98.137 3.98482C92.8439 4.44871 89.432 4.68761 87.5161 4.80243L87.7167 4.29678C89.6326 4.18081 93.0515 3.94887 98.3388 3.47917C108.12 2.61633 131.063 1.59345 131.316 1.58301Z" fill="#676767"/>
<path d="M87.7155 4.297L87.5149 4.80264C87.4743 4.80264 87.436 4.80264 87.3989 4.79568L87.5996 4.29004C87.6355 4.29004 87.6726 4.29584 87.7155 4.297Z" fill="#676767"/>
<path d="M87.6017 4.28988L87.4011 4.79553C87.2364 4.78045 87.0218 4.73522 86.9279 4.60417C86.8738 4.51096 86.8572 4.40067 86.8815 4.29568L87.0833 3.79004C87.0603 3.89356 87.0768 4.00196 87.1297 4.09389C87.2236 4.22494 87.4382 4.27017 87.6017 4.28524" fill="#676767"/>
<path d="M127.478 0.549805C130.57 0.591555 132.728 0.65418 132.735 0.65418C133.454 0.722604 133.903 0.91976 133.939 0.993983C133.911 1.30363 132.663 1.58313 131.315 1.58313C131.062 1.59357 108.12 2.61645 98.3376 3.47929C93.0446 3.94319 89.6315 4.18209 87.7156 4.2969C87.675 4.2969 87.6379 4.29691 87.5996 4.28995C87.4361 4.27487 87.2215 4.22964 87.1276 4.09859C87.0735 4.00538 87.057 3.89509 87.0812 3.7901C87.2644 3.5338 89.0528 3.15457 91.6192 3.01656L92.3974 2.94234C94.3574 2.75562 96.2095 2.57934 104.415 2.01455C110.292 1.61212 117.922 1.5379 122.764 1.5379C125.568 1.5379 127.439 1.56341 127.489 1.56457C127.541 1.56514 127.592 1.55272 127.638 1.52842C127.685 1.50413 127.724 1.46872 127.753 1.4254C127.781 1.38254 127.797 1.33302 127.8 1.28189C127.803 1.23076 127.792 1.17984 127.768 1.13431L127.478 0.549805Z" fill="#B0B0B0"/>
</g>
<circle cx="32.1818" cy="16.1818" r="3.18182" fill="white" stroke="#62DAF8" stroke-width="2"/>
<defs>
<clipPath id="clip0_346_133072">
<rect width="150" height="45.6529" fill="white"/>
</clipPath>
</defs>
</svg>
