<svg width="150" height="46" viewBox="0 0 150 46" fill="none" xmlns="http://www.w3.org/2000/svg">
<g clip-path="url(#clip0_346_154076)">
<path d="M6.4541 34.9115L16.3269 38.2388C16.3269 38.2388 31.785 32.3705 45.8236 28.5643C59.8622 24.758 68.9858 21.5943 68.9858 21.5943L85.4366 18.7993C85.4366 18.7993 111.792 16.7767 117.793 16.2931C123.795 15.8095 149.975 15.0766 149.975 15.0766L148.729 11.3144C148.729 11.3144 122.767 10.4469 106.178 11.4976C95.5878 12.1691 92.678 12.8963 92.678 12.8963C92.678 12.8963 72.5056 13.0447 58.1005 14.6208C43.6955 16.1969 37.528 18.4421 37.528 18.4421L35.7536 20.6271L36.0644 21.1919C36.0644 21.1919 21.4205 24.2292 15.5893 26.2587C15.58 26.4211 15.3667 30.3108 15.3667 30.3108C15.3667 30.3108 8.09165 33.6022 6.4541 34.9115Z" fill="white" stroke="#E1E1E1" stroke-width="0.5" stroke-linecap="round" stroke-linejoin="round"/>
<path d="M149.872 14.6476L149.821 14.7995C148.507 14.8494 123.552 15.8027 117.419 16.0509L117.47 15.8989C123.601 15.6508 148.558 14.6975 149.872 14.6476Z" fill="#B6B6B6"/>
<path d="M80.6964 15.9L80.6465 16.0519L80.7056 15.4083L80.7567 15.2563L80.6964 15.9Z" fill="#B3B3B3"/>
<path d="M117.468 15.8954L117.417 16.0473C111.284 16.2955 86.2202 18.47 84.9004 18.5848L84.9514 18.4329C86.27 18.3169 111.334 16.1436 117.468 15.8954Z" fill="#B6B6B6"/>
<path d="M79.6348 17.2499L79.585 17.4007L79.6766 16.4114L79.7265 16.2595L79.6348 17.2499Z" fill="#B3B3B3"/>
<path d="M66.8253 21.1919L66.7743 21.3438C66.7714 21.3524 66.7675 21.3605 66.7627 21.3682L66.8137 21.2163C66.8181 21.2084 66.8219 21.2002 66.8253 21.1919Z" fill="#B9B9B9"/>
<path d="M66.8138 21.2163L66.7628 21.3682C66.5877 21.6605 64.9988 22.2346 64.9072 22.267L64.9583 22.1151C65.0487 22.0826 66.6387 21.5086 66.8138 21.2163Z" fill="#B6B6B6"/>
<path d="M80.7566 15.2563L80.7056 15.4083L48.8906 19.3247L48.9405 19.1728L80.7566 15.2563Z" fill="#B3B3B3"/>
<path d="M49.3553 19.5613L49.3042 19.7132L47.6006 19.9115L47.6505 19.7596L49.3553 19.5613Z" fill="#B3B3B3"/>
<path d="M37.5403 21.3276L37.4893 21.4784L38.0424 18.4863L38.0923 18.3344L37.5403 21.3276Z" fill="#B3B3B3"/>
<path d="M47.3238 25.1965L47.2727 25.3484L46.9062 24.8219L46.9561 24.6711L47.3238 25.1965Z" fill="#B3B3B3"/>
<path d="M84.9516 18.4329L84.9006 18.5848C84.4367 18.6776 75.4986 20.4404 72.5123 20.4404C72.3058 20.4444 72.0993 20.43 71.8953 20.3974C71.5054 20.3434 71.1117 20.3216 70.7182 20.3325C66.5141 20.3325 53.4381 21.5699 41.2783 23.7131L41.3282 23.5612C53.4834 21.418 66.564 20.1806 70.7692 20.1806C71.1627 20.1697 71.5564 20.1914 71.9463 20.2455C72.1502 20.2787 72.3568 20.2931 72.5633 20.2884C75.5496 20.2884 84.4819 18.528 84.9516 18.4329Z" fill="#B6B6B6"/>
<path d="M41.3273 23.559L41.2774 23.7109C37.6173 24.3557 34.3504 25.0446 34.1787 25.0805L34.2297 24.9286C34.4014 24.8927 37.6672 24.2038 41.3273 23.559Z" fill="#B6B6B6"/>
<path d="M46.956 24.6711L46.9061 24.8231C45.8879 25.0353 38.839 26.3145 37.9971 26.4745L38.0481 26.3226C38.8889 26.1626 45.9343 24.8834 46.956 24.6711Z" fill="#B6B6B6"/>
<path d="M38.0477 26.3226L37.9967 26.4746C37.3085 26.6099 36.6103 26.6875 35.9092 26.7065L35.9602 26.5546C36.6613 26.5355 37.3596 26.458 38.0477 26.3226Z" fill="#B6B6B6"/>
<path d="M35.9631 26.5534L35.9121 26.7053C35.4853 26.6647 32.3807 25.7033 31.9922 25.6616L32.0432 25.5096C32.4317 25.5456 35.5363 26.507 35.9631 26.5534Z" fill="#B6B6B6"/>
<path d="M64.9588 22.1151L64.9078 22.267C64.0855 22.521 48.4581 27.3548 39.999 29.4574L40.0501 29.3055C48.508 27.2017 64.1354 22.3691 64.9588 22.1151Z" fill="#B6B6B6"/>
<path d="M32.0434 25.5154L31.9924 25.6673C31.4751 25.6673 29.2739 26.2599 25.8516 27.0404L25.9014 26.8885C29.3238 26.108 31.5261 25.5142 32.048 25.5154" fill="#B6B6B6"/>
<path d="M15.543 30.1474L15.4932 30.2993L15.7019 26.8781L15.7518 26.7262L15.543 30.1474Z" fill="#B3B3B3"/>
<path d="M25.8967 26.8885L25.8468 27.0405C22.385 27.8291 15.8337 30.1718 15.4893 30.2993L15.5391 30.1474C15.887 30.0245 22.4349 27.6772 25.8967 26.8885Z" fill="#B6B6B6"/>
<path d="M40.0454 29.3065L39.9944 29.4584C31.5365 31.561 16.8206 37.3933 16.0459 37.6995L16.0958 37.5476C16.8705 37.2414 31.5863 31.4103 40.0454 29.3065Z" fill="#B6B6B6"/>
<path d="M148.572 11.5684L149.872 14.6475C148.558 14.6974 123.602 15.6507 117.47 15.8989C111.339 16.1471 86.2736 18.3216 84.9538 18.4364C84.4841 18.5292 75.5519 20.292 72.5656 20.292C72.359 20.2966 72.1525 20.2823 71.9486 20.249C71.5587 20.195 71.165 20.1732 70.7715 20.1841C66.5663 20.1841 53.4914 21.4215 41.3304 23.5647C37.6703 24.2095 34.4045 24.8984 34.2329 24.9344L35.4634 25.5977C35.7461 25.7099 36.0406 25.7897 36.3413 25.8355C36.8121 25.8355 43.8262 23.9266 46.0193 23.4731C48.0094 23.0614 63.2274 21.069 66.2902 21.069C66.6289 21.069 66.8191 21.0933 66.826 21.1478C66.9548 21.4007 65.0609 22.0849 64.9612 22.1209C64.1378 22.376 48.5104 27.2086 40.0524 29.3112C31.5945 31.4138 16.8775 37.2461 16.1028 37.5523L8.00781 34.8965C8.12379 34.8014 10.3621 32.9876 17.8551 29.9723C25.3482 26.9569 31.1573 26.0477 31.4634 26.0002C31.6652 26.0616 35.5121 27.2422 35.8437 27.2759C36.3378 27.2759 46.7742 25.3043 47.3251 25.1999L46.9586 24.6746C45.9416 24.8868 38.8915 26.166 38.0507 26.3261C37.3626 26.4614 36.6643 26.539 35.9632 26.558C35.5364 26.5174 32.4318 25.556 32.0433 25.5142C31.5261 25.5142 29.3237 26.1069 25.8967 26.8874C22.4349 27.676 15.8836 30.0186 15.5391 30.1462L15.7479 26.725C16.1039 26.609 22.8721 24.4531 26.9834 23.625C31.0946 22.797 37.2134 21.3995 37.537 21.3264L38.089 18.3332C38.4868 18.2381 46.0506 16.4184 51.0293 15.6263C62.3657 13.8195 77.2022 13.4344 77.9827 13.4147C78.3561 13.4066 85.4444 13.2489 89.6519 13.2489C90.8117 13.2489 91.7325 13.2616 92.1709 13.2941C94.6736 13.3034 100.324 11.7691 119.992 11.4385C125.469 11.3469 130.055 11.3121 133.838 11.3121C144.255 11.3121 148.357 11.5557 148.572 11.5684ZM80.6965 15.9012L80.7568 15.2564L48.9406 19.1705L49.3558 19.559L47.651 19.7573L47.9838 20.3291C48.4477 20.2827 57.2211 19.3955 63.6542 18.499C70.0872 17.6025 79.1575 17.2651 79.6353 17.2477L79.7269 16.2572L80.6965 15.8989" fill="#EDEDED"/>
<path d="M16.1001 37.5476L16.0502 37.6996L7.9541 35.0438L8.00513 34.8918L16.1001 37.5476Z" fill="#B3B3B3"/>
<path d="M47.1188 23.6935L46.917 24.1991C46.8964 24.1224 46.9009 24.0412 46.9298 23.9672L47.1316 23.4615C47.102 23.5354 47.0976 23.6169 47.1188 23.6935Z" fill="#676767"/>
<path d="M56.2271 24.01L56.0253 24.5157C56.0182 24.5335 56.01 24.5509 56.001 24.5678L56.2028 24.0622C56.2118 24.0453 56.22 24.0278 56.2271 24.01Z" fill="#6B6B6B"/>
<path d="M56.2029 24.0623L56.0011 24.5679C55.9243 24.703 55.8004 24.805 55.6531 24.8544C55.1892 25.0295 49.4451 26.6079 49.1436 26.6914L49.3453 26.1857C49.6469 26.1034 55.3864 24.5238 55.8549 24.3487C56.0022 24.2993 56.1261 24.1973 56.2029 24.0623Z" fill="#676767"/>
<path d="M49.3412 26.1857L49.1394 26.6914C49.0594 26.6914 48.7173 26.6694 48.4505 26.2275C48.3137 26.0025 46.9846 24.2838 46.915 24.1933L47.1192 23.6935C47.1887 23.7839 48.5108 25.5027 48.6546 25.7277C48.9202 26.1672 49.2635 26.1915 49.3435 26.1915" fill="#676767"/>
<path d="M55.0244 21.9771C55.2064 21.9771 55.4221 22.0223 55.4975 22.2218L56.2618 23.7596C56.2618 23.7804 56.3186 24.1713 55.8501 24.3487C55.3816 24.5261 49.642 26.1034 49.3405 26.1857C49.2605 26.1857 48.9172 26.1637 48.6516 25.7218C48.5101 25.4992 47.1857 23.7804 47.1185 23.6935C47.1127 23.6737 47.0025 23.2864 47.5823 23.16C48.0254 23.0649 54.4051 22.0663 54.7402 22.0142C54.8332 21.9908 54.9285 21.9783 55.0244 21.9771Z" fill="#B0B0B0"/>
<path d="M0.295911 43.2929L0.0941181 43.7985C0.0392663 43.6917 0.00760535 43.5745 0.00120982 43.4546C-0.0051857 43.3347 0.0138277 43.2147 0.0570057 43.1027L0.2588 42.597C0.215477 42.7091 0.196384 42.829 0.202781 42.9489C0.209178 43.0689 0.240918 43.1861 0.295911 43.2929Z" fill="#676767"/>
<path d="M12.8591 39.0414L12.6573 39.5459C12.6486 39.569 12.6381 39.5915 12.626 39.6131L12.8278 39.1075C12.8394 39.0854 12.8498 39.0623 12.8591 39.0414Z" fill="#6B6B6B"/>
<path d="M12.8273 39.1074L12.6255 39.6131C12.556 39.734 12.4615 39.8388 12.3483 39.9204C11.8983 40.2683 3.20498 45.1392 2.74805 45.399L2.94984 44.8933C3.40678 44.637 12.1001 39.758 12.5501 39.4148C12.6638 39.3337 12.7584 39.2288 12.8273 39.1074Z" fill="#676767"/>
<path d="M1.976 44.978L1.7742 45.4836L0.09375 43.7951L0.295544 43.2894L1.976 44.978Z" fill="#636363"/>
<path d="M2.94923 44.8933L2.74743 45.399C2.73235 45.4117 2.43778 45.6529 2.13277 45.6529C2.06402 45.6543 1.99589 45.6397 1.93372 45.6103C1.87155 45.581 1.81702 45.5376 1.77441 45.4836L1.97621 44.978C2.01857 45.0323 2.07302 45.076 2.13523 45.1056C2.19744 45.1352 2.26569 45.1499 2.33457 45.1485C2.63958 45.1485 2.93299 44.9061 2.94923 44.8933Z" fill="#676767"/>
<path d="M7.10826 36.6465C7.2915 36.6465 7.56055 36.7103 7.876 36.9817C8.1497 37.2136 12.5613 38.4151 12.7933 38.4777C12.8118 38.5021 13.1412 38.966 12.5532 39.4148C12.1032 39.7627 3.40987 44.6336 2.95293 44.8934C2.93669 44.9061 2.64328 45.1485 2.33827 45.1485C2.2694 45.1499 2.20115 45.1352 2.13894 45.1056C2.07673 45.076 2.02228 45.0324 1.97991 44.978L0.29598 43.2929C0.213764 43.1334 0.184505 42.9519 0.212449 42.7746C0.240393 42.5974 0.324087 42.4336 0.451386 42.3072C0.888606 41.8433 6.54927 36.9573 6.84732 36.6999C6.92898 36.6621 7.01832 36.6438 7.10826 36.6465Z" fill="#B0B0B0"/>
<path d="M18.4737 26.1218L18.273 26.6263L17.9355 26.1485L18.1362 25.6428L18.4737 26.1218Z" fill="#636363"/>
<path d="M36.0582 22.0176L35.8575 22.5232C35.8494 22.5418 35.8413 22.5603 35.832 22.5777L36.0338 22.0721C36.0431 22.0545 36.0512 22.0363 36.0582 22.0176Z" fill="#6B6B6B"/>
<path d="M36.034 22.0698L35.8322 22.5755C35.8089 22.6231 35.7753 22.6649 35.7337 22.6978C35.6922 22.7307 35.6438 22.7539 35.5921 22.7657C35.2384 22.8434 21.0572 26.1938 18.7458 26.7389C18.6803 26.7572 18.6131 26.7685 18.5452 26.7725C18.5123 26.7719 18.4797 26.7656 18.4489 26.754C18.3826 26.722 18.3225 26.6784 18.2715 26.6253L18.4733 26.1196C18.5237 26.1729 18.5835 26.2165 18.6496 26.2483C18.6808 26.2599 18.7137 26.2662 18.747 26.2669C18.8149 26.2635 18.8823 26.2522 18.9476 26.2333C21.2578 25.6882 35.4402 22.3377 35.7939 22.26C35.8458 22.2487 35.8944 22.2257 35.936 22.1928C35.9776 22.1598 36.0111 22.1177 36.034 22.0698Z" fill="#676767"/>
<path d="M36.1116 21.527C36.1116 21.5595 36.1812 22.1764 35.7939 22.2622C35.4401 22.34 21.2577 25.6904 18.9476 26.2355C18.8822 26.2544 18.8149 26.2657 18.7469 26.2691C18.7136 26.2684 18.6807 26.2622 18.6495 26.2506C18.5834 26.2187 18.5237 26.1751 18.4732 26.1218L18.1357 25.6429C20.6466 25.0259 24.3067 24.0981 26.9416 23.509C29.8085 22.8676 33.9626 22.0094 36.1116 21.527Z" fill="#B0B0B0"/>
<path d="M84.7865 14.1893L84.5859 14.695C84.5787 14.712 84.5706 14.7287 84.5615 14.7448L84.7633 14.2392C84.772 14.223 84.7797 14.2064 84.7865 14.1893Z" fill="#6B6B6B"/>
<path d="M84.7633 14.2393L84.5615 14.7449C84.5323 14.8042 84.4875 14.8544 84.432 14.8901C84.3764 14.9259 84.3121 14.9458 84.2461 14.9479L84.4479 14.4422C84.5139 14.4401 84.5781 14.42 84.6336 14.3843C84.6892 14.3486 84.734 14.2984 84.7633 14.2393Z" fill="#676767"/>
<path d="M84.4481 14.4423L84.2463 14.9479C82.5461 15.1532 50.2302 19.0603 50.1339 19.0742C49.4833 19.174 39.2104 20.648 38.6699 20.7257L38.8717 20.2201C39.4122 20.1435 49.6851 18.6683 50.3357 18.5698C50.4319 18.5547 82.7468 14.6475 84.4481 14.4423Z" fill="#676767"/>
<path d="M38.8718 20.22L38.67 20.7256L38.4531 18.819L38.6549 18.3134L38.8718 20.22Z" fill="#636363"/>
<path d="M84.2925 13.1479C84.3412 13.1479 84.7877 13.1642 84.833 13.7951C84.8782 14.426 84.4688 14.4422 84.4479 14.4422C82.7466 14.6475 50.4318 18.5546 50.3355 18.5697C49.6849 18.6683 39.412 20.1435 38.8715 20.22L38.6523 18.3134C39.1963 18.1974 49.5133 15.9835 50.0177 15.9638C50.2694 15.9533 57.2081 14.8214 64.7869 14.1975C74.066 13.4321 83.7811 13.1619 84.2925 13.1479Z" fill="#B0B0B0"/>
<path d="M142.315 14.623L142.113 15.1275C133.86 15.4441 121.378 15.9231 117.395 16.0843C112.611 16.2768 95.5019 17.7079 88.2188 18.3307L88.4205 17.8251C95.7037 17.2058 112.813 15.7712 117.596 15.5787C121.58 15.4175 134.064 14.9385 142.315 14.623Z" fill="#676767"/>
<path d="M138.39 14.1128C139.318 14.1128 140.211 14.1209 141.057 14.1383C142.354 14.1638 142.314 14.6022 142.312 14.6231C134.058 14.9385 121.577 15.4175 117.593 15.5787C112.811 15.7712 95.7011 17.2023 88.418 17.8251L89.0512 16.9994C90.6423 16.8509 120.828 14.1128 138.39 14.1128Z" fill="#B0B0B0"/>
<path d="M104.445 13.998L104.243 14.5025L103.868 12.459L104.069 11.9534L104.445 13.998Z" fill="#636363"/>
<path d="M136.774 13.0736L136.572 13.5793C135.136 13.6384 107.853 14.7819 105.319 14.7819C105.266 14.7846 105.212 14.7846 105.158 14.7819C104.329 14.6996 104.248 14.5175 104.243 14.5082L104.445 14.0026C104.445 14.0118 104.531 14.1939 105.36 14.2774C105.385 14.2774 105.44 14.2774 105.521 14.2774C108.055 14.2774 135.338 13.1351 136.774 13.0748" fill="#676767"/>
<path d="M133.928 11.1497C134.999 11.1497 136.004 11.152 136.943 11.1566L136.768 13.0737C135.332 13.134 108.049 14.2763 105.515 14.2763C105.434 14.2763 105.38 14.2763 105.354 14.2763C104.525 14.1928 104.444 14.0107 104.439 14.0014L104.063 11.9568C107.976 11.6623 113.17 11.3944 120.108 11.2784C125.575 11.1833 130.156 11.1497 133.928 11.1497Z" fill="#B0B0B0"/>
<path d="M33.5733 30.058L33.3715 30.5636C33.3275 30.6726 33.2811 30.7759 33.2335 30.871L33.2266 30.8837L33.4284 30.3781C33.4308 30.374 33.4327 30.3698 33.4342 30.3653C33.4829 30.2702 33.5293 30.167 33.5733 30.058Z" fill="#6B6B6B"/>
<path d="M33.4339 30.3781L33.2263 30.8837C33.086 31.147 32.7393 31.3314 32.7207 31.3476L32.9225 30.8419C32.9411 30.8315 33.2867 30.6471 33.4281 30.3838" fill="#676767"/>
<path d="M32.9223 30.8362L32.7205 31.3476C32.6139 31.3778 30.5704 31.9611 27.9262 32.9109C25.282 33.8608 18.6333 36.1002 17.9038 36.3959C16.9076 36.8007 16.4066 36.912 15.8696 36.912C15.6377 36.912 15.3999 36.8912 15.1123 36.8645L15.3141 36.3588C15.6017 36.3855 15.8395 36.4064 16.0714 36.4064C16.6084 36.4064 17.1094 36.2904 18.1056 35.8915C18.8351 35.5946 25.4838 33.3551 28.128 32.4053C30.7722 31.4555 32.8145 30.8721 32.9223 30.842" fill="#676767"/>
<path d="M15.3143 36.353L15.1125 36.8575L10.4121 35.4102L10.6139 34.9045L15.3143 36.353Z" fill="#636363"/>
<path d="M10.6125 34.9045L10.4119 35.4067C10.3747 35.3939 9.8691 35.2269 10.0001 34.8987L10.2008 34.3931C10.0709 34.7213 10.5765 34.8894 10.6125 34.901" fill="#676767"/>
<path d="M29.0268 27.1262C29.5939 27.1262 33.3573 27.4475 33.7817 27.8464C34.103 28.1503 33.8513 29.5501 33.4338 30.3654C33.2969 30.6367 32.9409 30.8292 32.9224 30.8362C32.8145 30.8664 30.7722 31.4509 28.128 32.3995C25.4838 33.3482 18.8351 35.5888 18.1056 35.8857C17.1094 36.2893 16.6084 36.4006 16.0714 36.4006C15.8395 36.4006 15.6017 36.3797 15.3141 36.3531L10.6126 34.9046C10.5627 34.8883 9.61054 34.5717 10.6995 33.9455C11.1704 33.6752 16.7731 31.1087 17.0688 30.9731C22.2841 28.6803 28.5548 27.1343 29.0268 27.1262Z" fill="#B0B0B0"/>
<path d="M61.5091 18.739L61.3073 19.2446L61.1855 18.921L61.3873 18.4154L61.5091 18.739Z" fill="#636363"/>
<path d="M61.6215 18.8828L61.4197 19.3885C61.3721 19.3485 61.3327 19.2997 61.3037 19.2447L61.5055 18.739C61.5345 18.794 61.5739 18.8428 61.6215 18.8828Z" fill="#676767"/>
<path d="M76.284 17.621L76.0834 18.1266C76.0718 18.1556 76.0579 18.1846 76.0439 18.2124L76.2457 17.7068C76.2601 17.6789 76.2729 17.6503 76.284 17.621Z" fill="#6B6B6B"/>
<path d="M76.246 17.7068L76.0442 18.2124C76.0209 18.2709 75.9821 18.322 75.9321 18.3601C75.882 18.3983 75.8226 18.4222 75.76 18.4293C75.4643 18.4421 63.5979 19.3084 61.6588 19.4232H61.5695C61.5167 19.4286 61.4637 19.415 61.4199 19.3849L61.6217 18.8793C61.6655 18.9094 61.7185 18.9229 61.7713 18.9175H61.8606C63.7997 18.8016 75.6615 17.9364 75.9618 17.9237C76.0244 17.9166 76.0838 17.8927 76.1339 17.8545C76.1839 17.8163 76.2227 17.7653 76.246 17.7068Z" fill="#676767"/>
<path d="M68.8061 17.6059C71.2021 17.5537 74.5688 17.4041 76.3676 17.3195C76.3676 17.3496 76.2898 17.9098 75.9663 17.9237C75.6706 17.9364 63.8042 18.8039 61.8651 18.9176H61.7758C61.723 18.923 61.6699 18.9094 61.6262 18.8793C61.5786 18.8393 61.5392 18.7905 61.5102 18.7355L61.3838 18.4154C63.4713 18.151 66.6455 17.6535 68.8061 17.6059Z" fill="#B0B0B0"/>
<path d="M85.3749 18.0363L85.1731 18.5419L80.1758 19.4848L80.3776 18.9791L85.3749 18.0363Z" fill="#636363"/>
<path d="M80.3776 18.9791L80.1758 19.4848L80.2129 18.6718L80.4147 18.1661L80.3776 18.9791Z" fill="#636363"/>
<path d="M85.3242 17.3647L85.3752 18.0362L80.3779 18.9791L80.415 18.1661L85.3242 17.3647Z" fill="#B0B0B0"/>
<path d="M134.152 1.46704L134.051 1.77089C134.043 1.79713 134.031 1.82239 134.018 1.84627L134.118 1.54242C134.132 1.51865 134.144 1.49336 134.152 1.46704Z" fill="#8A8A8A"/>
<path d="M134.119 1.54248L134.018 1.84633C133.627 2.54797 131.262 2.54217 131.129 2.54217L131.23 2.23948C131.363 2.23948 133.728 2.24528 134.119 1.54364" fill="#858585"/>
<path d="M126.978 1.14583L126.877 1.44852L126.775 1.20497L126.877 0.901123L126.978 1.14583Z" fill="#808080"/>
<path d="M131.229 2.23828L131.129 2.54097C129.979 2.592 108.135 3.55922 98.1689 4.44178L98.2698 4.13793C108.235 3.25653 130.08 2.28931 131.229 2.23828Z" fill="#858585"/>
<path d="M126.877 0.901123L126.775 1.20497C126.533 1.20497 113.27 1.46823 104.006 2.10377C94.7099 2.74046 87.9069 3.49545 87.8408 3.50473L87.9429 3.20087C88.0078 3.19392 94.812 2.43661 104.107 1.79992C113.371 1.16438 126.635 0.901123 126.877 0.901123Z" fill="#858585"/>
<path d="M98.27 4.13794L98.1692 4.44179C88.1954 5.32319 85.0178 5.38465 84.8496 5.38813L84.9505 5.08428C85.1187 5.08428 88.3021 5.01934 98.27 4.13794Z" fill="#858585"/>
<path d="M84.9508 5.08435L84.8499 5.3882C83.9082 5.55288 66.0205 8.68996 62.8648 9.15038C60.9803 9.42639 51.3835 10.5757 43.0508 11.7714L43.1517 11.4675C51.4867 10.2718 61.0812 9.12254 62.9657 8.84768C66.1214 8.38379 84.0091 5.25251 84.9508 5.08435Z" fill="#858585"/>
<path d="M54.1257 11.3132L54.0248 11.6171C54.0248 11.6275 54.0156 11.6391 54.0098 11.6507L54.1107 11.3469C54.1165 11.3353 54.1211 11.3248 54.1257 11.3132Z" fill="#8A8A8A"/>
<path d="M54.1111 11.3469L54.0102 11.6508C53.9233 11.7684 53.8016 11.8556 53.6623 11.9001C53.152 12.1205 49.0628 13.2037 44.4795 14.5002L44.5804 14.1964C49.1648 12.8998 53.2529 11.8166 53.7632 11.5974C53.9029 11.5531 54.0248 11.4654 54.1111 11.3469Z" fill="#858585"/>
<path d="M43.1511 11.4675L43.0502 11.7714C39.6962 12.2527 33.7874 13.7592 33.4766 13.8357L33.5775 13.5319C33.8883 13.453 39.7971 11.9477 43.1511 11.4652" fill="#858585"/>
<path d="M28.8548 14.9525L28.7539 15.2552L28.9128 14.6915L29.0137 14.3877L28.8548 14.9525Z" fill="#808080"/>
<path d="M29.0137 14.3888L28.9128 14.6915C28.7667 14.7135 25.9891 15.1194 24.0002 15.1194C22.9564 15.1194 22.1666 15.0035 22.2003 14.6393C22.2018 14.6236 22.2049 14.608 22.2095 14.5929L22.3104 14.2891C22.3057 14.3045 22.3026 14.3205 22.3012 14.3366C22.2675 14.6973 23.055 14.8156 24.1011 14.8156C26.09 14.8156 28.8676 14.4097 29.0137 14.3888Z" fill="#858585"/>
<path d="M43.5238 14.4967L43.4229 14.8006C43.1086 14.8887 42.7955 14.9792 42.4812 15.0696C40.3287 15.6912 38.167 16.3372 36.2963 16.9437C32.8043 18.0803 27.2144 19.5427 22.79 20.6549L22.8909 20.3522C27.3153 19.2412 32.9052 17.7799 36.3972 16.6411C38.2678 16.0334 40.4296 15.3885 42.5821 14.7669C42.8963 14.6765 43.2095 14.5848 43.5238 14.4967Z" fill="#858585"/>
<path d="M22.8952 20.3488L22.7943 20.6526L19.0576 20.7813L19.1585 20.4775L22.8952 20.3488Z" fill="#808080"/>
<path d="M48.3285 26.3282L48.2276 26.6321C48.117 26.6575 48.0036 26.6684 47.8901 26.6646C45.188 26.6646 31.0253 23.0775 24.9657 22.5104C23.3049 22.355 21.5178 22.3098 20.0078 22.3098L20.1099 22.0071C21.6175 22.0071 23.4058 22.0512 25.0666 22.2066C31.1273 22.7737 45.2889 26.3607 47.991 26.3607C48.1045 26.3644 48.218 26.3531 48.3285 26.3271" fill="#858585"/>
<path d="M44.5838 14.1963L44.4829 14.5001C34.4454 15.6761 15.5846 20.7731 14.7334 21.0109L14.8343 20.707C15.6855 20.4751 34.5498 15.3723 44.5838 14.1963Z" fill="#858585"/>
<path d="M20.1103 22.0071L20.0083 22.3098C17.9509 22.3098 16.4873 22.3898 16.4131 22.3933L16.514 22.0906C16.5917 22.0906 18.0553 22.0071 20.1092 22.0071" fill="#858585"/>
<path d="M12.9718 21.7056L12.8709 22.0094C12.2435 21.6615 12.0939 21.3426 12.1843 21.0723L12.2852 20.7697C12.1959 21.0387 12.3444 21.3495 12.9718 21.7056Z" fill="#858585"/>
<path d="M132.679 0.705147C132.755 0.712105 134.222 0.836197 134.173 1.37431C134.091 2.24527 131.373 2.23831 131.23 2.23831C130.081 2.28934 108.236 3.25656 98.2707 4.13796C88.3051 5.01936 85.1193 5.08082 84.9511 5.0843C84.0094 5.25362 66.1217 8.3849 62.966 8.8488C61.0815 9.12365 51.4847 10.273 43.152 11.4686C39.798 11.9511 33.8892 13.4564 33.5784 13.5353L33.5447 13.8832C33.7581 13.8577 37.7963 13.3729 42.782 12.4788C47.7677 11.5846 53.3263 10.9572 53.6186 10.9236C54.1834 11.0465 54.3596 11.3445 53.767 11.6008C53.2567 11.82 49.1687 12.9032 44.5843 14.1998C34.5479 15.3723 15.6906 20.4705 14.8347 20.7071C15.8611 20.7222 33.5505 15.668 43.5243 14.4967C43.21 14.5848 42.8968 14.6765 42.5825 14.7669C40.4301 15.3885 38.2683 16.0333 36.3977 16.6411C32.9057 17.7776 27.3158 19.2389 22.8914 20.3522L19.1548 20.4798C20.2159 20.5169 24.1822 20.5957 25.2039 20.6874C31.2612 21.2579 44.1505 24.7372 46.746 24.7372C46.8591 24.7411 46.9722 24.7298 47.0823 24.7035L48.329 26.3271C48.2185 26.3531 48.105 26.3644 47.9916 26.3608C45.2894 26.3608 31.1279 22.7726 25.0671 22.2055C23.4063 22.05 21.6192 22.006 20.1104 22.006C18.0519 22.006 16.5883 22.0848 16.5152 22.0895C16.1301 22.1323 15.7429 22.1532 15.3555 22.1521C14.597 22.1521 13.6286 22.0686 12.9757 21.7044C11.0471 20.6282 13.6379 19.8697 13.7748 19.8303C14.1088 19.7329 20.4502 17.8889 23.4562 15.922L28.8571 14.9513L29.0171 14.3877C28.871 14.4086 26.0934 14.8145 24.1045 14.8145C23.0607 14.8145 22.271 14.6985 22.3046 14.3355C22.402 13.2859 31.8411 10.4852 40.0079 8.8604C48.1748 7.23561 76.8875 4.72015 78.3951 4.58678C78.6271 4.57982 82.983 4.44065 88.6008 2.70337C93.1725 1.29081 105.96 1.00204 114.005 0.69471C116.64 0.596132 119.551 0.5625 122.276 0.5625C123.956 0.5625 125.566 0.575256 126.995 0.592652C130.323 0.635563 132.561 0.701668 132.679 0.705147ZM126.979 1.14585L126.878 0.901142C126.635 0.901142 113.372 1.1644 104.108 1.79994C94.8123 2.43663 88.0082 3.19161 87.9432 3.20089L88.6089 3.3563C88.6739 3.34934 94.839 2.73584 104.132 2.10031C113.39 1.46709 126.76 1.14585 126.979 1.14585Z" fill="#E1E1E1"/>
<path d="M16.5105 22.0906L16.4096 22.3933C16.0247 22.4375 15.6374 22.4588 15.2499 22.4571C14.4914 22.4571 13.523 22.3724 12.8701 22.0094L12.971 21.7056C13.6239 22.0697 14.5946 22.1532 15.3508 22.1532C15.7382 22.1543 16.1254 22.1334 16.5105 22.0906Z" fill="#858585"/>
<g opacity="0.5">
<path d="M127.152 1.39514L127.051 1.69899C126.101 1.92166 120.824 3.80507 115.767 7.50926C110.573 11.312 103.544 13.998 103.345 14.0571L103.446 13.7533C103.645 13.6941 110.674 11.0082 115.868 7.20541C120.926 3.50122 126.203 1.61897 127.152 1.39514Z" fill="#858585"/>
<path d="M103.445 13.7532L103.344 14.0571L103.304 12.9565L103.405 12.6538L103.445 13.7532Z" fill="#808080"/>
<path d="M126.89 0.892944L127.151 1.39511C126.202 1.61894 120.926 3.50119 115.867 7.20538C110.674 11.0081 103.644 13.6941 103.445 13.7532L103.404 12.6538C103.452 12.6387 110.177 10.0479 115.21 6.36225C120.422 2.54673 125.769 1.15736 126.89 0.892944Z" fill="#E1E1E1"/>
</g>
<path d="M127.052 0.556641L126.85 1.06228C124.824 1.57257 120.026 3.70416 115.569 6.96649C112.827 8.97399 109.538 10.666 107.261 11.7376L107.463 11.232C109.746 10.1616 113.029 8.46835 115.771 6.46201C120.228 3.19852 125.026 1.06692 127.052 0.556641Z" fill="#676767"/>
<path d="M106.974 11.1149L106.772 11.6205C106.756 11.592 106.748 11.5598 106.748 11.5272C106.748 11.4945 106.756 11.4623 106.772 11.4338L106.974 10.9293C106.958 10.9576 106.95 10.9896 106.95 11.0221C106.95 11.0546 106.958 11.0866 106.974 11.1149Z" fill="#676767"/>
<path d="M107.462 11.232L107.261 11.7376C107.209 11.7573 107.155 11.7672 107.099 11.7666C107.038 11.7669 106.977 11.754 106.92 11.7288C106.864 11.7036 106.813 11.6667 106.772 11.6205L106.974 11.1149C107.015 11.1609 107.065 11.1977 107.121 11.2229C107.178 11.2481 107.239 11.2611 107.3 11.261C107.356 11.2616 107.411 11.2518 107.462 11.232Z" fill="#676767"/>
<path d="M126.694 0L127.052 0.556673C125.026 1.06696 120.228 3.19855 115.771 6.46204C113.029 8.46838 109.74 10.1616 107.463 11.232C107.411 11.2518 107.356 11.2616 107.3 11.261C107.239 11.2611 107.178 11.2481 107.122 11.223C107.065 11.1978 107.015 11.1609 106.974 11.1149C106.917 11.0511 106.943 10.8041 107.312 10.5803C109.622 9.50634 112.954 7.79689 115.778 5.72561C120.574 2.21973 125.11 0.397789 126.694 0Z" fill="#B0B0B0"/>
<path d="M47.9469 25.7275L47.7451 26.2332L47.9469 25.7275Z" fill="#676767"/>
<path d="M47.9469 25.7275L47.7451 26.232L47.9469 25.7275Z" fill="#6F6F6F"/>
<path d="M47.9469 25.7275L47.7451 26.232L47.9469 25.7275Z" fill="#6B6B6B"/>
<path d="M47.9469 25.7275L47.7451 26.232L47.9469 25.7275Z" fill="#676767"/>
<path d="M19.919 19.1089L19.7172 19.6145L14.7002 20.9726L14.902 20.4681L19.919 19.1089Z" fill="#636363"/>
<path d="M14.9026 20.4681L14.7008 20.9738C14.5775 21.0324 14.4701 21.12 14.3877 21.2289L14.5883 20.7233C14.6711 20.6142 14.7789 20.5267 14.9026 20.4681Z" fill="#676767"/>
<path d="M14.5882 20.7233L14.3876 21.2289C14.383 21.2363 14.3791 21.244 14.376 21.2521L14.5778 20.7465C14.5808 20.7385 14.5843 20.7308 14.5882 20.7233Z" fill="#6B6B6B"/>
<path d="M47.946 25.7252L47.7442 26.2309C47.2977 26.2309 42.1879 25.2416 38.1311 24.4054C33.1582 23.3802 27.9382 22.4536 24.9473 22.1753C23.2773 22.0199 21.4681 21.9746 19.95 21.9746C17.9088 21.9746 16.3734 22.0547 16.3467 22.057L16.5485 21.5513C16.5751 21.5513 18.1106 21.469 20.1518 21.469C21.6745 21.469 23.479 21.5142 25.1479 21.6696C28.14 21.9491 33.36 22.8758 38.3329 23.901C42.392 24.736 47.4948 25.7264 47.946 25.7252Z" fill="#676767"/>
<path d="M16.5489 21.5513L16.3471 22.057C15.9662 22.0986 15.5833 22.1195 15.2001 22.1196C14.9554 22.1196 14.6898 22.1115 14.4219 22.086C13.8084 22.0291 13.3236 21.9027 12.9815 21.7125C12.6394 21.5223 12.433 21.3205 12.448 21.1837C12.4503 21.1645 12.4554 21.1457 12.4631 21.128L12.6637 20.6235C12.6569 20.6411 12.6522 20.6594 12.6498 20.678C12.6348 20.8149 12.8331 21.0144 13.1833 21.2069C13.5336 21.3994 14.0102 21.5235 14.6237 21.5803C14.8916 21.6058 15.1572 21.6151 15.4019 21.6151C15.7851 21.6156 16.1681 21.5943 16.5489 21.5513Z" fill="#676767"/>
<path d="M47.0688 24.6003C47.114 24.6003 47.9049 25.6707 47.9467 25.7252C47.5002 25.7252 42.3904 24.736 38.3337 23.901C33.3607 22.8816 28.1408 21.9538 25.1486 21.6696C23.4798 21.5142 21.6752 21.469 20.1525 21.469C18.1114 21.469 16.5759 21.5502 16.5492 21.5513C16.1684 21.5944 15.7855 21.6156 15.4022 21.6151C15.1575 21.6151 14.892 21.6058 14.6241 21.5803C14.0106 21.5235 13.5258 21.3983 13.1837 21.2069C12.8415 21.0155 12.6351 20.8149 12.6502 20.6781C12.6815 20.3951 13.4063 20.0367 13.9166 19.8871C13.9421 19.8802 16.4877 19.1368 19.1145 18.1208L19.9194 19.1089L14.9024 20.4681C14.8618 20.489 14.0999 20.881 15.0184 21.0561C15.2584 21.025 15.5 21.0076 15.742 21.0039L19.2352 20.5401C19.5228 20.5493 20.0006 20.5621 20.5689 20.5772C22.1333 20.6166 24.4992 20.6769 25.2379 20.7453C28.2996 21.0318 33.617 22.0373 38.307 22.9268C42.2489 23.676 45.2642 24.431 47.0688 24.6003Z" fill="#B0B0B0"/>
<path d="M33.6873 13.5225L33.5864 13.8263L28.9092 14.7054L29.0101 14.4027L33.6873 13.5225Z" fill="#808080"/>
<path d="M29.01 14.4027L28.9091 14.7053L28.9033 14.6775L29.0042 14.3737L29.01 14.4027Z" fill="#808080"/>
<path d="M33.6823 13.4946L33.6869 13.5225L29.0097 14.4027L29.0039 14.3737L33.6823 13.4946Z" fill="#E1E1E1"/>
<path d="M43.1798 11.4546L43.0789 11.7585L42.3506 10.927L42.4515 10.6243L43.1798 11.4546Z" fill="#808080"/>
<path d="M42.4501 10.6243L42.3492 10.9281C42.1695 10.9525 39.0602 11.392 36.8428 11.8258C34.5686 12.2723 31.0592 13.2174 31.0244 13.2255L31.1253 12.9217C31.1601 12.9124 34.6695 11.9684 36.9437 11.5231C39.1611 11.087 42.2704 10.6498 42.4501 10.6243Z" fill="#858585"/>
<path d="M31.1252 12.9218L31.0243 13.2244L27.4326 14.8724L27.5335 14.5697L31.1252 12.9218Z" fill="#808080"/>
<path d="M42.4549 10.5941L43.1797 11.4546L42.4503 10.6243C42.2705 10.6498 39.1612 11.0882 36.9438 11.5231C34.6696 11.9684 31.1602 12.9147 31.1254 12.9217L27.5303 14.5697L31.115 12.895C31.1533 12.8846 34.6638 11.9406 36.938 11.4952C39.2123 11.0499 42.4224 10.5988 42.4549 10.5941Z" fill="#E1E1E1"/>
<path d="M79.8999 5.46936L79.6981 5.97501C73.9748 6.97122 64.6494 8.58325 62.5259 8.8929C61.8927 8.98452 60.4036 9.17355 58.3416 9.43565C54.5945 9.91114 48.9628 10.6255 43.7139 11.3666L43.9157 10.861C49.1646 10.1245 54.7963 9.4055 58.5434 8.93001C60.6054 8.66791 62.0945 8.47887 62.7277 8.38725C64.8512 8.0776 74.1754 6.46557 79.8999 5.46936Z" fill="#676767"/>
<path d="M43.9157 10.8609L43.7139 11.3666C43.6753 11.307 43.6284 11.2531 43.5747 11.2065C43.0888 10.7774 42.647 10.5652 42.1564 10.5188C42.0822 10.5119 42.0079 10.5096 41.9337 10.5096C41.6164 10.5193 41.3003 10.5542 40.9885 10.6139C40.832 10.6383 40.6638 10.6661 40.4817 10.6905C39.438 10.8331 36.7775 11.2205 34.6831 11.7528C34.2609 11.8595 33.8643 11.9534 33.4804 12.0439C31.4961 12.5078 29.7797 12.9172 26.834 14.6394L27.0346 14.1349C29.9815 12.4115 31.6979 12.0068 33.6822 11.5382C34.0661 11.4478 34.4627 11.3538 34.8849 11.2471C36.984 10.716 39.6398 10.3275 40.6835 10.1848C40.8656 10.1605 41.0314 10.1338 41.1903 10.1083C41.5011 10.0503 41.816 10.0169 42.132 10.0085C42.2074 10.0085 42.2816 10.0085 42.3559 10.0178C42.8499 10.0642 43.2837 10.2764 43.7742 10.7055C43.8279 10.7521 43.8748 10.806 43.9134 10.8656" fill="#676767"/>
<path d="M27.0302 14.1349L26.8296 14.6394C25.8879 14.7414 24.7015 14.8435 23.7424 14.8435C23.4467 14.8435 23.173 14.8342 22.9306 14.811C22.5154 14.7727 22.338 14.7066 22.2695 14.6684L22.4713 14.1639C22.5397 14.201 22.7172 14.2671 23.1324 14.3065C23.3713 14.3286 23.645 14.3378 23.9442 14.3378C24.9021 14.3378 26.0897 14.2358 27.0302 14.1349Z" fill="#676767"/>
<path d="M78.7795 4.70276C79.0312 4.84541 79.2921 5.01473 79.5577 5.2026C79.6759 5.28548 79.7898 5.37452 79.8987 5.46934C74.1754 6.46555 64.8511 8.07758 62.7276 8.38491C62.0944 8.47653 60.6053 8.66557 58.5433 8.92767C54.7962 9.40316 49.1645 10.1176 43.9156 10.8586C43.877 10.799 43.8301 10.7451 43.7764 10.6986C43.2905 10.2695 42.8486 10.0572 42.3581 10.0109C42.2838 10.0051 42.2096 10.0016 42.1342 10.0016C41.8173 10.0114 41.5016 10.0463 41.1902 10.106C41.0336 10.1315 40.8655 10.1581 40.6834 10.1825C39.6396 10.3251 36.9792 10.7137 34.8847 11.2448C34.4626 11.3515 34.066 11.4455 33.6821 11.5359C31.6978 11.9998 29.9814 12.4092 27.0345 14.1326C26.094 14.2335 24.9064 14.3355 23.9484 14.3355C23.6527 14.3355 23.379 14.3262 23.1366 14.3042C22.7214 14.2648 22.544 14.1987 22.4756 14.1615C22.7075 13.8705 24.1433 13.1074 28.2743 11.8618C31.7094 10.8262 36.0514 9.75224 39.8913 8.9903C47.8935 7.40146 77.5664 4.78974 78.2101 4.73291C78.2518 4.73407 78.4501 4.72595 78.7795 4.70276Z" fill="#B0B0B0"/>
<path d="M43.8842 13.6906L43.6824 14.1962C41.8709 14.5244 34.299 15.9149 29.8896 17.0178L20.3184 19.4104L20.5202 18.9047L30.0914 16.5122C34.4984 15.4093 42.0726 14.0188 43.8842 13.6906Z" fill="#676767"/>
<path d="M20.5202 18.9047L20.3184 19.4104L19.5391 18.5243L19.7409 18.0187L20.5202 18.9047Z" fill="#636363"/>
<path d="M43.1458 12.7466C43.1696 12.801 43.2044 12.8499 43.2479 12.8904C43.489 13.1328 43.7025 13.4012 43.8846 13.6906C42.073 14.0188 34.5011 15.4093 30.0918 16.5122L20.5206 18.9048L19.7412 18.0187C19.8282 17.9793 21.497 17.2324 22.1268 16.9657L24.1853 15.9614L43.1458 12.7466Z" fill="#B0B0B0"/>
<path d="M52.4645 11.4698L52.2627 11.9801V11.9894L52.4645 11.4838C52.4647 11.4807 52.4647 11.4776 52.4645 11.4745" fill="#6B6B6B"/>
<path d="M52.4601 11.479L52.2583 11.98C52.2183 12.0309 52.1661 12.0708 52.1064 12.096C51.6066 12.3476 46.9804 13.4413 44.9961 13.9028L45.1979 13.3972C47.1822 12.9333 51.8084 11.842 52.3082 11.5903C52.3679 11.5652 52.4201 11.5252 52.4601 11.4744" fill="#676767"/>
<path d="M45.1977 13.3973L44.9959 13.903C44.8115 13.5945 44.6294 13.2848 44.416 12.9926L44.6178 12.4869C44.8266 12.7792 45.0086 13.0888 45.1977 13.3973Z" fill="#676767"/>
<path d="M51.7088 11.3202C52.095 11.3202 52.7804 11.3515 52.3084 11.5904C51.8085 11.8421 47.1823 12.9357 45.198 13.3973C45.0136 13.0888 44.8316 12.7791 44.6182 12.4869L51.471 11.3271C51.471 11.3271 51.5743 11.3202 51.7088 11.3202Z" fill="#B0B0B0"/>
<path d="M134.168 1.45325L134.067 1.7571C134.058 1.78333 134.047 1.8086 134.033 1.83248L134.134 1.52863C134.148 1.50485 134.159 1.47956 134.168 1.45325Z" fill="#8A8A8A"/>
<path d="M134.134 1.52869L134.033 1.83254C133.643 2.53418 131.278 2.52838 131.145 2.52838L131.245 2.22569C131.379 2.22569 133.743 2.23149 134.134 1.52985" fill="#858585"/>
<path d="M131.245 2.22437L131.144 2.52705C129.995 2.57808 108.15 3.5453 98.1846 4.42786L98.2855 4.12401C108.251 3.24261 130.096 2.27539 131.245 2.22437Z" fill="#858585"/>
<path d="M98.2857 4.12402L98.1848 4.42787C88.2111 5.30927 85.0334 5.37074 84.8652 5.37422L84.9661 5.07037C85.1343 5.07037 88.3178 5.00542 98.2857 4.12402Z" fill="#858585"/>
<path d="M84.9658 5.0704L134.187 1.35925C134.106 2.23021 131.388 2.22325 131.245 2.22325C130.096 2.27428 108.251 3.2415 98.2854 4.1229C88.3198 5.0043 85.134 5.06692 84.9658 5.0704Z" fill="#E1E1E1"/>
<path d="M133.93 1.02979L133.729 1.53543L133.72 1.55399L133.922 1.04834C133.925 1.04248 133.928 1.03626 133.93 1.02979Z" fill="#6B6B6B"/>
<path d="M133.922 1.04834L133.72 1.55398C133.561 1.8416 132.384 2.08862 131.114 2.08862L131.315 1.58298C132.591 1.58298 133.763 1.33595 133.922 1.04834Z" fill="#676767"/>
<path d="M127.77 1.13883L127.57 1.64447L127.276 1.05417L127.478 0.549683L127.77 1.13883Z" fill="#636363"/>
<path d="M127.783 1.37886L127.581 1.88334C127.596 1.84496 127.603 1.80382 127.601 1.76265C127.599 1.72147 127.588 1.68119 127.569 1.64444L127.771 1.13879C127.79 1.17575 127.801 1.21622 127.803 1.25759C127.805 1.29896 127.798 1.34028 127.783 1.37886Z" fill="#676767"/>
<path d="M131.316 1.58301L131.116 2.08865C130.862 2.09909 107.921 3.12197 98.1374 3.98482C92.8444 4.44871 89.4325 4.68761 87.5166 4.80243L87.7172 4.29678C89.6331 4.18081 93.052 3.94887 98.3392 3.47917C108.12 2.61633 131.063 1.59345 131.316 1.58301Z" fill="#676767"/>
<path d="M87.716 4.29675L87.5154 4.8024C87.4748 4.8024 87.4365 4.8024 87.3994 4.79544L87.6 4.28979C87.636 4.28979 87.6731 4.29559 87.716 4.29675Z" fill="#676767"/>
<path d="M87.6022 4.28988L87.4016 4.79553C87.2369 4.78045 87.0223 4.73522 86.9284 4.60417C86.8743 4.51096 86.8577 4.40067 86.882 4.29568L87.0838 3.79004C87.0607 3.89356 87.0773 4.00196 87.1302 4.09389C87.2241 4.22494 87.4387 4.27017 87.6022 4.28524" fill="#676767"/>
<path d="M127.478 0.549683C130.57 0.591433 132.728 0.654058 132.735 0.654058C133.454 0.722482 133.903 0.919638 133.939 0.993861C133.911 1.30351 132.663 1.58301 131.315 1.58301C131.062 1.59344 108.12 2.61633 98.3376 3.47917C93.0446 3.94307 89.6315 4.18197 87.7156 4.29678C87.675 4.29678 87.6379 4.29678 87.5996 4.28982C87.4361 4.27475 87.2215 4.22952 87.1276 4.09847C87.0735 4.00526 87.057 3.89497 87.0812 3.78998C87.2644 3.53368 89.0528 3.15444 91.6192 3.01644L92.3974 2.94221C94.3574 2.7555 96.2095 2.57922 104.415 2.01443C110.292 1.612 117.922 1.53777 122.764 1.53777C125.568 1.53777 127.439 1.56329 127.489 1.56445C127.541 1.56502 127.592 1.5526 127.638 1.5283C127.685 1.504 127.724 1.4686 127.753 1.42528C127.781 1.38241 127.797 1.3329 127.8 1.28177C127.803 1.23064 127.792 1.17972 127.768 1.13419L127.478 0.549683Z" fill="#B0B0B0"/>
</g>
<circle cx="23.1818" cy="25.1818" r="3.18182" fill="white" stroke="#62DAF8" stroke-width="2"/>
<defs>
<clipPath id="clip0_346_154076">
<rect width="150" height="45.6529" fill="white"/>
</clipPath>
</defs>
</svg>
